{
copyright = "Copyright (c) 2015, Cadson Demak (info@cadsondemak.com)";
customParameters = (
{
name = vendorID;
value = CDK;
},
{
name = description;
value = "Copyright (c) 2015, Cadson Demak (info@cadsondemak.com)";
},
{
name = license;

glyphs = (
{
glyphname = A;
lastChange = "2015-07-20 09:56:23 +0000";
layers = (
{
layerId = "28A75667-7282-4999-AEF1-C99F5F2E1F18";
name = Regular;
paths = (
{
closed = 1;
nodes = (
"123 65 OFFCURVE",
"144 141 OFFCURVE",
"163 209 CURVE",
"427 209 LINE",
"447 141 OFFCURVE",
"468 65 OFFCURVE",
"484 0 CURVE",
"551 7 LINE",
"497 205 OFFCURVE",
"425 436 OFFCURVE",
"358 614 CURVE",
"233 614 LINE",
"166 436 OFFCURVE",
"94 205 OFFCURVE",
"40 7 CURVE",
"107 0 LINE"
);
},
{
closed = 1;
nodes = (
"211 369 OFFCURVE",
"248 485 OFFCURVE",
"273 553 CURVE",
"317 553 LINE",
"342 485 OFFCURVE",
"378 369 OFFCURVE",
"409 265 CURVE",
"180 265 LINE"
);
}
);
width = 591;
}
);
leftKerningGroup = A;
rightKerningGroup = A;
unicode = 0041;
},
{
glyphname = Aacute;
lastChange = "2015-07-20 09:08:46 +0000";
layers = (
{
components = (
{
name = A;
}
);
layerId = "28A75667-7282-4999-AEF1-C99F5F2E1F18";
name = Regular;
paths = (
{
closed = 1;
nodes = (
"434 840 LINE",
"353 848 LINE",
"270 706 LINE",
"315 698 LINE"
);
}
);
width = 591;
}
);
leftKerningGroup = A;
note = Aacute;
rightKerningGroup = A;
unicode = 00C1;
},
{
glyphname = Abreve;
lastChange = "2015-07-20 09:08:46 +0000";
layers = (
{
components = (
{
name = A;
}
);
layerId = "28A75667-7282-4999-AEF1-C99F5F2E1F18";
name = Regular;
paths = (
{
closed = 1;
nodes = (
"376 698 OFFCURVE",
"413 742 OFFCURVE",
"423 804 CURVE",
"364 814 LINE",
"359 774 OFFCURVE",
"346 748 OFFCURVE",
"296 748 CURVE SMOOTH",
"245 748 OFFCURVE",
"232 774 OFFCURVE",
"227 814 CURVE",
"168 804 LINE",
"178 742 OFFCURVE",
"215 698 OFFCURVE",
"296 698 CURVE SMOOTH"
);
}
);
width = 591;
}
);
leftKerningGroup = A;
note = Abreve;
rightKerningGroup = A;
unicode = 0102;
},
{
glyphname = Abreveacute;
lastChange = "2015-07-20 09:08:46 +0000";
layers = (
{
layerId = "28A75667-7282-4999-AEF1-C99F5F2E1F18";
name = Regular;
paths = (
{
closed = 1;
nodes = (
"123 65 OFFCURVE",
"144 141 OFFCURVE",
"163 209 CURVE",
"427 209 LINE",
"447 141 OFFCURVE",
"468 65 OFFCURVE",
"484 0 CURVE",
"551 7 LINE",
"497 205 OFFCURVE",
"425 436 OFFCURVE",
"358 614 CURVE",
"233 614 LINE",
"166 436 OFFCURVE",
"94 205 OFFCURVE",
"40 7 CURVE",
"107 0 LINE"
);
},
{
closed = 1;
nodes = (
"211 369 OFFCURVE",
"248 485 OFFCURVE",
"273 553 CURVE",
"317 553 LINE",
"342 485 OFFCURVE",
"378 369 OFFCURVE",
"409 265 CURVE",
"180 265 LINE"
);
},
{
closed = 1;
nodes = (
"375 698 OFFCURVE",
"412 742 OFFCURVE",
"422 804 CURVE",
"363 814 LINE",
"358 774 OFFCURVE",
"345 748 OFFCURVE",
"295 748 CURVE SMOOTH",
"244 748 OFFCURVE",
"231 774 OFFCURVE",
"226 814 CURVE",
"167 804 LINE",
"177 742 OFFCURVE",
"214 698 OFFCURVE",
"295 698 CURVE SMOOTH"
);
},
{
closed = 1;
nodes = (
"390 952 LINE",
"332 962 LINE",
"271 857 LINE",
"309 848 LINE"
);
}
);
width = 591;
}
);
leftKerningGroup = A;
note = Abreveacute;
rightKerningGroup = A;
unicode = 1EAE;
},
{
glyphname = Abrevedotbelow;
lastChange = "2015-07-20 09:08:46 +0000";
layers = (
{
layerId = "28A75667-7282-4999-AEF1-C99F5F2E1F18";
name = Regular;
paths = (
{
closed = 1;
nodes = (
"123 65 OFFCURVE",
"144 141 OFFCURVE",
"163 209 CURVE",
"427 209 LINE",
"447 141 OFFCURVE",
"468 65 OFFCURVE",
"484 0 CURVE",
"551 7 LINE",
"497 205 OFFCURVE",
"425 436 OFFCURVE",
"358 614 CURVE",
"233 614 LINE",
"166 436 OFFCURVE",
"94 205 OFFCURVE",
"40 7 CURVE",
"107 0 LINE"
);
},
{
closed = 1;
nodes = (
"328 -164 OFFCURVE",
"346 -146 OFFCURVE",
"346 -117 CURVE SMOOTH",
"346 -85 OFFCURVE",
"328 -68 OFFCURVE",
"296 -68 CURVE SMOOTH",
"265 -68 OFFCURVE",
"246 -85 OFFCURVE",
"246 -117 CURVE SMOOTH",
"246 -146 OFFCURVE",
"265 -164 OFFCURVE",
"296 -164 CURVE SMOOTH"
);
},
{
closed = 1;
nodes = (
"211 369 OFFCURVE",
"248 485 OFFCURVE",
"273 553 CURVE",
"317 553 LINE",
"342 485 OFFCURVE",
"378 369 OFFCURVE",
"409 265 CURVE",
"180 265 LINE"
);
},
{
closed = 1;
nodes = (
"375 698 OFFCURVE",
"412 742 OFFCURVE",
"422 804 CURVE",
"363 814 LINE",
"358 774 OFFCURVE",
"345 748 OFFCURVE",
"295 748 CURVE SMOOTH",
"244 748 OFFCURVE",
"231 774 OFFCURVE",
"226 814 CURVE",
"167 804 LINE",
"177 742 OFFCURVE",
"214 698 OFFCURVE",
"295 698 CURVE SMOOTH"
);
}
);
width = 591;
}
);
leftKerningGroup = A;
note = Abrevedotbelow;
rightKerningGroup = A;
unicode = 1EB6;
},
{
glyphname = Abrevegrave;
lastChange = "2015-07-20 09:08:46 +0000";
layers = (
{
layerId = "28A75667-7282-4999-AEF1-C99F5F2E1F18";
name = Regular;
paths = (
{
closed = 1;
nodes = (
"123 65 OFFCURVE",
"144 141 OFFCURVE",
"163 209 CURVE",
"427 209 LINE",
"447 141 OFFCURVE",
"468 65 OFFCURVE",
"484 0 CURVE",
"551 7 LINE",
"497 205 OFFCURVE",
"425 436 OFFCURVE",
"358 614 CURVE",
"233 614 LINE",
"166 436 OFFCURVE",
"94 205 OFFCURVE",
"40 7 CURVE",
"107 0 LINE"
);
},
{
closed = 1;
nodes = (
"211 369 OFFCURVE",
"248 485 OFFCURVE",
"273 553 CURVE",
"317 553 LINE",
"342 485 OFFCURVE",
"378 369 OFFCURVE",
"409 265 CURVE",
"180 265 LINE"
);
},
{
closed = 1;
nodes = (
"375 698 OFFCURVE",
"412 742 OFFCURVE",
"422 804 CURVE",
"363 814 LINE",
"358 774 OFFCURVE",
"345 748 OFFCURVE",
"295 748 CURVE SMOOTH",
"244 748 OFFCURVE",
"231 774 OFFCURVE",
"226 814 CURVE",
"167 804 LINE",
"177 742 OFFCURVE",
"214 698 OFFCURVE",
"295 698 CURVE SMOOTH"
);
},
{
closed = 1;
nodes = (
"319 857 LINE",
"259 962 LINE",
"200 952 LINE",
"281 848 LINE"
);
}
);
width = 591;
}
);
leftKerningGroup = A;
note = Abrevegrave;
rightKerningGroup = A;
unicode = 1EB0;
},
{
glyphname = Abrevehookabove;
lastChange = "2015-07-20 09:08:46 +0000";
layers = (
{
layerId = "28A75667-7282-4999-AEF1-C99F5F2E1F18";
name = Regular;
paths = (
{
closed = 1;
nodes = (
"123 65 OFFCURVE",
"144 141 OFFCURVE",
"163 209 CURVE",
"427 209 LINE",
"447 141 OFFCURVE",
"468 65 OFFCURVE",
"484 0 CURVE",
"551 7 LINE",
"497 205 OFFCURVE",
"425 436 OFFCURVE",
"358 614 CURVE",
"233 614 LINE",
"166 436 OFFCURVE",
"94 205 OFFCURVE",
"40 7 CURVE",
"107 0 LINE"
);
},
{
closed = 1;
nodes = (
"211 369 OFFCURVE",
"248 485 OFFCURVE",
"273 553 CURVE",
"317 553 LINE",
"342 485 OFFCURVE",
"378 369 OFFCURVE",
"409 265 CURVE",
"180 265 LINE"
);
},
{
closed = 1;
nodes = (
"375 698 OFFCURVE",
"412 742 OFFCURVE",
"422 804 CURVE",
"363 814 LINE",
"358 774 OFFCURVE",
"345 748 OFFCURVE",
"295 748 CURVE SMOOTH",
"244 748 OFFCURVE",
"231 774 OFFCURVE",
"226 814 CURVE",
"167 804 LINE",
"177 742 OFFCURVE",
"214 698 OFFCURVE",
"295 698 CURVE SMOOTH"
);
},
{
closed = 1;
nodes = (
"310 835 LINE",
"310 870 LINE",
"350 871 OFFCURVE",
"372 888 OFFCURVE",
"372 923 CURVE SMOOTH",
"372 958 OFFCURVE",
"353 979 OFFCURVE",
"309 979 CURVE SMOOTH",
"290 979 OFFCURVE",
"273 975 OFFCURVE",
"254 968 CURVE",
"263 936 LINE",
"276 941 OFFCURVE",
"290 944 OFFCURVE",
"303 944 CURVE SMOOTH",
"324 944 OFFCURVE",
"332 937 OFFCURVE",
"332 922 CURVE SMOOTH",
"332 905 OFFCURVE",
"317 899 OFFCURVE",
"272 899 CURVE",
"272 874 LINE",
"281 835 LINE"
);
}
);
width = 591;
}
);
leftKerningGroup = A;
note = Abrevehookabove;
rightKerningGroup = A;
unicode = 1EB2;
},
{
glyphname = Abrevetilde;
lastChange = "2015-07-20 09:08:46 +0000";
layers = (
{
layerId = "28A75667-7282-4999-AEF1-C99F5F2E1F18";
name = Regular;
paths = (
{
closed = 1;
nodes = (
"123 65 OFFCURVE",
"144 141 OFFCURVE",
"163 209 CURVE",
"427 209 LINE",
"447 141 OFFCURVE",
"468 65 OFFCURVE",
"484 0 CURVE",
"551 7 LINE",
"497 205 OFFCURVE",
"425 436 OFFCURVE",
"358 614 CURVE",
"233 614 LINE",
"166 436 OFFCURVE",
"94 205 OFFCURVE",
"40 7 CURVE",
"107 0 LINE"
);
},
{
closed = 1;
nodes = (
"211 369 OFFCURVE",
"248 485 OFFCURVE",
"273 553 CURVE",
"317 553 LINE",
"342 485 OFFCURVE",
"378 369 OFFCURVE",
"409 265 CURVE",
"180 265 LINE"
);
},
{
closed = 1;
nodes = (
"376 698 OFFCURVE",
"413 742 OFFCURVE",
"423 804 CURVE",
"364 814 LINE",
"359 774 OFFCURVE",
"346 748 OFFCURVE",
"296 748 CURVE SMOOTH",
"245 748 OFFCURVE",
"232 774 OFFCURVE",
"227 814 CURVE",
"168 804 LINE",
"178 742 OFFCURVE",
"215 698 OFFCURVE",
"296 698 CURVE SMOOTH"
);
},
{
closed = 1;
nodes = (
"219 890 OFFCURVE",
"231 903 OFFCURVE",
"255 903 CURVE SMOOTH",
"286 903 OFFCURVE",
"307 870 OFFCURVE",
"347 870 CURVE SMOOTH",
"385 870 OFFCURVE",
"408 891 OFFCURVE",
"413 940 CURVE",
"380 950 LINE",
"375 926 OFFCURVE",
"363 913 OFFCURVE",
"340 913 CURVE SMOOTH",
"315 913 OFFCURVE",
"288 946 OFFCURVE",
"247 946 CURVE SMOOTH",
"209 946 OFFCURVE",
"186 925 OFFCURVE",
"181 877 CURVE",
"215 866 LINE"
);
}
);
width = 591;
}
);
leftKerningGroup = A;
note = Abrevetilde;
rightKerningGroup = A;
unicode = 1EB4;
},
{
glyphname = Acaron;
lastChange = "2015-07-20 09:08:46 +0000";
layers = (
{
layerId = "28A75667-7282-4999-AEF1-C99F5F2E1F18";
name = Regular;
paths = (
{
closed = 1;
nodes = (
"123 65 OFFCURVE",
"144 141 OFFCURVE",
"163 209 CURVE",
"427 209 LINE",
"447 141 OFFCURVE",
"468 65 OFFCURVE",
"484 0 CURVE",
"551 7 LINE",
"497 205 OFFCURVE",
"425 436 OFFCURVE",
"358 614 CURVE",
"233 614 LINE",
"166 436 OFFCURVE",
"94 205 OFFCURVE",
"40 7 CURVE",
"107 0 LINE"
);
},
{
closed = 1;
nodes = (
"211 369 OFFCURVE",
"248 485 OFFCURVE",
"273 553 CURVE",
"317 553 LINE",
"342 485 OFFCURVE",
"378 369 OFFCURVE",
"409 265 CURVE",
"180 265 LINE"
);
},
{
closed = 1;
nodes = (
"325 706 LINE",
"426 839 LINE",
"385 847 LINE",
"298 759 LINE",
"292 759 LINE",
"203 847 LINE",
"164 839 LINE",
"265 706 LINE"
);
}
);
width = 591;
}
);
leftKerningGroup = A;
note = Acaron;
rightKerningGroup = A;
unicode = 01CD;
},
{
glyphname = Acircumflex;
lastChange = "2015-07-20 09:08:46 +0000";
layers = (
{
components = (
{
name = A;
}
);
layerId = "28A75667-7282-4999-AEF1-C99F5F2E1F18";
name = Regular;
paths = (
{
closed = 1;
nodes = (
"292 786 LINE",
"298 786 LINE",
"385 698 LINE",
"426 706 LINE",
"325 839 LINE",
"265 839 LINE",
"164 706 LINE",
"203 698 LINE"
);
}
);
width = 591;
}
);
leftKerningGroup = A;
note = Acircumflex;
rightKerningGroup = A;
unicode = 00C2;
},
{
glyphname = Acircumflexacute;
lastChange = "2015-07-20 09:08:46 +0000";
layers = (
{
layerId = "28A75667-7282-4999-AEF1-C99F5F2E1F18";
name = Regular;
paths = (
{
closed = 1;
nodes = (
"123 65 OFFCURVE",
"144 141 OFFCURVE",
"163 209 CURVE",
"427 209 LINE",
"447 141 OFFCURVE",
"468 65 OFFCURVE",
"484 0 CURVE",
"551 7 LINE",
"497 205 OFFCURVE",
"425 436 OFFCURVE",
"358 614 CURVE",
"233 614 LINE",
"166 436 OFFCURVE",
"94 205 OFFCURVE",
"40 7 CURVE",
"107 0 LINE"
);
},
{
closed = 1;
nodes = (
"211 369 OFFCURVE",
"248 485 OFFCURVE",
"273 553 CURVE",
"317 553 LINE",
"342 485 OFFCURVE",
"378 369 OFFCURVE",
"409 265 CURVE",
"180 265 LINE"
);
},
{
closed = 1;
nodes = (
"292 786 LINE",
"298 786 LINE",
"385 698 LINE",
"426 706 LINE",
"325 839 LINE",
"265 839 LINE",
"164 706 LINE",
"203 698 LINE"
);
},
{
closed = 1;
nodes = (
"539 891 LINE",
"481 901 LINE",
"420 796 LINE",
"458 787 LINE"
);
}
);
width = 591;
}
);
leftKerningGroup = A;
note = Acircumflexacute;
rightKerningGroup = A;
unicode = 1EA4;
},
{
glyphname = Acircumflexdotbelow;
lastChange = "2015-07-20 09:08:46 +0000";
layers = (
{
layerId = "28A75667-7282-4999-AEF1-C99F5F2E1F18";
name = Regular;
paths = (
{
closed = 1;
nodes = (
"123 65 OFFCURVE",
"144 141 OFFCURVE",
"163 209 CURVE",
"427 209 LINE",
"447 141 OFFCURVE",
"468 65 OFFCURVE",
"484 0 CURVE",
"551 7 LINE",
"497 205 OFFCURVE",
"425 436 OFFCURVE",
"358 614 CURVE",
"233 614 LINE",
"166 436 OFFCURVE",
"94 205 OFFCURVE",
"40 7 CURVE",
"107 0 LINE"
);
},
{
closed = 1;
nodes = (
"326 -164 OFFCURVE",
"344 -146 OFFCURVE",
"344 -117 CURVE SMOOTH",
"344 -85 OFFCURVE",
"326 -68 OFFCURVE",
"294 -68 CURVE SMOOTH",
"263 -68 OFFCURVE",
"244 -85 OFFCURVE",
"244 -117 CURVE SMOOTH",
"244 -146 OFFCURVE",
"263 -164 OFFCURVE",
"294 -164 CURVE SMOOTH"
);
},
{
closed = 1;
nodes = (
"211 369 OFFCURVE",
"248 485 OFFCURVE",
"273 553 CURVE",
"317 553 LINE",
"342 485 OFFCURVE",
"378 369 OFFCURVE",
"409 265 CURVE",
"180 265 LINE"
);
},
{
closed = 1;
nodes = (
"292 785 LINE",
"298 785 LINE",
"385 697 LINE",
"426 705 LINE",
"325 838 LINE",
"265 838 LINE",
"164 705 LINE",
"203 697 LINE"
);
}
);
width = 591;
}
);
leftKerningGroup = A;
note = Acircumflexdotbelow;
rightKerningGroup = A;
unicode = 1EAC;
},
{
glyphname = Acircumflexgrave;
lastChange = "2015-07-20 09:08:46 +0000";
layers = (
{
layerId = "28A75667-7282-4999-AEF1-C99F5F2E1F18";
name = Regular;
paths = (
{
closed = 1;
nodes = (
"123 65 OFFCURVE",
"144 141 OFFCURVE",
"163 209 CURVE",
"427 209 LINE",
"447 141 OFFCURVE",
"468 65 OFFCURVE",
"484 0 CURVE",
"551 7 LINE",
"497 205 OFFCURVE",
"425 436 OFFCURVE",
"358 614 CURVE",
"233 614 LINE",
"166 436 OFFCURVE",
"94 205 OFFCURVE",
"40 7 CURVE",
"107 0 LINE"
);
},
{
closed = 1;
nodes = (
"211 369 OFFCURVE",
"248 485 OFFCURVE",
"273 553 CURVE",
"317 553 LINE",
"342 485 OFFCURVE",
"378 369 OFFCURVE",
"409 265 CURVE",
"180 265 LINE"
);
},
{
closed = 1;
nodes = (
"170 795 LINE",
"110 901 LINE",
"51 890 LINE",
"132 787 LINE"
);
},
{
closed = 1;
nodes = (
"293 786 LINE",
"298 786 LINE",
"388 697 LINE",
"427 706 LINE",
"325 838 LINE",
"266 838 LINE",
"165 706 LINE",
"205 697 LINE"
);
}
);
width = 591;
}
);
leftKerningGroup = A;
note = Acircumflexgrave;
rightKerningGroup = A;
unicode = 1EA6;
},
{
glyphname = Acircumflexhookabove;
lastChange = "2015-07-20 09:08:46 +0000";
layers = (
{
layerId = "28A75667-7282-4999-AEF1-C99F5F2E1F18";
name = Regular;
paths = (
{
closed = 1;
nodes = (
"123 65 OFFCURVE",
"144 141 OFFCURVE",
"163 209 CURVE",
"427 209 LINE",
"447 141 OFFCURVE",
"468 65 OFFCURVE",
"484 0 CURVE",
"551 7 LINE",
"497 205 OFFCURVE",
"425 436 OFFCURVE",
"358 614 CURVE",
"233 614 LINE",
"166 436 OFFCURVE",
"94 205 OFFCURVE",
"40 7 CURVE",
"107 0 LINE"
);
},
{
closed = 1;
nodes = (
"211 369 OFFCURVE",
"248 485 OFFCURVE",
"273 553 CURVE",
"317 553 LINE",
"342 485 OFFCURVE",
"378 369 OFFCURVE",
"409 265 CURVE",
"180 265 LINE"
);
},
{
closed = 1;
nodes = (
"291 786 LINE",
"297 786 LINE",
"384 698 LINE",
"425 706 LINE",
"324 839 LINE",
"264 839 LINE",
"163 706 LINE",
"202 698 LINE"
);
},
{
closed = 1;
nodes = (
"451 806 LINE",
"451 840 LINE",
"491 841 OFFCURVE",
"513 858 OFFCURVE",
"513 893 CURVE SMOOTH",
"513 929 OFFCURVE",
"494 949 OFFCURVE",
"450 949 CURVE SMOOTH",
"431 949 OFFCURVE",
"414 946 OFFCURVE",
"395 939 CURVE",
"404 907 LINE",
"417 912 OFFCURVE",
"431 915 OFFCURVE",
"444 915 CURVE SMOOTH",
"465 915 OFFCURVE",
"473 908 OFFCURVE",
"473 893 CURVE SMOOTH",
"473 875 OFFCURVE",
"458 869 OFFCURVE",
"413 869 CURVE",
"413 845 LINE",
"422 806 LINE"
);
}
);
width = 591;
}
);
leftKerningGroup = A;
note = Acircumflexhookabove;
rightKerningGroup = A;
unicode = 1EA8;
},
{
glyphname = Acircumflextilde;
lastChange = "2015-07-20 09:08:46 +0000";
layers = (
{
layerId = "28A75667-7282-4999-AEF1-C99F5F2E1F18";
name = Regular;
paths = (
{
closed = 1;
nodes = (
"123 65 OFFCURVE",
"144 141 OFFCURVE",
"163 209 CURVE",
"427 209 LINE",
"447 141 OFFCURVE",
"468 65 OFFCURVE",
"484 0 CURVE",
"551 7 LINE",
"497 205 OFFCURVE",
"425 436 OFFCURVE",
"358 614 CURVE",
"233 614 LINE",
"166 436 OFFCURVE",
"94 205 OFFCURVE",
"40 7 CURVE",
"107 0 LINE"
);
},
{
closed = 1;
nodes = (
"211 369 OFFCURVE",
"248 485 OFFCURVE",
"273 553 CURVE",
"317 553 LINE",
"342 485 OFFCURVE",
"378 369 OFFCURVE",
"409 265 CURVE",
"180 265 LINE"
);
},
{
closed = 1;
nodes = (
"292 786 LINE",
"298 786 LINE",
"385 697 LINE",
"426 706 LINE",
"325 838 LINE",
"265 838 LINE",
"164 706 LINE",
"203 697 LINE"
);
},
{
closed = 1;
nodes = (
"215 913 OFFCURVE",
"227 926 OFFCURVE",
"251 926 CURVE SMOOTH",
"282 926 OFFCURVE",
"303 893 OFFCURVE",
"343 893 CURVE SMOOTH",
"381 893 OFFCURVE",
"404 914 OFFCURVE",
"409 963 CURVE",
"376 974 LINE",
"371 950 OFFCURVE",
"359 937 OFFCURVE",
"336 937 CURVE SMOOTH",
"311 937 OFFCURVE",
"284 970 OFFCURVE",
"243 970 CURVE SMOOTH",
"205 970 OFFCURVE",
"182 948 OFFCURVE",
"177 900 CURVE",
"211 890 LINE"
);
}
);
width = 591;
}
);
leftKerningGroup = A;
note = Acircumflextilde;
rightKerningGroup = A;
unicode = 1EAA;
},
{
glyphname = Adieresis;
lastChange = "2015-07-20 09:08:46 +0000";
layers = (
{
components = (
{
name = A;
}
);
layerId = "28A75667-7282-4999-AEF1-C99F5F2E1F18";
name = Regular;
paths = (
{
closed = 1;
nodes = (
"399 701 OFFCURVE",
"413 715 OFFCURVE",
"413 738 CURVE SMOOTH",
"413 762 OFFCURVE",
"399 775 OFFCURVE",
"375 775 CURVE SMOOTH",
"350 775 OFFCURVE",
"335 762 OFFCURVE",
"335 738 CURVE SMOOTH",
"335 715 OFFCURVE",
"350 701 OFFCURVE",
"375 701 CURVE SMOOTH"
);
},
{
closed = 1;
nodes = (
"241 701 OFFCURVE",
"255 715 OFFCURVE",
"255 738 CURVE SMOOTH",
"255 762 OFFCURVE",
"241 775 OFFCURVE",
"217 775 CURVE SMOOTH",
"193 775 OFFCURVE",
"178 762 OFFCURVE",
"178 738 CURVE SMOOTH",
"178 715 OFFCURVE",
"193 701 OFFCURVE",
"217 701 CURVE SMOOTH"
);
}
);
width = 591;
}
);
leftKerningGroup = A;
note = Adieresis;
rightKerningGroup = A;
unicode = 00C4;
},
{
glyphname = Adotbelow;
lastChange = "2015-07-20 09:08:46 +0000";
layers = (
{
layerId = "28A75667-7282-4999-AEF1-C99F5F2E1F18";
name = Regular;
paths = (
{
closed = 1;
nodes = (
"123 65 OFFCURVE",
"144 141 OFFCURVE",
"163 209 CURVE",
"427 209 LINE",
"447 141 OFFCURVE",
"468 65 OFFCURVE",
"484 0 CURVE",
"551 7 LINE",
"497 205 OFFCURVE",
"425 436 OFFCURVE",
"358 614 CURVE",
"233 614 LINE",
"166 436 OFFCURVE",
"94 205 OFFCURVE",
"40 7 CURVE",
"107 0 LINE"
);
},
{
closed = 1;
nodes = (
"326 -159 OFFCURVE",
"344 -141 OFFCURVE",
"344 -112 CURVE SMOOTH",
"344 -80 OFFCURVE",
"326 -63 OFFCURVE",
"294 -63 CURVE SMOOTH",
"263 -63 OFFCURVE",
"244 -80 OFFCURVE",
"244 -112 CURVE SMOOTH",
"244 -141 OFFCURVE",
"263 -159 OFFCURVE",
"294 -159 CURVE SMOOTH"
);
},
{
closed = 1;
nodes = (
"211 369 OFFCURVE",
"248 485 OFFCURVE",
"273 553 CURVE",
"317 553 LINE",
"342 485 OFFCURVE",
"378 369 OFFCURVE",
"409 265 CURVE",
"180 265 LINE"
);
}
);
width = 591;
}
);
leftKerningGroup = A;
note = Adotbelow;
rightKerningGroup = A;
unicode = 1EA0;
},
{
glyphname = Agrave;
lastChange = "2015-07-20 09:08:46 +0000";
layers = (
{
components = (
{
name = A;
}
);
layerId = "28A75667-7282-4999-AEF1-C99F5F2E1F18";
name = Regular;
paths = (
{
closed = 1;
nodes = (
"322 707 LINE",
"239 850 LINE",
"158 841 LINE",
"277 700 LINE"
);
}
);
width = 591;
}
);
leftKerningGroup = A;
note = Agrave;
rightKerningGroup = A;
unicode = 00C0;
},
{
glyphname = Ahookabove;
lastChange = "2015-07-20 09:08:46 +0000";
layers = (
{
layerId = "28A75667-7282-4999-AEF1-C99F5F2E1F18";
name = Regular;
paths = (
{
closed = 1;
nodes = (
"123 65 OFFCURVE",
"144 141 OFFCURVE",
"163 209 CURVE",
"427 209 LINE",
"447 141 OFFCURVE",
"468 65 OFFCURVE",
"484 0 CURVE",
"551 7 LINE",
"497 205 OFFCURVE",
"425 436 OFFCURVE",
"358 614 CURVE",
"233 614 LINE",
"166 436 OFFCURVE",
"94 205 OFFCURVE",
"40 7 CURVE",
"107 0 LINE"
);
},
{
closed = 1;
nodes = (
"211 369 OFFCURVE",
"248 485 OFFCURVE",
"273 553 CURVE",
"317 553 LINE",
"342 485 OFFCURVE",
"378 369 OFFCURVE",
"409 265 CURVE",
"180 265 LINE"
);
},
{
closed = 1;
nodes = (
"313 707 LINE",
"313 747 LINE",
"367 749 OFFCURVE",
"405 768 OFFCURVE",
"405 821 CURVE SMOOTH",
"405 865 OFFCURVE",
"380 897 OFFCURVE",
"319 897 CURVE SMOOTH",
"292 897 OFFCURVE",
"269 893 OFFCURVE",
"243 882 CURVE",
"256 845 LINE",
"273 851 OFFCURVE",
"293 854 OFFCURVE",
"310 854 CURVE SMOOTH",
"343 854 OFFCURVE",
"356 844 OFFCURVE",
"356 820 CURVE SMOOTH",
"356 788 OFFCURVE",
"331 784 OFFCURVE",
"267 784 CURVE",
"267 756 LINE",
"279 707 LINE"
);
}
);
width = 591;
}
);
leftKerningGroup = A;
note = Ahookabove;
rightKerningGroup = A;
unicode = 1EA2;
},
{
glyphname = Amacron;
lastChange = "2015-07-20 09:08:46 +0000";
layers = (
{
components = (
{
name = A;
}
);
layerId = "28A75667-7282-4999-AEF1-C99F5F2E1F18";
name = Regular;
paths = (
{
closed = 1;
nodes = (
"419 706 LINE",
"419 759 LINE",
"171 759 LINE",
"171 706 LINE"
);
}
);
width = 591;
}
);
leftKerningGroup = A;
note = Amacron;
rightKerningGroup = A;
unicode = 0100;
},
{
glyphname = Aogonek;
lastChange = "2015-07-20 09:08:46 +0000";
layers = (
{
layerId = "28A75667-7282-4999-AEF1-C99F5F2E1F18";
name = Regular;
paths = (
{
closed = 1;
nodes = (
"529 -161 OFFCURVE",
"547 -157 OFFCURVE",
"563 -150 CURVE",
"553 -109 LINE",
"538 -112 OFFCURVE",
"525 -114 OFFCURVE",
"512 -114 CURVE SMOOTH",
"497 -114 OFFCURVE",
"485 -113 OFFCURVE",
"473 -110 CURVE",
"469 -101 OFFCURVE",
"467 -90 OFFCURVE",
"467 -80 CURVE SMOOTH",
"467 -45 OFFCURVE",
"481 -22 OFFCURVE",
"527 4 CURVE",
"551 7 LINE",
"497 205 OFFCURVE",
"425 436 OFFCURVE",
"358 614 CURVE",
"233 614 LINE",
"166 436 OFFCURVE",
"94 205 OFFCURVE",
"40 7 CURVE",
"107 0 LINE",
"123 65 OFFCURVE",
"144 141 OFFCURVE",
"163 209 CURVE",
"427 209 LINE",
"444 145 OFFCURVE",
"464 73 OFFCURVE",
"482 10 CURVE",
"438 -10 OFFCURVE",
"412 -38 OFFCURVE",
"412 -83 CURVE SMOOTH",
"412 -132 OFFCURVE",
"446 -161 OFFCURVE",
"503 -161 CURVE SMOOTH"
);
},
{
closed = 1;
nodes = (
"211 369 OFFCURVE",
"248 485 OFFCURVE",
"273 553 CURVE",
"317 553 LINE",
"342 485 OFFCURVE",
"378 369 OFFCURVE",
"409 265 CURVE",
"180 265 LINE"
);
}
);
width = 594;
}
);
leftKerningGroup = A;
note = Aogonek;
rightKerningGroup = A;
unicode = 0104;
},
{
glyphname = Aring;
lastChange = "2015-07-20 09:08:46 +0000";
layers = (
{
components = (
{
name = A;
}
);
layerId = "28A75667-7282-4999-AEF1-C99F5F2E1F18";
name = Regular;
paths = (
{
closed = 1;
nodes = (
"362 698 OFFCURVE",
"405 740 OFFCURVE",
"405 790 CURVE SMOOTH",
"405 846 OFFCURVE",
"368 878 OFFCURVE",
"302 878 CURVE SMOOTH",
"227 878 OFFCURVE",
"185 834 OFFCURVE",
"185 784 CURVE SMOOTH",
"185 728 OFFCURVE",
"223 698 OFFCURVE",
"287 698 CURVE SMOOTH"
);
},
{
closed = 1;
nodes = (
"251 737 OFFCURVE",
"230 756 OFFCURVE",
"230 786 CURVE SMOOTH",
"230 801 OFFCURVE",
"231 814 OFFCURVE",
"237 832 CURVE",
"256 838 OFFCURVE",
"275 839 OFFCURVE",
"300 839 CURVE SMOOTH",
"339 839 OFFCURVE",
"360 820 OFFCURVE",
"360 788 CURVE SMOOTH",
"360 773 OFFCURVE",
"357 759 OFFCURVE",
"353 744 CURVE",
"335 739 OFFCURVE",
"314 737 OFFCURVE",
"290 737 CURVE SMOOTH"
);
}
);
width = 591;
}
);
leftKerningGroup = A;
note = Aring;
rightKerningGroup = A;
unicode = 00C5;
},
{
glyphname = Aringacute;
lastChange = "2015-07-20 09:08:46 +0000";
layers = (
{
components = (
{
name = A;
}
);
layerId = "28A75667-7282-4999-AEF1-C99F5F2E1F18";
name = Regular;
paths = (
{
closed = 1;
nodes = (
"361 689 OFFCURVE",
"404 731 OFFCURVE",
"404 781 CURVE SMOOTH",
"404 838 OFFCURVE",
"367 870 OFFCURVE",
"301 870 CURVE SMOOTH",
"226 870 OFFCURVE",
"184 825 OFFCURVE",
"184 775 CURVE SMOOTH",
"184 719 OFFCURVE",
"222 689 OFFCURVE",
"286 689 CURVE SMOOTH"
);
},
{
closed = 1;
nodes = (
"250 728 OFFCURVE",
"229 747 OFFCURVE",
"229 777 CURVE SMOOTH",
"229 792 OFFCURVE",
"230 806 OFFCURVE",
"236 823 CURVE",
"255 829 OFFCURVE",
"274 831 OFFCURVE",
"299 831 CURVE SMOOTH",
"338 831 OFFCURVE",
"359 811 OFFCURVE",
"359 779 CURVE SMOOTH",
"359 764 OFFCURVE",
"356 750 OFFCURVE",
"352 736 CURVE",
"334 730 OFFCURVE",
"313 728 OFFCURVE",
"289 728 CURVE SMOOTH"
);
},
{
closed = 1;
nodes = (
"422 1072 LINE",
"341 1080 LINE",
"258 938 LINE",
"303 930 LINE"
);
}
);
width = 591;
}
);
leftKerningGroup = A;
note = Aringacute;
rightKerningGroup = A;
unicode = 01FA;
},
{
glyphname = Atilde;
lastChange = "2015-07-20 09:08:46 +0000";
layers = (
{
components = (
{
name = A;
}
);
layerId = "28A75667-7282-4999-AEF1-C99F5F2E1F18";
name = Regular;
paths = (
{
closed = 1;
nodes = (
"197 729 OFFCURVE",
"208 749 OFFCURVE",
"237 749 CURVE SMOOTH",
"272 749 OFFCURVE",
"301 701 OFFCURVE",
"349 701 CURVE SMOOTH",
"398 701 OFFCURVE",
"423 733 OFFCURVE",
"427 791 CURVE",
"386 804 LINE",
"382 774 OFFCURVE",
"370 754 OFFCURVE",
"342 754 CURVE SMOOTH",
"308 754 OFFCURVE",
"274 802 OFFCURVE",
"230 802 CURVE SMOOTH",
"181 802 OFFCURVE",
"156 770 OFFCURVE",
"152 712 CURVE",
"193 699 LINE"
);
}
);
width = 591;
}
);
leftKerningGroup = A;
note = Atilde;
rightKerningGroup = A;
unicode = 00C3;
},
{
glyphname = AE;
lastChange = "2015-07-20 09:09:00 +0000";
layers = (
{
layerId = "28A75667-7282-4999-AEF1-C99F5F2E1F18";
name = Regular;
paths = (
{
closed = 1;
nodes = (
"768 -10 OFFCURVE",
"823 -4 OFFCURVE",
"873 9 CURVE",
"859 64 LINE",
"810 53 OFFCURVE",
"755 48 OFFCURVE",
"698 48 CURVE SMOOTH",
"643 48 OFFCURVE",
"601 51 OFFCURVE",
"553 60 CURVE",
"553 280 LINE",
"833 280 LINE",
"833 336 LINE",
"553 336 LINE",
"553 556 LINE",
"862 556 LINE",
"862 614 LINE",
"372 614 LINE",
"257 422 OFFCURVE",
"145 215 OFFCURVE",
"49 20 CURVE",
"109 0 LINE",
"142 66 OFFCURVE",
"181 143 OFFCURVE",
"217 210 CURVE",
"491 210 LINE",
"491 73 LINE SMOOTH",
"491 8 OFFCURVE",
"580 -10 OFFCURVE",
"695 -10 CURVE SMOOTH"
);
},
{
closed = 1;
nodes = (
"299 365 OFFCURVE",
"363 479 OFFCURVE",
"408 553 CURVE",
"491 553 LINE",
"491 266 LINE",
"247 266 LINE"
);
}
);
width = 946;
}
);
leftKerningGroup = A;
note = AE;
rightKerningGroup = E;
unicode = 00C6;
},
{
glyphname = AEacute;
lastChange = "2015-07-20 09:09:00 +0000";
layers = (
{
layerId = "28A75667-7282-4999-AEF1-C99F5F2E1F18";
name = Regular;
paths = (
{
closed = 1;
nodes = (
"768 -10 OFFCURVE",
"823 -4 OFFCURVE",
"873 9 CURVE",
"859 64 LINE",
"810 53 OFFCURVE",
"755 48 OFFCURVE",
"698 48 CURVE SMOOTH",
"643 48 OFFCURVE",
"601 51 OFFCURVE",
"553 60 CURVE",
"553 280 LINE",
"833 280 LINE",
"833 336 LINE",
"553 336 LINE",
"553 556 LINE",
"862 556 LINE",
"862 614 LINE",
"372 614 LINE",
"257 422 OFFCURVE",
"145 215 OFFCURVE",
"49 20 CURVE",
"109 0 LINE",
"142 66 OFFCURVE",
"181 143 OFFCURVE",
"217 210 CURVE",
"491 210 LINE",
"491 73 LINE SMOOTH",
"491 8 OFFCURVE",
"580 -10 OFFCURVE",
"695 -10 CURVE SMOOTH"
);
},
{
closed = 1;
nodes = (
"299 365 OFFCURVE",
"363 479 OFFCURVE",
"408 553 CURVE",
"491 553 LINE",
"491 266 LINE",
"247 266 LINE"
);
},
{
closed = 1;
nodes = (
"687 840 LINE",
"606 848 LINE",
"523 706 LINE",
"568 698 LINE"
);
}
);
width = 946;
}
);
leftKerningGroup = A;
note = AEacute;
rightKerningGroup = E;
unicode = 01FC;
},
{
glyphname = B;
lastChange = "2015-07-20 05:44:27 +0000";
layers = (
{
layerId = "28A75667-7282-4999-AEF1-C99F5F2E1F18";
name = Regular;
paths = (
{
closed = 1;
nodes = (
"244 0 LINE SMOOTH",
"432 0 OFFCURVE",
"484 63 OFFCURVE",
"484 172 CURVE SMOOTH",
"484 237 OFFCURVE",
"450 285 OFFCURVE",
"373 310 CURVE",
"373 315 LINE",
"428 348 OFFCURVE",
"454 394 OFFCURVE",
"454 455 CURVE SMOOTH",
"454 566 OFFCURVE",
"387 624 OFFCURVE",
"241 624 CURVE SMOOTH",
"190 624 OFFCURVE",
"133 616 OFFCURVE",
"81 602 CURVE",
"81 0 LINE"
);
},
{
closed = 1;
nodes = (
"143 281 LINE",
"284 281 LINE SMOOTH",
"378 281 OFFCURVE",
"422 235 OFFCURVE",
"422 169 CURVE SMOOTH",
"422 93 OFFCURVE",
"386 57 OFFCURVE",
"237 57 CURVE SMOOTH",
"143 57 LINE"
);
},
{
closed = 1;
nodes = (
"143 557 LINE",
"173 562 OFFCURVE",
"206 566 OFFCURVE",
"238 566 CURVE SMOOTH",
"341 566 OFFCURVE",
"392 536 OFFCURVE",
"392 454 CURVE SMOOTH",
"392 406 OFFCURVE",
"375 369 OFFCURVE",
"339 338 CURVE",
"143 338 LINE"
);
}
);
width = 535;
}
);
note = B;
unicode = 0042;
},
{
glyphname = C;
lastChange = "2015-07-20 09:52:04 +0000";
layers = (
{
layerId = "28A75667-7282-4999-AEF1-C99F5F2E1F18";
name = Regular;
paths = (
{
closed = 1;
nodes = (
"398 -9 OFFCURVE",
"466 10 OFFCURVE",
"509 44 CURVE",
"480 91 LINE",
"441 65 OFFCURVE",
"382 50 OFFCURVE",
"319 50 CURVE SMOOTH",
"179 50 OFFCURVE",
"120 127 OFFCURVE",
"120 295 CURVE SMOOTH",
"120 395 OFFCURVE",
"143 482 OFFCURVE",
"187 548 CURVE",
"231 560 OFFCURVE",
"270 565 OFFCURVE",
"311 565 CURVE SMOOTH",
"355 565 OFFCURVE",
"394 561 OFFCURVE",
"423 554 CURVE",
"433 472 LINE",
"474 472 LINE",
"481 489 OFFCURVE",
"485 516 OFFCURVE",
"485 539 CURVE SMOOTH",
"485 585 LINE",
"451 606 OFFCURVE",
"383 624 OFFCURVE",
"312 624 CURVE SMOOTH",
"134 624 OFFCURVE",
"57 481 OFFCURVE",
"57 291 CURVE SMOOTH",
"57 98 OFFCURVE",
"139 -9 OFFCURVE",
"317 -9 CURVE SMOOTH"
);
}
);
width = 555;
}
);
leftKerningGroup = C;
note = C;
rightKerningGroup = C;
unicode = 0043;
},
{
glyphname = Cacute;
lastChange = "2015-07-20 09:09:24 +0000";
layers = (
{
layerId = "28A75667-7282-4999-AEF1-C99F5F2E1F18";
name = Regular;
paths = (
{
closed = 1;
nodes = (
"398 -9 OFFCURVE",
"466 10 OFFCURVE",
"509 44 CURVE",
"480 91 LINE",
"441 65 OFFCURVE",
"382 50 OFFCURVE",
"319 50 CURVE SMOOTH",
"179 50 OFFCURVE",
"120 127 OFFCURVE",
"120 295 CURVE SMOOTH",
"120 395 OFFCURVE",
"143 482 OFFCURVE",
"187 548 CURVE",
"231 560 OFFCURVE",
"270 565 OFFCURVE",
"311 565 CURVE SMOOTH",
"355 565 OFFCURVE",
"394 561 OFFCURVE",
"423 554 CURVE",
"433 472 LINE",
"474 472 LINE",
"481 489 OFFCURVE",
"485 516 OFFCURVE",
"485 539 CURVE SMOOTH",
"485 585 LINE",
"451 606 OFFCURVE",
"383 624 OFFCURVE",
"312 624 CURVE SMOOTH",
"134 624 OFFCURVE",
"57 481 OFFCURVE",
"57 291 CURVE SMOOTH",
"57 98 OFFCURVE",
"139 -9 OFFCURVE",
"317 -9 CURVE SMOOTH"
);
},
{
closed = 1;
nodes = (
"448 840 LINE",
"367 848 LINE",
"284 706 LINE",
"329 698 LINE"
);
}
);
width = 555;
}
);
leftKerningGroup = C;
note = Cacute;
rightKerningGroup = C;
unicode = 0106;
},
{
glyphname = Ccaron;
lastChange = "2015-07-20 09:09:24 +0000";
layers = (
{
layerId = "28A75667-7282-4999-AEF1-C99F5F2E1F18";
name = Regular;
paths = (
{
closed = 1;
nodes = (
"394 -9 OFFCURVE",
"462 10 OFFCURVE",
"505 44 CURVE",
"476 91 LINE",
"437 65 OFFCURVE",
"378 50 OFFCURVE",
"315 50 CURVE SMOOTH",
"175 50 OFFCURVE",
"116 127 OFFCURVE",
"116 295 CURVE SMOOTH",
"116 395 OFFCURVE",
"139 482 OFFCURVE",
"183 548 CURVE",
"227 560 OFFCURVE",
"266 565 OFFCURVE",
"307 565 CURVE SMOOTH",
"351 565 OFFCURVE",
"390 561 OFFCURVE",
"419 554 CURVE",
"429 472 LINE",
"470 472 LINE",
"477 489 OFFCURVE",
"481 516 OFFCURVE",
"481 539 CURVE SMOOTH",
"481 585 LINE",
"447 606 OFFCURVE",
"379 624 OFFCURVE",
"308 624 CURVE SMOOTH",
"130 624 OFFCURVE",
"53 481 OFFCURVE",
"53 291 CURVE SMOOTH",
"53 98 OFFCURVE",
"135 -9 OFFCURVE",
"313 -9 CURVE SMOOTH"
);
},
{
closed = 1;
nodes = (
"333 706 LINE",
"434 839 LINE",
"393 847 LINE",
"306 759 LINE",
"300 759 LINE",
"211 847 LINE",
"172 839 LINE",
"273 706 LINE"
);
}
);
width = 551;
}
);
leftKerningGroup = C;
note = Ccaron;
rightKerningGroup = C;
unicode = 010C;
},
{
glyphname = Ccedilla;
lastChange = "2015-07-20 09:09:24 +0000";
layers = (
{
layerId = "28A75667-7282-4999-AEF1-C99F5F2E1F18";
name = Regular;
paths = (
{
closed = 1;
nodes = (
"369 -216 OFFCURVE",
"404 -188 OFFCURVE",
"404 -130 CURVE SMOOTH",
"404 -84 OFFCURVE",
"382 -56 OFFCURVE",
"329 -56 CURVE SMOOTH",
"311 -56 OFFCURVE",
"296 -59 OFFCURVE",
"284 -64 CURVE",
"324 -9 LINE",
"331 -9 OFFCURVE",
"337 -8 OFFCURVE",
"343 -8 CURVE SMOOTH",
"414 -4 OFFCURVE",
"470 14 OFFCURVE",
"509 44 CURVE",
"480 91 LINE",
"441 65 OFFCURVE",
"382 50 OFFCURVE",
"319 50 CURVE SMOOTH",
"179 50 OFFCURVE",
"120 127 OFFCURVE",
"120 295 CURVE SMOOTH",
"120 395 OFFCURVE",
"143 482 OFFCURVE",
"187 548 CURVE",
"231 560 OFFCURVE",
"270 565 OFFCURVE",
"311 565 CURVE SMOOTH",
"355 565 OFFCURVE",
"394 561 OFFCURVE",
"423 554 CURVE",
"433 472 LINE",
"474 472 LINE",
"481 489 OFFCURVE",
"485 516 OFFCURVE",
"485 539 CURVE SMOOTH",
"485 585 LINE",
"451 606 OFFCURVE",
"383 624 OFFCURVE",
"312 624 CURVE SMOOTH",
"134 624 OFFCURVE",
"57 481 OFFCURVE",
"57 291 CURVE SMOOTH",
"57 113 OFFCURVE",
"127 8 OFFCURVE",
"277 -7 CURVE",
"226 -68 LINE",
"262 -104 LINE",
"275 -99 OFFCURVE",
"289 -97 OFFCURVE",
"306 -97 CURVE SMOOTH",
"336 -97 OFFCURVE",
"352 -108 OFFCURVE",
"352 -134 CURVE SMOOTH",
"352 -147 OFFCURVE",
"350 -157 OFFCURVE",
"346 -167 CURVE",
"331 -170 OFFCURVE",
"317 -172 OFFCURVE",
"296 -172 CURVE SMOOTH",
"275 -172 OFFCURVE",
"248 -168 OFFCURVE",
"228 -160 CURVE",
"214 -200 LINE",
"244 -213 OFFCURVE",
"271 -216 OFFCURVE",
"298 -216 CURVE SMOOTH"
);
}
);
width = 555;
}
);
leftKerningGroup = C;
note = Ccedilla;
rightKerningGroup = C;
unicode = 00C7;
},
{
glyphname = Ccircumflex;
lastChange = "2015-07-20 09:09:24 +0000";
layers = (
{
layerId = "28A75667-7282-4999-AEF1-C99F5F2E1F18";
name = Regular;
paths = (
{
closed = 1;
nodes = (
"398 -9 OFFCURVE",
"466 10 OFFCURVE",
"509 44 CURVE",
"480 91 LINE",
"441 65 OFFCURVE",
"382 50 OFFCURVE",
"319 50 CURVE SMOOTH",
"179 50 OFFCURVE",
"120 127 OFFCURVE",
"120 295 CURVE SMOOTH",
"120 395 OFFCURVE",
"143 482 OFFCURVE",
"187 548 CURVE",
"231 560 OFFCURVE",
"270 565 OFFCURVE",
"311 565 CURVE SMOOTH",
"355 565 OFFCURVE",
"394 561 OFFCURVE",
"423 554 CURVE",
"433 472 LINE",
"474 472 LINE",
"481 489 OFFCURVE",
"485 516 OFFCURVE",
"485 539 CURVE SMOOTH",
"485 585 LINE",
"451 606 OFFCURVE",
"383 624 OFFCURVE",
"312 624 CURVE SMOOTH",
"134 624 OFFCURVE",
"57 481 OFFCURVE",
"57 291 CURVE SMOOTH",
"57 98 OFFCURVE",
"139 -9 OFFCURVE",
"317 -9 CURVE SMOOTH"
);
},
{
closed = 1;
nodes = (
"310 786 LINE",
"316 786 LINE",
"403 697 LINE",
"444 706 LINE",
"343 838 LINE",
"283 838 LINE",
"182 706 LINE",
"221 697 LINE"
);
}
);
width = 555;
}
);
leftKerningGroup = C;
note = Ccircumflex;
rightKerningGroup = C;
unicode = 0108;
},
{
glyphname = Cdotaccent;
lastChange = "2015-07-20 09:09:24 +0000";
layers = (
{
layerId = "28A75667-7282-4999-AEF1-C99F5F2E1F18";
name = Regular;
paths = (
{
closed = 1;
nodes = (
"398 -9 OFFCURVE",
"466 10 OFFCURVE",
"509 44 CURVE",
"480 91 LINE",
"441 65 OFFCURVE",
"382 50 OFFCURVE",
"319 50 CURVE SMOOTH",
"179 50 OFFCURVE",
"120 127 OFFCURVE",
"120 295 CURVE SMOOTH",
"120 395 OFFCURVE",
"143 482 OFFCURVE",
"187 548 CURVE",
"231 560 OFFCURVE",
"270 565 OFFCURVE",
"311 565 CURVE SMOOTH",
"355 565 OFFCURVE",
"394 561 OFFCURVE",
"423 554 CURVE",
"433 472 LINE",
"474 472 LINE",
"481 489 OFFCURVE",
"485 516 OFFCURVE",
"485 539 CURVE SMOOTH",
"485 585 LINE",
"451 606 OFFCURVE",
"383 624 OFFCURVE",
"312 624 CURVE SMOOTH",
"134 624 OFFCURVE",
"57 481 OFFCURVE",
"57 291 CURVE SMOOTH",
"57 98 OFFCURVE",
"139 -9 OFFCURVE",
"317 -9 CURVE SMOOTH"
);
},
{
closed = 1;
nodes = (
"348 701 OFFCURVE",
"366 719 OFFCURVE",
"366 748 CURVE SMOOTH",
"366 780 OFFCURVE",
"348 797 OFFCURVE",
"316 797 CURVE SMOOTH",
"285 797 OFFCURVE",
"266 780 OFFCURVE",
"266 748 CURVE SMOOTH",
"266 719 OFFCURVE",
"285 701 OFFCURVE",
"316 701 CURVE SMOOTH"
);
}
);
width = 555;
}
);
leftKerningGroup = C;
note = Cdotaccent;
rightKerningGroup = C;
unicode = 010A;
},
{
glyphname = D;
lastChange = "2015-07-20 09:09:15 +0000";
layers = (
{
layerId = "28A75667-7282-4999-AEF1-C99F5F2E1F18";
name = Regular;
paths = (
{
closed = 1;
nodes = (
"239 0 LINE SMOOTH",
"472 0 OFFCURVE",
"523 136 OFFCURVE",
"523 316 CURVE SMOOTH",
"523 511 OFFCURVE",
"450 624 OFFCURVE",
"249 624 CURVE SMOOTH",
"190 624 OFFCURVE",
"133 617 OFFCURVE",
"81 605 CURVE",
"81 0 LINE"
);
},
{
closed = 1;
nodes = (
"144 558 LINE",
"181 563 OFFCURVE",
"210 566 OFFCURVE",
"245 566 CURVE SMOOTH",
"407 566 OFFCURVE",
"460 483 OFFCURVE",
"460 310 CURVE SMOOTH",
"460 211 OFFCURVE",
"440 128 OFFCURVE",
"404 78 CURVE",
"356 64 OFFCURVE",
"306 58 OFFCURVE",
"238 58 CURVE SMOOTH",
"144 58 LINE"
);
}
);
width = 573;
}
);
note = D;
rightKerningGroup = D;
unicode = 0044;
},
{
glyphname = Eth;
lastChange = "2015-07-20 09:09:15 +0000";
layers = (
{
layerId = "28A75667-7282-4999-AEF1-C99F5F2E1F18";
name = Regular;
paths = (
{
closed = 1;
nodes = (
"299 0 LINE SMOOTH",
"532 0 OFFCURVE",
"583 136 OFFCURVE",
"583 316 CURVE SMOOTH",
"583 511 OFFCURVE",
"509 624 OFFCURVE",
"308 624 CURVE SMOOTH",
"249 624 OFFCURVE",
"192 617 OFFCURVE",
"141 605 CURVE",
"141 347 LINE",
"45 347 LINE",
"45 297 LINE",
"141 297 LINE",
"141 0 LINE"
);
},
{
closed = 1;
nodes = (
"204 297 LINE",
"315 297 LINE",
"315 347 LINE",
"204 347 LINE",
"204 558 LINE",
"241 563 OFFCURVE",
"270 566 OFFCURVE",
"305 566 CURVE SMOOTH",
"467 566 OFFCURVE",
"520 483 OFFCURVE",
"520 310 CURVE SMOOTH",
"520 211 OFFCURVE",
"500 128 OFFCURVE",
"464 78 CURVE",
"416 64 OFFCURVE",
"366 58 OFFCURVE",
"298 58 CURVE SMOOTH",
"204 58 LINE"
);
}
);
width = 632;
}
);
note = Eth;
rightKerningGroup = D;
unicode = 00D0;
},
{
glyphname = Dcaron;
lastChange = "2015-07-20 09:09:15 +0000";
layers = (
{
layerId = "28A75667-7282-4999-AEF1-C99F5F2E1F18";
name = Regular;
paths = (
{
closed = 1;
nodes = (
"239 0 LINE SMOOTH",
"472 0 OFFCURVE",
"523 136 OFFCURVE",
"523 316 CURVE SMOOTH",
"523 511 OFFCURVE",
"450 624 OFFCURVE",
"249 624 CURVE SMOOTH",
"190 624 OFFCURVE",
"133 617 OFFCURVE",
"81 605 CURVE",
"81 0 LINE"
);
},
{
closed = 1;
nodes = (
"144 558 LINE",
"181 563 OFFCURVE",
"210 566 OFFCURVE",
"245 566 CURVE SMOOTH",
"407 566 OFFCURVE",
"460 483 OFFCURVE",
"460 310 CURVE SMOOTH",
"460 211 OFFCURVE",
"440 128 OFFCURVE",
"404 78 CURVE",
"356 64 OFFCURVE",
"306 58 OFFCURVE",
"238 58 CURVE SMOOTH",
"144 58 LINE"
);
},
{
closed = 1;
nodes = (
"312 706 LINE",
"413 839 LINE",
"372 847 LINE",
"285 759 LINE",
"279 759 LINE",
"190 847 LINE",
"151 839 LINE",
"252 706 LINE"
);
}
);
width = 573;
}
);
note = Dcaron;
rightKerningGroup = D;
unicode = 010E;
},
{
glyphname = Dcroat;
lastChange = "2015-07-20 09:09:15 +0000";
layers = (
{
layerId = "28A75667-7282-4999-AEF1-C99F5F2E1F18";
name = Regular;
paths = (
{
closed = 1;
nodes = (
"284 0 LINE SMOOTH",
"517 0 OFFCURVE",
"568 136 OFFCURVE",
"568 316 CURVE SMOOTH",
"568 511 OFFCURVE",
"495 624 OFFCURVE",
"294 624 CURVE SMOOTH",
"235 624 OFFCURVE",
"178 617 OFFCURVE",
"126 605 CURVE",
"126 334 LINE",
"45 334 LINE",
"45 278 LINE",
"126 278 LINE",
"126 0 LINE"
);
},
{
closed = 1;
nodes = (
"189 278 LINE",
"286 278 LINE",
"286 334 LINE",
"189 334 LINE",
"189 558 LINE",
"226 563 OFFCURVE",
"255 566 OFFCURVE",
"290 566 CURVE SMOOTH",
"452 566 OFFCURVE",
"505 483 OFFCURVE",
"505 310 CURVE SMOOTH",
"505 211 OFFCURVE",
"485 128 OFFCURVE",
"449 78 CURVE",
"401 64 OFFCURVE",
"351 58 OFFCURVE",
"283 58 CURVE SMOOTH",
"189 58 LINE"
);
}
);
width = 618;
}
);
note = Dcroat;
rightKerningGroup = D;
unicode = 0110;
},
{
glyphname = Ddotbelow;
lastChange = "2015-07-20 09:09:15 +0000";
layers = (
{
layerId = "28A75667-7282-4999-AEF1-C99F5F2E1F18";
name = Regular;
paths = (
{
closed = 1;
nodes = (
"239 0 LINE SMOOTH",
"472 0 OFFCURVE",
"523 136 OFFCURVE",
"523 316 CURVE SMOOTH",
"523 511 OFFCURVE",
"450 624 OFFCURVE",
"249 624 CURVE SMOOTH",
"190 624 OFFCURVE",
"133 617 OFFCURVE",
"81 605 CURVE",
"81 0 LINE"
);
},
{
closed = 1;
nodes = (
"320 -159 OFFCURVE",
"338 -141 OFFCURVE",
"338 -112 CURVE SMOOTH",
"338 -80 OFFCURVE",
"320 -63 OFFCURVE",
"288 -63 CURVE SMOOTH",
"257 -63 OFFCURVE",
"238 -80 OFFCURVE",
"238 -112 CURVE SMOOTH",
"238 -141 OFFCURVE",
"257 -159 OFFCURVE",
"288 -159 CURVE SMOOTH"
);
},
{
closed = 1;
nodes = (
"144 558 LINE",
"181 563 OFFCURVE",
"210 566 OFFCURVE",
"245 566 CURVE SMOOTH",
"407 566 OFFCURVE",
"460 483 OFFCURVE",
"460 310 CURVE SMOOTH",
"460 211 OFFCURVE",
"440 128 OFFCURVE",
"404 78 CURVE",
"356 64 OFFCURVE",
"306 58 OFFCURVE",
"238 58 CURVE SMOOTH",
"144 58 LINE"
);
}
);
width = 573;
}
);
note = Ddotbelow;
rightKerningGroup = D;
unicode = 1E0C;
},
{
glyphname = Dlinebelow;
lastChange = "2015-07-20 09:09:15 +0000";
layers = (
{
layerId = "28A75667-7282-4999-AEF1-C99F5F2E1F18";
name = Regular;
paths = (
{
closed = 1;
nodes = (
"240 0 LINE SMOOTH",
"473 0 OFFCURVE",
"524 136 OFFCURVE",
"524 316 CURVE SMOOTH",
"524 511 OFFCURVE",
"451 624 OFFCURVE",
"250 624 CURVE SMOOTH",
"191 624 OFFCURVE",
"134 617 OFFCURVE",
"82 605 CURVE",
"82 0 LINE"
);
},
{
closed = 1;
nodes = (
"383 -128 LINE",
"383 -71 LINE",
"81 -71 LINE",
"81 -128 LINE"
);
},
{
closed = 1;
nodes = (
"145 558 LINE",
"182 563 OFFCURVE",
"211 566 OFFCURVE",
"246 566 CURVE SMOOTH",
"408 566 OFFCURVE",
"461 483 OFFCURVE",
"461 310 CURVE SMOOTH",
"461 211 OFFCURVE",
"441 128 OFFCURVE",
"405 78 CURVE",
"357 64 OFFCURVE",
"307 58 OFFCURVE",
"239 58 CURVE SMOOTH",
"145 58 LINE"
);
}
);
width = 574;
}
);
note = Dlinebelow;
rightKerningGroup = D;
unicode = 1E0E;
},
{
glyphname = E;
lastChange = "2015-07-20 09:09:08 +0000";
layers = (
{
layerId = "28A75667-7282-4999-AEF1-C99F5F2E1F18";
name = Regular;
paths = (
{
closed = 1;
nodes = (
"358 -9 OFFCURVE",
"414 -3 OFFCURVE",
"463 10 CURVE",
"449 65 LINE",
"401 54 OFFCURVE",
"345 49 OFFCURVE",
"289 49 CURVE SMOOTH",
"233 49 OFFCURVE",
"191 52 OFFCURVE",
"143 61 CURVE",
"143 280 LINE",
"423 280 LINE",
"423 336 LINE",
"143 336 LINE",
"143 556 LINE",
"452 556 LINE",
"452 614 LINE",
"81 614 LINE",
"81 74 LINE SMOOTH",
"81 9 OFFCURVE",
"172 -9 OFFCURVE",
"286 -9 CURVE SMOOTH"
);
}
);
width = 523;
}
);
leftKerningGroup = E;
note = E;
rightKerningGroup = E;
unicode = 0045;
},
{
glyphname = Eacute;
lastChange = "2015-07-20 09:09:08 +0000";
layers = (
{
layerId = "28A75667-7282-4999-AEF1-C99F5F2E1F18";
name = Regular;
paths = (
{
closed = 1;
nodes = (
"358 -9 OFFCURVE",
"414 -3 OFFCURVE",
"463 10 CURVE",
"449 65 LINE",
"401 54 OFFCURVE",
"345 49 OFFCURVE",
"289 49 CURVE SMOOTH",
"233 49 OFFCURVE",
"191 52 OFFCURVE",
"143 61 CURVE",
"143 280 LINE",
"423 280 LINE",
"423 336 LINE",
"143 336 LINE",
"143 556 LINE",
"452 556 LINE",
"452 614 LINE",
"81 614 LINE",
"81 74 LINE SMOOTH",
"81 9 OFFCURVE",
"172 -9 OFFCURVE",
"286 -9 CURVE SMOOTH"
);
},
{
closed = 1;
nodes = (
"398 841 LINE",
"317 850 LINE",
"234 707 LINE",
"279 700 LINE"
);
}
);
width = 528;
}
);
leftKerningGroup = E;
note = Eacute;
rightKerningGroup = E;
unicode = 00C9;
},
{
glyphname = Ebreve;
lastChange = "2015-07-20 09:09:08 +0000";
layers = (
{
layerId = "28A75667-7282-4999-AEF1-C99F5F2E1F18";
name = Regular;
paths = (
{
closed = 1;
nodes = (
"358 -9 OFFCURVE",
"414 -3 OFFCURVE",
"463 10 CURVE",
"449 65 LINE",
"401 54 OFFCURVE",
"345 49 OFFCURVE",
"289 49 CURVE SMOOTH",
"233 49 OFFCURVE",
"191 52 OFFCURVE",
"143 61 CURVE",
"143 280 LINE",
"423 280 LINE",
"423 336 LINE",
"143 336 LINE",
"143 556 LINE",
"452 556 LINE",
"452 614 LINE",
"81 614 LINE",
"81 74 LINE SMOOTH",
"81 9 OFFCURVE",
"172 -9 OFFCURVE",
"286 -9 CURVE SMOOTH"
);
},
{
closed = 1;
nodes = (
"360 701 OFFCURVE",
"397 745 OFFCURVE",
"407 807 CURVE",
"348 817 LINE",
"343 777 OFFCURVE",
"330 751 OFFCURVE",
"280 751 CURVE SMOOTH",
"229 751 OFFCURVE",
"216 777 OFFCURVE",
"211 817 CURVE",
"152 807 LINE",
"162 745 OFFCURVE",
"199 701 OFFCURVE",
"280 701 CURVE SMOOTH"
);
}
);
width = 528;
}
);
leftKerningGroup = E;
note = Ebreve;
rightKerningGroup = E;
unicode = 0114;
},
{
glyphname = Ecaron;
lastChange = "2015-07-20 09:09:08 +0000";
layers = (
{
layerId = "28A75667-7282-4999-AEF1-C99F5F2E1F18";
name = Regular;
paths = (
{
closed = 1;
nodes = (
"358 -9 OFFCURVE",
"414 -3 OFFCURVE",
"463 10 CURVE",
"449 65 LINE",
"401 54 OFFCURVE",
"345 49 OFFCURVE",
"289 49 CURVE SMOOTH",
"233 49 OFFCURVE",
"191 52 OFFCURVE",
"143 61 CURVE",
"143 280 LINE",
"423 280 LINE",
"423 336 LINE",
"143 336 LINE",
"143 556 LINE",
"452 556 LINE",
"452 614 LINE",
"81 614 LINE",
"81 74 LINE SMOOTH",
"81 9 OFFCURVE",
"172 -9 OFFCURVE",
"286 -9 CURVE SMOOTH"
);
},
{
closed = 1;
nodes = (
"303 706 LINE",
"404 839 LINE",
"363 847 LINE",
"276 759 LINE",
"270 759 LINE",
"181 847 LINE",
"142 839 LINE",
"243 706 LINE"
);
}
);
width = 528;
}
);
leftKerningGroup = E;
note = Ecaron;
rightKerningGroup = E;
unicode = 011A;
},
{
glyphname = Ecircumflex;
lastChange = "2015-07-20 09:09:08 +0000";
layers = (
{
layerId = "28A75667-7282-4999-AEF1-C99F5F2E1F18";
name = Regular;
paths = (
{
closed = 1;
nodes = (
"358 -9 OFFCURVE",
"414 -3 OFFCURVE",
"463 10 CURVE",
"449 65 LINE",
"401 54 OFFCURVE",
"345 49 OFFCURVE",
"289 49 CURVE SMOOTH",
"233 49 OFFCURVE",
"191 52 OFFCURVE",
"143 61 CURVE",
"143 280 LINE",
"423 280 LINE",
"423 336 LINE",
"143 336 LINE",
"143 556 LINE",
"452 556 LINE",
"452 614 LINE",
"81 614 LINE",
"81 74 LINE SMOOTH",
"81 9 OFFCURVE",
"172 -9 OFFCURVE",
"286 -9 CURVE SMOOTH"
);
},
{
closed = 1;
nodes = (
"264 786 LINE",
"270 786 LINE",
"357 697 LINE",
"398 706 LINE",
"297 838 LINE",
"237 838 LINE",
"136 706 LINE",
"175 697 LINE"
);
}
);
width = 528;
}
);
leftKerningGroup = E;
note = Ecircumflex;
rightKerningGroup = E;
unicode = 00CA;
},
{
glyphname = Ecircumflexacute;
lastChange = "2015-07-20 09:09:08 +0000";
layers = (
{
layerId = "28A75667-7282-4999-AEF1-C99F5F2E1F18";
name = Regular;
paths = (
{
closed = 1;
nodes = (
"358 -9 OFFCURVE",
"414 -3 OFFCURVE",
"463 10 CURVE",
"449 65 LINE",
"401 54 OFFCURVE",
"345 49 OFFCURVE",
"289 49 CURVE SMOOTH",
"233 49 OFFCURVE",
"191 52 OFFCURVE",
"143 61 CURVE",
"143 280 LINE",
"423 280 LINE",
"423 336 LINE",
"143 336 LINE",
"143 556 LINE",
"452 556 LINE",
"452 614 LINE",
"81 614 LINE",
"81 74 LINE SMOOTH",
"81 9 OFFCURVE",
"172 -9 OFFCURVE",
"286 -9 CURVE SMOOTH"
);
},
{
closed = 1;
nodes = (
"265 786 LINE",
"271 786 LINE",
"358 698 LINE",
"399 706 LINE",
"298 839 LINE",
"238 839 LINE",
"137 706 LINE",
"176 698 LINE"
);
},
{
closed = 1;
nodes = (
"512 891 LINE",
"454 901 LINE",
"393 796 LINE",
"431 787 LINE"
);
}
);
width = 537;
}
);
leftKerningGroup = E;
note = Ecircumflexacute;
rightKerningGroup = E;
unicode = 1EBE;
},
{
glyphname = Ecircumflexdotbelow;
lastChange = "2015-07-20 09:09:08 +0000";
layers = (
{
layerId = "28A75667-7282-4999-AEF1-C99F5F2E1F18";
name = Regular;
paths = (
{
closed = 1;
nodes = (
"358 -9 OFFCURVE",
"414 -3 OFFCURVE",
"463 10 CURVE",
"449 65 LINE",
"401 54 OFFCURVE",
"345 49 OFFCURVE",
"289 49 CURVE SMOOTH",
"233 49 OFFCURVE",
"191 52 OFFCURVE",
"143 61 CURVE",
"143 280 LINE",
"423 280 LINE",
"423 336 LINE",
"143 336 LINE",
"143 556 LINE",
"452 556 LINE",
"452 614 LINE",
"81 614 LINE",
"81 74 LINE SMOOTH",
"81 9 OFFCURVE",
"172 -9 OFFCURVE",
"286 -9 CURVE SMOOTH"
);
},
{
closed = 1;
nodes = (
"309 -164 OFFCURVE",
"327 -146 OFFCURVE",
"327 -117 CURVE SMOOTH",
"327 -85 OFFCURVE",
"309 -68 OFFCURVE",
"277 -68 CURVE SMOOTH",
"246 -68 OFFCURVE",
"227 -85 OFFCURVE",
"227 -117 CURVE SMOOTH",
"227 -146 OFFCURVE",
"246 -164 OFFCURVE",
"277 -164 CURVE SMOOTH"
);
},
{
closed = 1;
nodes = (
"276 786 LINE",
"282 786 LINE",
"369 698 LINE",
"410 706 LINE",
"309 839 LINE",
"249 839 LINE",
"148 706 LINE",
"187 698 LINE"
);
}
);
width = 538;
}
);
leftKerningGroup = E;
note = Ecircumflexdotbelow;
rightKerningGroup = E;
unicode = 1EC6;
},
{
glyphname = Ecircumflexgrave;
lastChange = "2015-07-20 09:09:08 +0000";
layers = (
{
layerId = "28A75667-7282-4999-AEF1-C99F5F2E1F18";
name = Regular;
paths = (
{
closed = 1;
nodes = (
"365 -9 OFFCURVE",
"421 -3 OFFCURVE",
"470 10 CURVE",
"456 65 LINE",
"408 54 OFFCURVE",
"352 49 OFFCURVE",
"296 49 CURVE SMOOTH",
"240 49 OFFCURVE",
"198 52 OFFCURVE",
"150 61 CURVE",
"150 280 LINE",
"430 280 LINE",
"430 336 LINE",
"150 336 LINE",
"150 556 LINE",
"459 556 LINE",
"459 614 LINE",
"88 614 LINE",
"88 74 LINE SMOOTH",
"88 9 OFFCURVE",
"179 -9 OFFCURVE",
"293 -9 CURVE SMOOTH"
);
},
{
closed = 1;
nodes = (
"150 798 LINE",
"90 903 LINE",
"31 893 LINE",
"112 789 LINE"
);
},
{
closed = 1;
nodes = (
"273 788 LINE",
"278 788 LINE",
"368 700 LINE",
"407 708 LINE",
"305 841 LINE",
"246 841 LINE",
"145 708 LINE",
"185 700 LINE"
);
}
);
width = 535;
}
);
leftKerningGroup = E;
note = Ecircumflexgrave;
rightKerningGroup = E;
unicode = 1EC0;
},
{
glyphname = Ecircumflexhookabove;
lastChange = "2015-07-20 09:09:08 +0000";
layers = (
{
layerId = "28A75667-7282-4999-AEF1-C99F5F2E1F18";
name = Regular;
paths = (
{
closed = 1;
nodes = (
"358 -9 OFFCURVE",
"414 -3 OFFCURVE",
"463 10 CURVE",
"449 65 LINE",
"401 54 OFFCURVE",
"345 49 OFFCURVE",
"289 49 CURVE SMOOTH",
"233 49 OFFCURVE",
"191 52 OFFCURVE",
"143 61 CURVE",
"143 280 LINE",
"423 280 LINE",
"423 336 LINE",
"143 336 LINE",
"143 556 LINE",
"452 556 LINE",
"452 614 LINE",
"81 614 LINE",
"81 74 LINE SMOOTH",
"81 9 OFFCURVE",
"172 -9 OFFCURVE",
"286 -9 CURVE SMOOTH"
);
},
{
closed = 1;
nodes = (
"264 786 LINE",
"270 786 LINE",
"357 697 LINE",
"398 706 LINE",
"297 838 LINE",
"237 838 LINE",
"136 706 LINE",
"175 697 LINE"
);
},
{
closed = 1;
nodes = (
"424 805 LINE",
"424 840 LINE",
"464 841 OFFCURVE",
"486 858 OFFCURVE",
"486 893 CURVE SMOOTH",
"486 928 OFFCURVE",
"467 949 OFFCURVE",
"423 949 CURVE SMOOTH",
"404 949 OFFCURVE",
"387 945 OFFCURVE",
"368 938 CURVE",
"377 906 LINE",
"390 911 OFFCURVE",
"404 914 OFFCURVE",
"417 914 CURVE SMOOTH",
"438 914 OFFCURVE",
"446 908 OFFCURVE",
"446 892 CURVE SMOOTH",
"446 875 OFFCURVE",
"431 869 OFFCURVE",
"386 869 CURVE",
"386 844 LINE",
"395 805 LINE"
);
}
);
width = 540;
}
);
leftKerningGroup = E;
note = Ecircumflexhookabove;
rightKerningGroup = E;
unicode = 1EC2;
},
{
glyphname = Ecircumflextilde;
lastChange = "2015-07-20 09:09:08 +0000";
layers = (
{
layerId = "28A75667-7282-4999-AEF1-C99F5F2E1F18";
name = Regular;
paths = (
{
closed = 1;
nodes = (
"358 -9 OFFCURVE",
"414 -3 OFFCURVE",
"463 10 CURVE",
"449 65 LINE",
"401 54 OFFCURVE",
"345 49 OFFCURVE",
"289 49 CURVE SMOOTH",
"233 49 OFFCURVE",
"191 52 OFFCURVE",
"143 61 CURVE",
"143 280 LINE",
"423 280 LINE",
"423 336 LINE",
"143 336 LINE",
"143 556 LINE",
"452 556 LINE",
"452 614 LINE",
"81 614 LINE",
"81 74 LINE SMOOTH",
"81 9 OFFCURVE",
"172 -9 OFFCURVE",
"286 -9 CURVE SMOOTH"
);
},
{
closed = 1;
nodes = (
"265 786 LINE",
"271 786 LINE",
"358 697 LINE",
"399 706 LINE",
"298 838 LINE",
"238 838 LINE",
"137 706 LINE",
"176 697 LINE"
);
},
{
closed = 1;
nodes = (
"188 913 OFFCURVE",
"200 926 OFFCURVE",
"224 926 CURVE SMOOTH",
"255 926 OFFCURVE",
"276 893 OFFCURVE",
"316 893 CURVE SMOOTH",
"354 893 OFFCURVE",
"377 914 OFFCURVE",
"382 963 CURVE",
"349 974 LINE",
"344 950 OFFCURVE",
"332 937 OFFCURVE",
"309 937 CURVE SMOOTH",
"284 937 OFFCURVE",
"257 970 OFFCURVE",
"216 970 CURVE SMOOTH",
"178 970 OFFCURVE",
"155 948 OFFCURVE",
"150 900 CURVE",
"184 890 LINE"
);
}
);
width = 528;
}
);
leftKerningGroup = E;
note = Ecircumflextilde;
rightKerningGroup = E;
unicode = 1EC4;
},
{
glyphname = Edieresis;
lastChange = "2015-07-20 09:09:08 +0000";
layers = (
{
layerId = "28A75667-7282-4999-AEF1-C99F5F2E1F18";
name = Regular;
paths = (
{
closed = 1;
nodes = (
"358 -9 OFFCURVE",
"414 -3 OFFCURVE",
"463 10 CURVE",
"449 65 LINE",
"401 54 OFFCURVE",
"345 49 OFFCURVE",
"289 49 CURVE SMOOTH",
"233 49 OFFCURVE",
"191 52 OFFCURVE",
"143 61 CURVE",
"143 280 LINE",
"423 280 LINE",
"423 336 LINE",
"143 336 LINE",
"143 556 LINE",
"452 556 LINE",
"452 614 LINE",
"81 614 LINE",
"81 74 LINE SMOOTH",
"81 9 OFFCURVE",
"172 -9 OFFCURVE",
"286 -9 CURVE SMOOTH"
);
},
{
closed = 1;
nodes = (
"220 701 OFFCURVE",
"234 715 OFFCURVE",
"234 738 CURVE SMOOTH",
"234 762 OFFCURVE",
"220 775 OFFCURVE",
"196 775 CURVE SMOOTH",
"172 775 OFFCURVE",
"157 762 OFFCURVE",
"157 738 CURVE SMOOTH",
"157 715 OFFCURVE",
"172 701 OFFCURVE",
"196 701 CURVE SMOOTH"
);
},
{
closed = 1;
nodes = (
"378 701 OFFCURVE",
"392 715 OFFCURVE",
"392 738 CURVE SMOOTH",
"392 762 OFFCURVE",
"378 775 OFFCURVE",
"354 775 CURVE SMOOTH",
"329 775 OFFCURVE",
"314 762 OFFCURVE",
"314 738 CURVE SMOOTH",
"314 715 OFFCURVE",
"329 701 OFFCURVE",
"354 701 CURVE SMOOTH"
);
}
);
width = 528;
}
);
leftKerningGroup = E;
note = Edieresis;
rightKerningGroup = E;
unicode = 00CB;
},
{
glyphname = Edotaccent;
lastChange = "2015-07-20 09:09:08 +0000";
layers = (
{
layerId = "28A75667-7282-4999-AEF1-C99F5F2E1F18";
name = Regular;
paths = (
{
closed = 1;
nodes = (
"358 -9 OFFCURVE",
"414 -3 OFFCURVE",
"463 10 CURVE",
"449 65 LINE",
"401 54 OFFCURVE",
"345 49 OFFCURVE",
"289 49 CURVE SMOOTH",
"233 49 OFFCURVE",
"191 52 OFFCURVE",
"143 61 CURVE",
"143 280 LINE",
"423 280 LINE",
"423 336 LINE",
"143 336 LINE",
"143 556 LINE",
"452 556 LINE",
"452 614 LINE",
"81 614 LINE",
"81 74 LINE SMOOTH",
"81 9 OFFCURVE",
"172 -9 OFFCURVE",
"286 -9 CURVE SMOOTH"
);
},
{
closed = 1;
nodes = (
"308 701 OFFCURVE",
"326 719 OFFCURVE",
"326 748 CURVE SMOOTH",
"326 780 OFFCURVE",
"308 797 OFFCURVE",
"276 797 CURVE SMOOTH",
"245 797 OFFCURVE",
"226 780 OFFCURVE",
"226 748 CURVE SMOOTH",
"226 719 OFFCURVE",
"245 701 OFFCURVE",
"276 701 CURVE SMOOTH"
);
}
);
width = 528;
}
);
leftKerningGroup = E;
note = Edotaccent;
rightKerningGroup = E;
unicode = 0116;
},
{
glyphname = Edotbelow;
lastChange = "2015-07-20 09:09:08 +0000";
layers = (
{
layerId = "28A75667-7282-4999-AEF1-C99F5F2E1F18";
name = Regular;
paths = (
{
closed = 1;
nodes = (
"358 -9 OFFCURVE",
"414 -3 OFFCURVE",
"463 10 CURVE",
"449 65 LINE",
"401 54 OFFCURVE",
"345 49 OFFCURVE",
"289 49 CURVE SMOOTH",
"233 49 OFFCURVE",
"191 52 OFFCURVE",
"143 61 CURVE",
"143 280 LINE",
"423 280 LINE",
"423 336 LINE",
"143 336 LINE",
"143 556 LINE",
"452 556 LINE",
"452 614 LINE",
"81 614 LINE",
"81 74 LINE SMOOTH",
"81 9 OFFCURVE",
"172 -9 OFFCURVE",
"286 -9 CURVE SMOOTH"
);
},
{
closed = 1;
nodes = (
"314 -159 OFFCURVE",
"332 -141 OFFCURVE",
"332 -112 CURVE SMOOTH",
"332 -80 OFFCURVE",
"314 -63 OFFCURVE",
"282 -63 CURVE SMOOTH",
"251 -63 OFFCURVE",
"232 -80 OFFCURVE",
"232 -112 CURVE SMOOTH",
"232 -141 OFFCURVE",
"251 -159 OFFCURVE",
"282 -159 CURVE SMOOTH"
);
}
);
width = 528;
}
);
leftKerningGroup = E;
note = Edotbelow;
rightKerningGroup = E;
unicode = 1EB8;
},
{
glyphname = Egrave;
lastChange = "2015-07-20 09:09:08 +0000";
layers = (
{
layerId = "28A75667-7282-4999-AEF1-C99F5F2E1F18";
name = Regular;
paths = (
{
closed = 1;
nodes = (
"358 -9 OFFCURVE",
"414 -3 OFFCURVE",
"463 10 CURVE",
"449 65 LINE",
"401 54 OFFCURVE",
"345 49 OFFCURVE",
"289 49 CURVE SMOOTH",
"233 49 OFFCURVE",
"191 52 OFFCURVE",
"143 61 CURVE",
"143 280 LINE",
"423 280 LINE",
"423 336 LINE",
"143 336 LINE",
"143 556 LINE",
"452 556 LINE",
"452 614 LINE",
"81 614 LINE",
"81 74 LINE SMOOTH",
"81 9 OFFCURVE",
"172 -9 OFFCURVE",
"286 -9 CURVE SMOOTH"
);
},
{
closed = 1;
nodes = (
"318 706 LINE",
"235 848 LINE",
"154 840 LINE",
"273 698 LINE"
);
}
);
width = 528;
}
);
leftKerningGroup = E;
note = Egrave;
rightKerningGroup = E;
unicode = 00C8;
},
{
glyphname = Ehookabove;
lastChange = "2015-07-20 09:09:08 +0000";
layers = (
{
layerId = "28A75667-7282-4999-AEF1-C99F5F2E1F18";
name = Regular;
paths = (
{
closed = 1;
nodes = (
"358 -9 OFFCURVE",
"414 -3 OFFCURVE",
"463 10 CURVE",
"449 65 LINE",
"401 54 OFFCURVE",
"345 49 OFFCURVE",
"289 49 CURVE SMOOTH",
"233 49 OFFCURVE",
"191 52 OFFCURVE",
"143 61 CURVE",
"143 280 LINE",
"423 280 LINE",
"423 336 LINE",
"143 336 LINE",
"143 556 LINE",
"452 556 LINE",
"452 614 LINE",
"81 614 LINE",
"81 74 LINE SMOOTH",
"81 9 OFFCURVE",
"172 -9 OFFCURVE",
"286 -9 CURVE SMOOTH"
);
},
{
closed = 1;
nodes = (
"284 706 LINE",
"284 747 LINE",
"338 748 OFFCURVE",
"376 767 OFFCURVE",
"376 821 CURVE SMOOTH",
"376 864 OFFCURVE",
"351 896 OFFCURVE",
"290 896 CURVE SMOOTH",
"263 896 OFFCURVE",
"240 892 OFFCURVE",
"214 881 CURVE",
"227 844 LINE",
"244 851 OFFCURVE",
"264 854 OFFCURVE",
"281 854 CURVE SMOOTH",
"314 854 OFFCURVE",
"327 844 OFFCURVE",
"327 819 CURVE SMOOTH",
"327 787 OFFCURVE",
"302 783 OFFCURVE",
"238 783 CURVE",
"238 755 LINE",
"250 706 LINE"
);
}
);
width = 528;
}
);
leftKerningGroup = E;
note = Ehookabove;
rightKerningGroup = E;
unicode = 1EBA;
},
{
glyphname = Emacron;
lastChange = "2015-07-20 09:09:08 +0000";
layers = (
{
layerId = "28A75667-7282-4999-AEF1-C99F5F2E1F18";
name = Regular;
paths = (
{
closed = 1;
nodes = (
"358 -9 OFFCURVE",
"414 -3 OFFCURVE",
"463 10 CURVE",
"449 65 LINE",
"401 54 OFFCURVE",
"345 49 OFFCURVE",
"289 49 CURVE SMOOTH",
"233 49 OFFCURVE",
"191 52 OFFCURVE",
"143 61 CURVE",
"143 280 LINE",
"423 280 LINE",
"423 336 LINE",
"143 336 LINE",
"143 556 LINE",
"452 556 LINE",
"452 614 LINE",
"81 614 LINE",
"81 74 LINE SMOOTH",
"81 9 OFFCURVE",
"172 -9 OFFCURVE",
"286 -9 CURVE SMOOTH"
);
},
{
closed = 1;
nodes = (
"411 707 LINE",
"411 760 LINE",
"126 760 LINE",
"126 707 LINE"
);
}
);
width = 528;
}
);
leftKerningGroup = E;
note = Emacron;
rightKerningGroup = E;
unicode = 0112;
},
{
glyphname = Eogonek;
lastChange = "2015-07-20 09:09:08 +0000";
layers = (
{
layerId = "28A75667-7282-4999-AEF1-C99F5F2E1F18";
name = Regular;
paths = (
{
closed = 1;
nodes = (
"449 -161 OFFCURVE",
"467 -157 OFFCURVE",
"483 -150 CURVE",
"472 -108 LINE",
"458 -112 OFFCURVE",
"445 -113 OFFCURVE",
"431 -113 CURVE SMOOTH",
"417 -113 OFFCURVE",
"405 -112 OFFCURVE",
"393 -109 CURVE",
"389 -101 OFFCURVE",
"387 -90 OFFCURVE",
"387 -80 CURVE SMOOTH",
"387 -49 OFFCURVE",
"396 -26 OFFCURVE",
"434 -1 CURVE",
"445 2 OFFCURVE",
"456 6 OFFCURVE",
"464 9 CURVE",
"449 65 LINE",
"401 54 OFFCURVE",
"345 49 OFFCURVE",
"289 49 CURVE SMOOTH",
"233 49 OFFCURVE",
"191 52 OFFCURVE",
"143 61 CURVE",
"143 280 LINE",
"423 280 LINE",
"423 336 LINE",
"143 336 LINE",
"143 556 LINE",
"452 556 LINE",
"452 614 LINE",
"81 614 LINE",
"81 74 LINE SMOOTH",
"81 9 OFFCURVE",
"172 -9 OFFCURVE",
"286 -9 CURVE SMOOTH",
"317 -9 OFFCURVE",
"346 -7 OFFCURVE",
"372 -5 CURVE",
"346 -24 OFFCURVE",
"332 -49 OFFCURVE",
"332 -83 CURVE SMOOTH",
"332 -132 OFFCURVE",
"366 -161 OFFCURVE",
"423 -161 CURVE SMOOTH"
);
}
);
width = 528;
}
);
leftKerningGroup = E;
note = Eogonek;
rightKerningGroup = E;
unicode = 0118;
},
{
glyphname = Etilde;
lastChange = "2015-07-20 09:09:08 +0000";
layers = (
{
layerId = "28A75667-7282-4999-AEF1-C99F5F2E1F18";
name = Regular;
paths = (
{
closed = 1;
nodes = (
"358 -9 OFFCURVE",
"414 -3 OFFCURVE",
"463 10 CURVE",
"449 65 LINE",
"401 54 OFFCURVE",
"345 49 OFFCURVE",
"289 49 CURVE SMOOTH",
"233 49 OFFCURVE",
"191 52 OFFCURVE",
"143 61 CURVE",
"143 280 LINE",
"423 280 LINE",
"423 336 LINE",
"143 336 LINE",
"143 556 LINE",
"452 556 LINE",
"452 614 LINE",
"81 614 LINE",
"81 74 LINE SMOOTH",
"81 9 OFFCURVE",
"172 -9 OFFCURVE",
"286 -9 CURVE SMOOTH"
);
},
{
closed = 1;
nodes = (
"179 726 OFFCURVE",
"190 747 OFFCURVE",
"219 747 CURVE SMOOTH",
"254 747 OFFCURVE",
"283 698 OFFCURVE",
"331 698 CURVE SMOOTH",
"380 698 OFFCURVE",
"405 730 OFFCURVE",
"409 788 CURVE",
"368 801 LINE",
"364 771 OFFCURVE",
"352 751 OFFCURVE",
"324 751 CURVE SMOOTH",
"290 751 OFFCURVE",
"256 799 OFFCURVE",
"212 799 CURVE SMOOTH",
"163 799 OFFCURVE",
"138 767 OFFCURVE",
"134 710 CURVE",
"175 697 LINE"
);
}
);
width = 528;
}
);
leftKerningGroup = E;
note = Etilde;
rightKerningGroup = E;
unicode = 1EBC;
},
{
glyphname = F;
lastChange = "2015-07-20 09:46:01 +0000";
layers = (
{
layerId = "28A75667-7282-4999-AEF1-C99F5F2E1F18";
name = Regular;
paths = (
{
closed = 1;
nodes = (
"145 0 LINE",
"145 280 LINE",
"410 280 LINE",
"410 336 LINE",
"145 336 LINE",
"145 558 LINE",
"461 558 LINE",
"461 616 LINE",
"82 616 LINE",
"82 0 LINE"
);
}
);
width = 491;
}
);
note = F;
unicode = 0046;
},
{
glyphname = G;
lastChange = "2015-07-20 09:52:48 +0000";
layers = (
{
layerId = "28A75667-7282-4999-AEF1-C99F5F2E1F18";
name = Regular;
paths = (
{
closed = 1;
nodes = (
"439 -9 OFFCURVE",
"522 41 OFFCURVE",
"522 115 CURVE SMOOTH",
"522 293 LINE",
"485 322 LINE",
"317 322 LINE",
"317 266 LINE",
"459 266 LINE",
"459 70 LINE",
"423 57 OFFCURVE",
"386 50 OFFCURVE",
"328 50 CURVE SMOOTH",
"191 50 OFFCURVE",
"120 125 OFFCURVE",
"120 295 CURVE SMOOTH",
"120 395 OFFCURVE",
"146 482 OFFCURVE",
"191 549 CURVE",
"235 561 OFFCURVE",
"285 565 OFFCURVE",
"326 565 CURVE SMOOTH",
"372 565 OFFCURVE",
"421 561 OFFCURVE",
"448 554 CURVE",
"458 472 LINE",
"499 472 LINE",
"506 489 OFFCURVE",
"510 516 OFFCURVE",
"510 539 CURVE SMOOTH",
"510 585 LINE",
"476 606 OFFCURVE",
"405 624 OFFCURVE",
"327 624 CURVE SMOOTH",
"138 624 OFFCURVE",
"57 486 OFFCURVE",
"57 291 CURVE SMOOTH",
"57 96 OFFCURVE",
"151 -9 OFFCURVE",
"319 -9 CURVE SMOOTH"
);
}
);
width = 588;
}
);
leftKerningGroup = G;
note = G;
rightKerningGroup = G;
unicode = 0047;
},
{
glyphname = Gbreve;
lastChange = "2015-07-20 09:26:26 +0000";
layers = (
{
layerId = "28A75667-7282-4999-AEF1-C99F5F2E1F18";
name = Regular;
paths = (
{
closed = 1;
nodes = (
"439 -9 OFFCURVE",
"522 41 OFFCURVE",
"522 115 CURVE SMOOTH",
"522 293 LINE",
"485 322 LINE",
"317 322 LINE",
"317 266 LINE",
"459 266 LINE",
"459 70 LINE",
"423 57 OFFCURVE",
"386 50 OFFCURVE",
"328 50 CURVE SMOOTH",
"191 50 OFFCURVE",
"120 125 OFFCURVE",
"120 295 CURVE SMOOTH",
"120 395 OFFCURVE",
"146 482 OFFCURVE",
"191 549 CURVE",
"235 561 OFFCURVE",
"285 565 OFFCURVE",
"326 565 CURVE SMOOTH",
"372 565 OFFCURVE",
"421 561 OFFCURVE",
"448 554 CURVE",
"458 472 LINE",
"499 472 LINE",
"506 489 OFFCURVE",
"510 516 OFFCURVE",
"510 539 CURVE SMOOTH",
"510 585 LINE",
"476 606 OFFCURVE",
"405 624 OFFCURVE",
"327 624 CURVE SMOOTH",
"138 624 OFFCURVE",
"57 486 OFFCURVE",
"57 291 CURVE SMOOTH",
"57 96 OFFCURVE",
"151 -9 OFFCURVE",
"319 -9 CURVE SMOOTH"
);
},
{
closed = 1;
nodes = (
"396 701 OFFCURVE",
"433 745 OFFCURVE",
"443 807 CURVE",
"384 817 LINE",
"379 777 OFFCURVE",
"366 751 OFFCURVE",
"316 751 CURVE SMOOTH",
"265 751 OFFCURVE",
"252 777 OFFCURVE",
"247 817 CURVE",
"188 807 LINE",
"198 745 OFFCURVE",
"235 701 OFFCURVE",
"316 701 CURVE SMOOTH"
);
}
);
width = 588;
}
);
leftKerningGroup = G;
note = Gbreve;
rightKerningGroup = G;
unicode = 011E;
},
{
glyphname = Gcaron;
lastChange = "2015-07-20 09:26:26 +0000";
layers = (
{
layerId = "28A75667-7282-4999-AEF1-C99F5F2E1F18";
name = Regular;
paths = (
{
closed = 1;
nodes = (
"439 -9 OFFCURVE",
"522 41 OFFCURVE",
"522 115 CURVE SMOOTH",
"522 293 LINE",
"485 322 LINE",
"317 322 LINE",
"317 266 LINE",
"459 266 LINE",
"459 70 LINE",
"423 57 OFFCURVE",
"386 50 OFFCURVE",
"328 50 CURVE SMOOTH",
"191 50 OFFCURVE",
"120 125 OFFCURVE",
"120 295 CURVE SMOOTH",
"120 395 OFFCURVE",
"146 482 OFFCURVE",
"191 549 CURVE",
"235 561 OFFCURVE",
"285 565 OFFCURVE",
"326 565 CURVE SMOOTH",
"372 565 OFFCURVE",
"421 561 OFFCURVE",
"448 554 CURVE",
"458 472 LINE",
"499 472 LINE",
"506 489 OFFCURVE",
"510 516 OFFCURVE",
"510 539 CURVE SMOOTH",
"510 585 LINE",
"476 606 OFFCURVE",
"405 624 OFFCURVE",
"327 624 CURVE SMOOTH",
"138 624 OFFCURVE",
"57 486 OFFCURVE",
"57 291 CURVE SMOOTH",
"57 96 OFFCURVE",
"151 -9 OFFCURVE",
"319 -9 CURVE SMOOTH"
);
},
{
closed = 1;
nodes = (
"336 706 LINE",
"437 839 LINE",
"396 847 LINE",
"309 759 LINE",
"303 759 LINE",
"214 847 LINE",
"175 839 LINE",
"276 706 LINE"
);
}
);
width = 588;
}
);
leftKerningGroup = G;
note = Gcaron;
rightKerningGroup = G;
unicode = 01E6;
},
{
glyphname = Gcircumflex;
lastChange = "2015-07-20 09:26:26 +0000";
layers = (
{
layerId = "28A75667-7282-4999-AEF1-C99F5F2E1F18";
name = Regular;
paths = (
{
closed = 1;
nodes = (
"439 -9 OFFCURVE",
"522 41 OFFCURVE",
"522 115 CURVE SMOOTH",
"522 293 LINE",
"485 322 LINE",
"317 322 LINE",
"317 266 LINE",
"459 266 LINE",
"459 70 LINE",
"423 57 OFFCURVE",
"386 50 OFFCURVE",
"328 50 CURVE SMOOTH",
"191 50 OFFCURVE",
"120 125 OFFCURVE",
"120 295 CURVE SMOOTH",
"120 395 OFFCURVE",
"146 482 OFFCURVE",
"191 549 CURVE",
"235 561 OFFCURVE",
"285 565 OFFCURVE",
"326 565 CURVE SMOOTH",
"372 565 OFFCURVE",
"421 561 OFFCURVE",
"448 554 CURVE",
"458 472 LINE",
"499 472 LINE",
"506 489 OFFCURVE",
"510 516 OFFCURVE",
"510 539 CURVE SMOOTH",
"510 585 LINE",
"476 606 OFFCURVE",
"405 624 OFFCURVE",
"327 624 CURVE SMOOTH",
"138 624 OFFCURVE",
"57 486 OFFCURVE",
"57 291 CURVE SMOOTH",
"57 96 OFFCURVE",
"151 -9 OFFCURVE",
"319 -9 CURVE SMOOTH"
);
},
{
closed = 1;
nodes = (
"305 786 LINE",
"311 786 LINE",
"398 697 LINE",
"439 706 LINE",
"338 838 LINE",
"278 838 LINE",
"177 706 LINE",
"216 697 LINE"
);
}
);
width = 588;
}
);
leftKerningGroup = G;
note = Gcircumflex;
rightKerningGroup = G;
unicode = 011C;
},
{
glyphname = Gcommaaccent;
lastChange = "2015-07-20 09:26:26 +0000";
layers = (
{
layerId = "28A75667-7282-4999-AEF1-C99F5F2E1F18";
name = Regular;
paths = (
{
closed = 1;
nodes = (
"439 -9 OFFCURVE",
"522 41 OFFCURVE",
"522 115 CURVE SMOOTH",
"522 293 LINE",
"485 322 LINE",
"317 322 LINE",
"317 266 LINE",
"459 266 LINE",
"459 70 LINE",
"423 57 OFFCURVE",
"386 50 OFFCURVE",
"328 50 CURVE SMOOTH",
"191 50 OFFCURVE",
"120 125 OFFCURVE",
"120 295 CURVE SMOOTH",
"120 395 OFFCURVE",
"146 482 OFFCURVE",
"191 549 CURVE",
"235 561 OFFCURVE",
"285 565 OFFCURVE",
"326 565 CURVE SMOOTH",
"372 565 OFFCURVE",
"421 561 OFFCURVE",
"448 554 CURVE",
"458 472 LINE",
"499 472 LINE",
"506 489 OFFCURVE",
"510 516 OFFCURVE",
"510 539 CURVE SMOOTH",
"510 585 LINE",
"476 606 OFFCURVE",
"405 624 OFFCURVE",
"327 624 CURVE SMOOTH",
"138 624 OFFCURVE",
"57 486 OFFCURVE",
"57 291 CURVE SMOOTH",
"57 96 OFFCURVE",
"151 -9 OFFCURVE",
"319 -9 CURVE SMOOTH"
);
},
{
closed = 1;
nodes = (
"367 -217 OFFCURVE",
"385 -173 OFFCURVE",
"385 -130 CURVE SMOOTH",
"385 -86 OFFCURVE",
"365 -64 OFFCURVE",
"324 -64 CURVE SMOOTH",
"309 -64 OFFCURVE",
"294 -66 OFFCURVE",
"281 -71 CURVE",
"281 -114 LINE",
"335 -114 LINE",
"335 -165 OFFCURVE",
"322 -204 OFFCURVE",
"300 -245 CURVE",
"338 -253 LINE"
);
}
);
width = 588;
}
);
leftKerningGroup = G;
note = Gcommaaccent;
rightKerningGroup = G;
unicode = 0122;
},
{
glyphname = Gdotaccent;
lastChange = "2015-07-20 09:26:26 +0000";
layers = (
{
layerId = "28A75667-7282-4999-AEF1-C99F5F2E1F18";
name = Regular;
paths = (
{
closed = 1;
nodes = (
"439 -9 OFFCURVE",
"522 41 OFFCURVE",
"522 115 CURVE SMOOTH",
"522 293 LINE",
"485 322 LINE",
"317 322 LINE",
"317 266 LINE",
"459 266 LINE",
"459 70 LINE",
"423 57 OFFCURVE",
"386 50 OFFCURVE",
"328 50 CURVE SMOOTH",
"191 50 OFFCURVE",
"120 125 OFFCURVE",
"120 295 CURVE SMOOTH",
"120 395 OFFCURVE",
"146 482 OFFCURVE",
"191 549 CURVE",
"235 561 OFFCURVE",
"285 565 OFFCURVE",
"326 565 CURVE SMOOTH",
"372 565 OFFCURVE",
"421 561 OFFCURVE",
"448 554 CURVE",
"458 472 LINE",
"499 472 LINE",
"506 489 OFFCURVE",
"510 516 OFFCURVE",
"510 539 CURVE SMOOTH",
"510 585 LINE",
"476 606 OFFCURVE",
"405 624 OFFCURVE",
"327 624 CURVE SMOOTH",
"138 624 OFFCURVE",
"57 486 OFFCURVE",
"57 291 CURVE SMOOTH",
"57 96 OFFCURVE",
"151 -9 OFFCURVE",
"319 -9 CURVE SMOOTH"
);
},
{
closed = 1;
nodes = (
"350 701 OFFCURVE",
"368 719 OFFCURVE",
"368 748 CURVE SMOOTH",
"368 780 OFFCURVE",
"350 797 OFFCURVE",
"318 797 CURVE SMOOTH",
"287 797 OFFCURVE",
"268 780 OFFCURVE",
"268 748 CURVE SMOOTH",
"268 719 OFFCURVE",
"287 701 OFFCURVE",
"318 701 CURVE SMOOTH"
);
}
);
width = 588;
}
);
leftKerningGroup = G;
note = Gdotaccent;
rightKerningGroup = G;
unicode = 0120;
},
{
glyphname = Gmacron;
lastChange = "2015-07-20 09:26:26 +0000";
layers = (
{
layerId = "28A75667-7282-4999-AEF1-C99F5F2E1F18";
name = Regular;
paths = (
{
closed = 1;
nodes = (
"439 -9 OFFCURVE",
"522 41 OFFCURVE",
"522 115 CURVE SMOOTH",
"522 293 LINE",
"485 322 LINE",
"317 322 LINE",
"317 266 LINE",
"459 266 LINE",
"459 70 LINE",
"423 57 OFFCURVE",
"386 50 OFFCURVE",
"328 50 CURVE SMOOTH",
"191 50 OFFCURVE",
"120 125 OFFCURVE",
"120 295 CURVE SMOOTH",
"120 395 OFFCURVE",
"146 482 OFFCURVE",
"191 549 CURVE",
"235 561 OFFCURVE",
"285 565 OFFCURVE",
"326 565 CURVE SMOOTH",
"372 565 OFFCURVE",
"421 561 OFFCURVE",
"448 554 CURVE",
"458 472 LINE",
"499 472 LINE",
"506 489 OFFCURVE",
"510 516 OFFCURVE",
"510 539 CURVE SMOOTH",
"510 585 LINE",
"476 606 OFFCURVE",
"405 624 OFFCURVE",
"327 624 CURVE SMOOTH",
"138 624 OFFCURVE",
"57 486 OFFCURVE",
"57 291 CURVE SMOOTH",
"57 96 OFFCURVE",
"151 -9 OFFCURVE",
"319 -9 CURVE SMOOTH"
);
},
{
closed = 1;
nodes = (
"453 706 LINE",
"453 759 LINE",
"168 759 LINE",
"168 706 LINE"
);
}
);
width = 588;
}
);
leftKerningGroup = G;
note = Gmacron;
rightKerningGroup = G;
unicode = 1E20;
},
{
glyphname = H;
lastChange = "2015-07-20 05:44:22 +0000";
layers = (
{
layerId = "28A75667-7282-4999-AEF1-C99F5F2E1F18";
name = Regular;
paths = (
{
closed = 1;
nodes = (
"145 0 LINE",
"145 268 LINE",
"447 268 LINE",
"447 0 LINE",
"510 0 LINE",
"510 614 LINE",
"447 614 LINE",
"447 327 LINE",
"145 327 LINE",
"145 614 LINE",
"82 614 LINE",
"82 0 LINE"
);
}
);
width = 592;
}
);
note = H;
unicode = 0048;
},
{
glyphname = Hbar;
lastChange = "2015-07-20 05:44:26 +0000";
layers = (
{
layerId = "28A75667-7282-4999-AEF1-C99F5F2E1F18";
name = Regular;
paths = (
{
closed = 1;
nodes = (
"184 0 LINE",
"184 268 LINE",
"486 268 LINE",
"486 0 LINE",
"549 0 LINE",
"549 443 LINE",
"614 443 LINE",
"614 495 LINE",
"549 495 LINE",
"549 614 LINE",
"486 614 LINE",
"486 495 LINE",
"184 495 LINE",
"184 614 LINE",
"121 614 LINE",
"121 495 LINE",
"56 495 LINE",
"56 443 LINE",
"121 443 LINE",
"121 0 LINE"
);
},
{
closed = 1;
nodes = (
"184 443 LINE",
"486 443 LINE",
"486 327 LINE",
"184 327 LINE"
);
}
);
width = 671;
}
);
note = Hbar;
unicode = 0126;
},
{
glyphname = Hbrevebelow;
lastChange = "2015-07-20 05:44:27 +0000";
layers = (
{
layerId = "28A75667-7282-4999-AEF1-C99F5F2E1F18";
name = Regular;
paths = (
{
closed = 1;
nodes = (
"144 0 LINE",
"144 268 LINE",
"446 268 LINE",
"446 0 LINE",
"509 0 LINE",
"509 614 LINE",
"446 614 LINE",
"446 327 LINE",
"144 327 LINE",
"144 614 LINE",
"81 614 LINE",
"81 0 LINE"
);
},
{
closed = 1;
nodes = (
"376 -173 OFFCURVE",
"413 -129 OFFCURVE",
"423 -67 CURVE",
"364 -58 LINE",
"359 -98 OFFCURVE",
"346 -124 OFFCURVE",
"296 -124 CURVE SMOOTH",
"245 -124 OFFCURVE",
"232 -98 OFFCURVE",
"227 -58 CURVE",
"168 -67 LINE",
"178 -129 OFFCURVE",
"215 -173 OFFCURVE",
"296 -173 CURVE SMOOTH"
);
}
);
width = 591;
}
);
note = Hbrevebelow;
unicode = 1E2A;
},
{
glyphname = Hcircumflex;
lastChange = "2015-07-20 05:44:26 +0000";
layers = (
{
layerId = "28A75667-7282-4999-AEF1-C99F5F2E1F18";
name = Regular;
paths = (
{
closed = 1;
nodes = (
"144 0 LINE",
"144 268 LINE",
"446 268 LINE",
"446 0 LINE",
"509 0 LINE",
"509 614 LINE",
"446 614 LINE",
"446 327 LINE",
"144 327 LINE",
"144 614 LINE",
"81 614 LINE",
"81 0 LINE"
);
},
{
closed = 1;
nodes = (
"293 786 LINE",
"299 786 LINE",
"386 697 LINE",
"427 706 LINE",
"326 838 LINE",
"266 838 LINE",
"165 706 LINE",
"204 697 LINE"
);
}
);
width = 591;
}
);
note = Hcircumflex;
unicode = 0124;
},
{
glyphname = Hdotbelow;
lastChange = "2015-07-20 05:44:27 +0000";
layers = (
{
layerId = "28A75667-7282-4999-AEF1-C99F5F2E1F18";
name = Regular;
paths = (
{
closed = 1;
nodes = (
"144 0 LINE",
"144 268 LINE",
"446 268 LINE",
"446 0 LINE",
"509 0 LINE",
"509 614 LINE",
"446 614 LINE",
"446 327 LINE",
"144 327 LINE",
"144 614 LINE",
"81 614 LINE",
"81 0 LINE"
);
},
{
closed = 1;
nodes = (
"327 -159 OFFCURVE",
"345 -141 OFFCURVE",
"345 -112 CURVE SMOOTH",
"345 -80 OFFCURVE",
"327 -63 OFFCURVE",
"295 -63 CURVE SMOOTH",
"264 -63 OFFCURVE",
"245 -80 OFFCURVE",
"245 -112 CURVE SMOOTH",
"245 -141 OFFCURVE",
"264 -159 OFFCURVE",
"295 -159 CURVE SMOOTH"
);
}
);
width = 591;
}
);
note = Hdotbelow;
unicode = 1E24;
},
{
glyphname = I;
lastChange = "2015-07-20 05:44:22 +0000";
layers = (
{
layerId = "28A75667-7282-4999-AEF1-C99F5F2E1F18";
name = Regular;
paths = (
{
closed = 1;
nodes = (
"147 0 LINE",
"147 614 LINE",
"84 614 LINE",
"84 0 LINE"
);
}
);
width = 231;
}
);
note = I;
unicode = 0049;
},
{
glyphname = IJ;
lastChange = "2015-07-20 05:44:27 +0000";
layers = (
{
layerId = "28A75667-7282-4999-AEF1-C99F5F2E1F18";
name = Regular;
paths = (
{
closed = 1;
nodes = (
"514 -9 OFFCURVE",
"579 35 OFFCURVE",
"579 125 CURVE SMOOTH",
"579 616 LINE",
"516 616 LINE",
"516 128 LINE SMOOTH",
"516 103 OFFCURVE",
"514 86 OFFCURVE",
"508 69 CURVE",
"487 57 OFFCURVE",
"455 48 OFFCURVE",
"411 48 CURVE SMOOTH",
"366 48 OFFCURVE",
"322 58 OFFCURVE",
"288 71 CURVE",
"273 16 LINE",
"310 1 OFFCURVE",
"362 -9 OFFCURVE",
"409 -9 CURVE SMOOTH"
);
},
{
closed = 1;
nodes = (
"147 0 LINE",
"147 614 LINE",
"84 614 LINE",
"84 0 LINE"
);
}
);
width = 658;
}
);
note = IJ;
unicode = 0132;
},
{
glyphname = Iacute;
lastChange = "2015-07-20 05:44:27 +0000";
layers = (
{
layerId = "28A75667-7282-4999-AEF1-C99F5F2E1F18";
name = Regular;
paths = (
{
closed = 1;
nodes = (
"147 0 LINE",
"147 614 LINE",
"84 614 LINE",
"84 0 LINE"
);
},
{
closed = 1;
nodes = (
"251 840 LINE",
"170 848 LINE",
"87 706 LINE",
"132 698 LINE"
);
}
);
width = 232;
}
);
note = Iacute;
unicode = 00CD;
},
{
glyphname = Ibreve;
lastChange = "2015-07-20 05:44:26 +0000";
layers = (
{
layerId = "28A75667-7282-4999-AEF1-C99F5F2E1F18";
name = Regular;
paths = (
{
closed = 1;
nodes = (
"147 0 LINE",
"147 614 LINE",
"84 614 LINE",
"84 0 LINE"
);
},
{
closed = 1;
nodes = (
"197 701 OFFCURVE",
"234 745 OFFCURVE",
"244 807 CURVE",
"185 817 LINE",
"180 777 OFFCURVE",
"167 751 OFFCURVE",
"117 751 CURVE SMOOTH",
"66 751 OFFCURVE",
"53 777 OFFCURVE",
"48 817 CURVE",
"-11 807 LINE",
"-1 745 OFFCURVE",
"36 701 OFFCURVE",
"117 701 CURVE SMOOTH"
);
}
);
width = 232;
}
);
note = Ibreve;
unicode = 012C;
},
{
glyphname = Icaron;
lastChange = "2015-07-20 05:44:27 +0000";
layers = (
{
layerId = "28A75667-7282-4999-AEF1-C99F5F2E1F18";
name = Regular;
paths = (
{
closed = 1;
nodes = (
"147 0 LINE",
"147 614 LINE",
"84 614 LINE",
"84 0 LINE"
);
},
{
closed = 1;
nodes = (
"146 706 LINE",
"247 839 LINE",
"207 847 LINE",
"119 759 LINE",
"114 759 LINE",
"24 847 LINE",
"-15 839 LINE",
"87 706 LINE"
);
}
);
width = 232;
}
);
note = Icaron;
unicode = 01CF;
},
{
glyphname = Icircumflex;
lastChange = "2015-07-20 05:44:28 +0000";
layers = (
{
layerId = "28A75667-7282-4999-AEF1-C99F5F2E1F18";
name = Regular;
paths = (
{
closed = 1;
nodes = (
"147 0 LINE",
"147 614 LINE",
"84 614 LINE",
"84 0 LINE"
);
},
{
closed = 1;
nodes = (
"114 786 LINE",
"119 786 LINE",
"207 698 LINE",
"247 706 LINE",
"146 839 LINE",
"87 839 LINE",
"-15 706 LINE",
"24 698 LINE"
);
}
);
width = 232;
}
);
note = Icircumflex;
unicode = 00CE;
},
{
glyphname = Idieresis;
lastChange = "2015-07-20 05:44:28 +0000";
layers = (
{
layerId = "28A75667-7282-4999-AEF1-C99F5F2E1F18";
name = Regular;
paths = (
{
closed = 1;
nodes = (
"147 0 LINE",
"147 614 LINE",
"84 614 LINE",
"84 0 LINE"
);
},
{
closed = 1;
nodes = (
"62 701 OFFCURVE",
"76 715 OFFCURVE",
"76 738 CURVE SMOOTH",
"76 762 OFFCURVE",
"62 775 OFFCURVE",
"38 775 CURVE SMOOTH",
"14 775 OFFCURVE",
"-1 762 OFFCURVE",
"-1 738 CURVE SMOOTH",
"-1 715 OFFCURVE",
"14 701 OFFCURVE",
"38 701 CURVE SMOOTH"
);
},
{
closed = 1;
nodes = (
"219 701 OFFCURVE",
"233 715 OFFCURVE",
"233 738 CURVE SMOOTH",
"233 762 OFFCURVE",
"219 775 OFFCURVE",
"195 775 CURVE SMOOTH",
"170 775 OFFCURVE",
"155 762 OFFCURVE",
"155 738 CURVE SMOOTH",
"155 715 OFFCURVE",
"170 701 OFFCURVE",
"195 701 CURVE SMOOTH"
);
}
);
width = 232;
}
);
note = Idieresis;
unicode = 00CF;
},
{
glyphname = Idotaccent;
lastChange = "2015-07-20 05:44:27 +0000";
layers = (
{
layerId = "28A75667-7282-4999-AEF1-C99F5F2E1F18";
name = Regular;
paths = (
{
closed = 1;
nodes = (
"147 0 LINE",
"147 614 LINE",
"84 614 LINE",
"84 0 LINE"
);
},
{
closed = 1;
nodes = (
"148 689 OFFCURVE",
"166 706 OFFCURVE",
"166 736 CURVE SMOOTH",
"166 768 OFFCURVE",
"148 785 OFFCURVE",
"116 785 CURVE SMOOTH",
"85 785 OFFCURVE",
"66 768 OFFCURVE",
"66 736 CURVE SMOOTH",
"66 706 OFFCURVE",
"85 689 OFFCURVE",
"116 689 CURVE SMOOTH"
);
}
);
width = 232;
}
);
note = Idotaccent;
unicode = 0130;
},
{
glyphname = Idotbelow;
lastChange = "2015-07-20 05:44:27 +0000";
layers = (
{
layerId = "28A75667-7282-4999-AEF1-C99F5F2E1F18";
name = Regular;
paths = (
{
closed = 1;
nodes = (
"157 0 LINE",
"157 614 LINE",
"94 614 LINE",
"94 0 LINE"
);
},
{
closed = 1;
nodes = (
"158 -164 OFFCURVE",
"176 -146 OFFCURVE",
"176 -117 CURVE SMOOTH",
"176 -85 OFFCURVE",
"158 -68 OFFCURVE",
"126 -68 CURVE SMOOTH",
"95 -68 OFFCURVE",
"76 -85 OFFCURVE",
"76 -117 CURVE SMOOTH",
"76 -146 OFFCURVE",
"95 -164 OFFCURVE",
"126 -164 CURVE SMOOTH"
);
}
);
width = 252;
}
);
note = Idotbelow;
unicode = 1ECA;
},
{
glyphname = Igrave;
lastChange = "2015-07-20 05:44:28 +0000";
layers = (
{
layerId = "28A75667-7282-4999-AEF1-C99F5F2E1F18";
name = Regular;
paths = (
{
closed = 1;
nodes = (
"147 0 LINE",
"147 614 LINE",
"84 614 LINE",
"84 0 LINE"
);
},
{
closed = 1;
nodes = (
"148 706 LINE",
"64 848 LINE",
"-16 840 LINE",
"102 698 LINE"
);
}
);
width = 232;
}
);
note = Igrave;
unicode = 00CC;
},
{
glyphname = Ihookabove;
lastChange = "2015-07-20 05:44:26 +0000";
layers = (
{
layerId = "28A75667-7282-4999-AEF1-C99F5F2E1F18";
name = Regular;
paths = (
{
closed = 1;
nodes = (
"159 0 LINE",
"159 614 LINE",
"96 614 LINE",
"96 0 LINE"
);
},
{
closed = 1;
nodes = (
"143 706 LINE",
"143 747 LINE",
"197 748 OFFCURVE",
"235 767 OFFCURVE",
"235 821 CURVE SMOOTH",
"235 864 OFFCURVE",
"210 896 OFFCURVE",
"149 896 CURVE SMOOTH",
"122 896 OFFCURVE",
"99 892 OFFCURVE",
"73 881 CURVE",
"86 844 LINE",
"103 851 OFFCURVE",
"123 854 OFFCURVE",
"140 854 CURVE SMOOTH",
"173 854 OFFCURVE",
"186 844 OFFCURVE",
"186 819 CURVE SMOOTH",
"186 787 OFFCURVE",
"161 783 OFFCURVE",
"97 783 CURVE",
"97 755 LINE",
"109 706 LINE"
);
}
);
width = 262;
}
);
note = Ihookabove;
unicode = 1EC8;
},
{
glyphname = Imacron;
lastChange = "2015-07-20 05:44:26 +0000";
layers = (
{
layerId = "28A75667-7282-4999-AEF1-C99F5F2E1F18";
name = Regular;
paths = (
{
closed = 1;
nodes = (
"147 0 LINE",
"147 614 LINE",
"84 614 LINE",
"84 0 LINE"
);
},
{
closed = 1;
nodes = (
"259 706 LINE",
"259 759 LINE",
"-26 759 LINE",
"-26 706 LINE"
);
}
);
width = 232;
}
);
note = Imacron;
unicode = 012A;
},
{
glyphname = Iogonek;
lastChange = "2015-07-20 05:44:28 +0000";
layers = (
{
layerId = "28A75667-7282-4999-AEF1-C99F5F2E1F18";
name = Regular;
paths = (
{
closed = 1;
nodes = (
"147 0 LINE",
"147 614 LINE",
"84 614 LINE",
"84 0 LINE"
);
},
{
closed = 1;
nodes = (
"147 -166 OFFCURVE",
"165 -162 OFFCURVE",
"181 -155 CURVE",
"171 -114 LINE",
"156 -118 OFFCURVE",
"143 -119 OFFCURVE",
"130 -119 CURVE SMOOTH",
"115 -119 OFFCURVE",
"103 -118 OFFCURVE",
"91 -115 CURVE",
"87 -107 OFFCURVE",
"85 -96 OFFCURVE",
"85 -85 CURVE SMOOTH",
"85 -46 OFFCURVE",
"103 -23 OFFCURVE",
"147 0 CURVE",
"101 12 LINE",
"63 -13 OFFCURVE",
"30 -39 OFFCURVE",
"30 -88 CURVE SMOOTH",
"30 -138 OFFCURVE",
"64 -166 OFFCURVE",
"121 -166 CURVE SMOOTH"
);
}
);
width = 232;
}
);
note = Iogonek;
unicode = 012E;
},
{
glyphname = Itilde;
lastChange = "2015-07-20 05:44:26 +0000";
layers = (
{
layerId = "28A75667-7282-4999-AEF1-C99F5F2E1F18";
name = Regular;
paths = (
{
closed = 1;
nodes = (
"147 0 LINE",
"147 614 LINE",
"84 614 LINE",
"84 0 LINE"
);
},
{
closed = 1;
nodes = (
"23 727 OFFCURVE",
"35 748 OFFCURVE",
"63 748 CURVE SMOOTH",
"99 748 OFFCURVE",
"127 699 OFFCURVE",
"175 699 CURVE SMOOTH",
"224 699 OFFCURVE",
"249 731 OFFCURVE",
"253 789 CURVE",
"212 802 LINE",
"208 772 OFFCURVE",
"197 752 OFFCURVE",
"168 752 CURVE SMOOTH",
"134 752 OFFCURVE",
"101 800 OFFCURVE",
"56 800 CURVE SMOOTH",
"7 800 OFFCURVE",
"-18 768 OFFCURVE",
"-22 711 CURVE",
"19 698 LINE"
);
}
);
width = 232;
}
);
note = Itilde;
unicode = 0128;
},
{
glyphname = J;
lastChange = "2015-07-20 09:57:37 +0000";
layers = (
{
layerId = "28A75667-7282-4999-AEF1-C99F5F2E1F18";
name = Regular;
paths = (
{
closed = 1;
nodes = (
"272 -9 OFFCURVE",
"337 35 OFFCURVE",
"337 125 CURVE SMOOTH",
"337 616 LINE",
"274 616 LINE",
"274 128 LINE SMOOTH",
"274 103 OFFCURVE",
"272 86 OFFCURVE",
"266 69 CURVE",
"245 57 OFFCURVE",
"213 48 OFFCURVE",
"169 48 CURVE SMOOTH",
"124 48 OFFCURVE",
"80 58 OFFCURVE",
"46 71 CURVE",
"31 16 LINE",
"68 1 OFFCURVE",
"120 -9 OFFCURVE",
"167 -9 CURVE SMOOTH"
);
}
);
width = 416;
}
);
note = J;
unicode = 004A;
},
{
glyphname = Jcircumflex;
lastChange = "2015-07-20 05:44:27 +0000";
layers = (
{
layerId = "28A75667-7282-4999-AEF1-C99F5F2E1F18";
name = Regular;
paths = (
{
closed = 1;
nodes = (
"272 -9 OFFCURVE",
"337 35 OFFCURVE",
"337 125 CURVE SMOOTH",
"337 616 LINE",
"274 616 LINE",
"274 128 LINE SMOOTH",
"274 103 OFFCURVE",
"272 86 OFFCURVE",
"266 69 CURVE",
"245 57 OFFCURVE",
"213 48 OFFCURVE",
"169 48 CURVE SMOOTH",
"124 48 OFFCURVE",
"80 58 OFFCURVE",
"46 71 CURVE",
"31 16 LINE",
"68 1 OFFCURVE",
"120 -9 OFFCURVE",
"167 -9 CURVE SMOOTH"
);
},
{
closed = 1;
nodes = (
"293 786 LINE",
"299 786 LINE",
"386 697 LINE",
"427 706 LINE",
"326 838 LINE",
"266 838 LINE",
"165 706 LINE",
"204 697 LINE"
);
}
);
width = 416;
}
);
note = Jcircumflex;
unicode = 0134;
},
{
glyphname = K;
lastChange = "2015-07-20 05:44:22 +0000";
layers = (
{
layerId = "28A75667-7282-4999-AEF1-C99F5F2E1F18";
name = Regular;
paths = (
{
closed = 1;
nodes = (
"527 -7 OFFCURVE",
"540 -4 OFFCURVE",
"557 1 CURVE",
"557 37 LINE",
"507 45 LINE",
"420 236 LINE SMOOTH",
"400 280 OFFCURVE",
"382 301 OFFCURVE",
"334 317 CURVE",
"334 323 LINE",
"383 344 OFFCURVE",
"398 369 OFFCURVE",
"417 409 CURVE SMOOTH",
"448 471 OFFCURVE",
"475 530 OFFCURVE",
"504 593 CURVE",
"444 617 LINE",
"416 552 OFFCURVE",
"388 490 OFFCURVE",
"358 427 CURVE SMOOTH",
"338 384 OFFCURVE",
"311 348 OFFCURVE",
"239 348 CURVE SMOOTH",
"145 348 LINE",
"145 614 LINE",
"82 614 LINE",
"82 0 LINE",
"145 0 LINE",
"145 291 LINE",
"244 291 LINE SMOOTH",
"315 291 OFFCURVE",
"341 260 OFFCURVE",
"364 207 CURVE SMOOTH",
"442 32 LINE SMOOTH",
"454 5 OFFCURVE",
"473 -7 OFFCURVE",
"504 -7 CURVE SMOOTH"
);
}
);
width = 589;
}
);
note = K;
unicode = 004B;
},
{
glyphname = Kcommaaccent;
lastChange = "2015-07-20 05:44:26 +0000";
layers = (
{
layerId = "28A75667-7282-4999-AEF1-C99F5F2E1F18";
name = Regular;
paths = (
{
closed = 1;
nodes = (
"527 -7 OFFCURVE",
"540 -4 OFFCURVE",
"557 1 CURVE",
"557 37 LINE",
"507 45 LINE",
"420 236 LINE SMOOTH",
"400 280 OFFCURVE",
"382 301 OFFCURVE",
"334 317 CURVE",
"334 323 LINE",
"383 344 OFFCURVE",
"398 369 OFFCURVE",
"417 409 CURVE SMOOTH",
"448 471 OFFCURVE",
"475 530 OFFCURVE",
"504 593 CURVE",
"444 617 LINE",
"416 552 OFFCURVE",
"388 490 OFFCURVE",
"358 427 CURVE SMOOTH",
"338 384 OFFCURVE",
"311 348 OFFCURVE",
"239 348 CURVE SMOOTH",
"145 348 LINE",
"145 614 LINE",
"82 614 LINE",
"82 0 LINE",
"145 0 LINE",
"145 291 LINE",
"244 291 LINE SMOOTH",
"315 291 OFFCURVE",
"341 260 OFFCURVE",
"364 207 CURVE SMOOTH",
"442 32 LINE SMOOTH",
"454 5 OFFCURVE",
"473 -7 OFFCURVE",
"504 -7 CURVE SMOOTH"
);
},
{
closed = 1;
nodes = (
"330 -211 OFFCURVE",
"348 -167 OFFCURVE",
"348 -124 CURVE SMOOTH",
"348 -80 OFFCURVE",
"328 -58 OFFCURVE",
"287 -58 CURVE SMOOTH",
"272 -58 OFFCURVE",
"257 -60 OFFCURVE",
"244 -65 CURVE",
"244 -108 LINE",
"298 -108 LINE",
"298 -159 OFFCURVE",
"285 -198 OFFCURVE",
"263 -238 CURVE",
"301 -247 LINE"
);
}
);
width = 589;
}
);
note = Kcommaaccent;
unicode = 0136;
},
{
glyphname = L;
lastChange = "2015-07-20 09:26:34 +0000";
layers = (
{
layerId = "28A75667-7282-4999-AEF1-C99F5F2E1F18";
name = Regular;
paths = (
{
closed = 1;
nodes = (
"427 0 LINE",
"427 58 LINE",
"145 58 LINE",
"145 614 LINE",
"82 614 LINE",
"82 0 LINE"
);
}
);
width = 456;
}
);
note = L;
rightKerningGroup = L;
unicode = 004C;
},
{
glyphname = Lacute;
lastChange = "2015-07-20 09:26:34 +0000";
layers = (
{
layerId = "28A75667-7282-4999-AEF1-C99F5F2E1F18";
name = Regular;
paths = (
{
closed = 1;
nodes = (
"427 0 LINE",
"427 58 LINE",
"145 58 LINE",
"145 614 LINE",
"82 614 LINE",
"82 0 LINE"
);
},
{
closed = 1;
nodes = (
"247 839 LINE",
"166 847 LINE",
"83 705 LINE",
"128 697 LINE"
);
}
);
width = 456;
}
);
note = Lacute;
rightKerningGroup = L;
unicode = 0139;
},
{
glyphname = Lcaron;
lastChange = "2015-07-20 09:26:34 +0000";
layers = (
{
layerId = "28A75667-7282-4999-AEF1-C99F5F2E1F18";
name = Regular;
paths = (
{
closed = 1;
nodes = (
"427 0 LINE",
"427 58 LINE",
"145 58 LINE",
"145 614 LINE",
"82 614 LINE",
"82 0 LINE"
);
},
{
closed = 1;
nodes = (
"328 463 OFFCURVE",
"346 507 OFFCURVE",
"346 550 CURVE SMOOTH",
"346 594 OFFCURVE",
"326 616 OFFCURVE",
"285 616 CURVE SMOOTH",
"270 616 OFFCURVE",
"255 614 OFFCURVE",
"242 609 CURVE",
"242 566 LINE",
"296 566 LINE",
"296 515 OFFCURVE",
"283 476 OFFCURVE",
"261 436 CURVE",
"299 427 LINE"
);
}
);
width = 456;
}
);
note = Lcaron;
rightKerningGroup = L;
unicode = 013D;
},
{
glyphname = Lcommaaccent;
lastChange = "2015-07-20 09:26:34 +0000";
layers = (
{
layerId = "28A75667-7282-4999-AEF1-C99F5F2E1F18";
name = Regular;
paths = (
{
closed = 1;
nodes = (
"427 0 LINE",
"427 58 LINE",
"145 58 LINE",
"145 614 LINE",
"82 614 LINE",
"82 0 LINE"
);
},
{
closed = 1;
nodes = (
"299 -211 OFFCURVE",
"317 -167 OFFCURVE",
"317 -124 CURVE SMOOTH",
"317 -80 OFFCURVE",
"297 -58 OFFCURVE",
"256 -58 CURVE SMOOTH",
"241 -58 OFFCURVE",
"226 -60 OFFCURVE",
"213 -65 CURVE",
"213 -108 LINE",
"267 -108 LINE",
"267 -159 OFFCURVE",
"254 -198 OFFCURVE",
"232 -238 CURVE",
"270 -247 LINE"
);
}
);
width = 456;
}
);
note = Lcommaaccent;
rightKerningGroup = L;
unicode = 013B;
},
{
glyphname = Ldot;
lastChange = "2015-07-20 09:26:34 +0000";
layers = (
{
layerId = "28A75667-7282-4999-AEF1-C99F5F2E1F18";
name = Regular;
paths = (
{
closed = 1;
nodes = (
"427 0 LINE",
"427 58 LINE",
"145 58 LINE",
"145 614 LINE",
"82 614 LINE",
"82 0 LINE"
);
},
{
closed = 1;
nodes = (
"317 238 OFFCURVE",
"337 257 OFFCURVE",
"337 286 CURVE SMOOTH",
"337 314 OFFCURVE",
"316 334 OFFCURVE",
"288 334 CURVE SMOOTH",
"260 334 OFFCURVE",
"238 314 OFFCURVE",
"238 286 CURVE SMOOTH",
"238 257 OFFCURVE",
"259 238 OFFCURVE",
"288 238 CURVE SMOOTH"
);
}
);
width = 456;
}
);
note = Ldot;
rightKerningGroup = L;
unicode = 013F;
},
{
glyphname = Ldotbelow;
lastChange = "2015-07-20 09:26:34 +0000";
layers = (
{
layerId = "28A75667-7282-4999-AEF1-C99F5F2E1F18";
name = Regular;
paths = (
{
closed = 1;
nodes = (
"427 0 LINE",
"427 58 LINE",
"145 58 LINE",
"145 614 LINE",
"82 614 LINE",
"82 0 LINE"
);
},
{
closed = 1;
nodes = (
"288 -159 OFFCURVE",
"306 -141 OFFCURVE",
"306 -112 CURVE SMOOTH",
"306 -80 OFFCURVE",
"288 -63 OFFCURVE",
"256 -63 CURVE SMOOTH",
"225 -63 OFFCURVE",
"206 -80 OFFCURVE",
"206 -112 CURVE SMOOTH",
"206 -141 OFFCURVE",
"225 -159 OFFCURVE",
"256 -159 CURVE SMOOTH"
);
}
);
width = 456;
}
);
note = Ldotbelow;
rightKerningGroup = L;
unicode = 1E36;
},
{
glyphname = Ldotbelowmacron;
lastChange = "2015-07-20 09:26:34 +0000";
layers = (
{
layerId = "28A75667-7282-4999-AEF1-C99F5F2E1F18";
name = Regular;
paths = (
{
closed = 1;
nodes = (
"437 0 LINE",
"437 58 LINE",
"155 58 LINE",
"155 614 LINE",
"92 614 LINE",
"92 0 LINE"
);
},
{
closed = 1;
nodes = (
"296 -159 OFFCURVE",
"314 -141 OFFCURVE",
"314 -112 CURVE SMOOTH",
"314 -80 OFFCURVE",
"296 -63 OFFCURVE",
"264 -63 CURVE SMOOTH",
"233 -63 OFFCURVE",
"214 -80 OFFCURVE",
"214 -112 CURVE SMOOTH",
"214 -141 OFFCURVE",
"233 -159 OFFCURVE",
"264 -159 CURVE SMOOTH"
);
},
{
closed = 1;
nodes = (
"269 706 LINE",
"269 759 LINE",
"-17 759 LINE",
"-17 706 LINE"
);
}
);
width = 466;
}
);
note = Ldotbelowmacron;
rightKerningGroup = L;
unicode = 1E38;
},
{
glyphname = Llinebelow;
lastChange = "2015-07-20 09:26:34 +0000";
layers = (
{
layerId = "28A75667-7282-4999-AEF1-C99F5F2E1F18";
name = Regular;
paths = (
{
closed = 1;
nodes = (
"427 0 LINE",
"427 58 LINE",
"145 58 LINE",
"145 614 LINE",
"82 614 LINE",
"82 0 LINE"
);
},
{
closed = 1;
nodes = (
"387 -128 LINE",
"387 -71 LINE",
"82 -71 LINE",
"82 -128 LINE"
);
}
);
width = 456;
}
);
note = Llinebelow;
rightKerningGroup = L;
unicode = 1E3A;
},
{
glyphname = Lslash;
lastChange = "2015-07-20 09:26:34 +0000";
layers = (
{
layerId = "28A75667-7282-4999-AEF1-C99F5F2E1F18";
name = Regular;
paths = (
{
closed = 1;
nodes = (
"448 0 LINE",
"448 58 LINE",
"175 58 LINE",
"175 283 LINE",
"304 324 LINE",
"289 372 LINE",
"175 335 LINE",
"175 614 LINE",
"112 614 LINE",
"112 315 LINE",
"6 281 LINE",
"21 233 LINE",
"112 263 LINE",
"112 0 LINE"
);
}
);
width = 478;
}
);
note = Lslash;
rightKerningGroup = L;
unicode = 0141;
},
{
glyphname = M;
lastChange = "2015-07-20 05:44:22 +0000";
layers = (
{
layerId = "28A75667-7282-4999-AEF1-C99F5F2E1F18";
name = Regular;
paths = (
{
closed = 1;
nodes = (
"137 0 LINE",
"151 319 LINE",
"154 499 LINE",
"161 501 LINE",
"314 187 LINE",
"368 187 LINE",
"521 501 LINE",
"528 499 LINE",
"532 319 LINE",
"546 0 LINE",
"609 0 LINE",
"582 614 LINE",
"514 614 LINE",
"345 252 LINE",
"338 252 LINE",
"168 614 LINE",
"101 614 LINE",
"73 0 LINE"
);
}
);
width = 682;
}
);
note = M;
unicode = 004D;
},
{
glyphname = Mdotbelow;
lastChange = "2015-07-20 05:44:26 +0000";
layers = (
{
layerId = "28A75667-7282-4999-AEF1-C99F5F2E1F18";
name = Regular;
paths = (
{
closed = 1;
nodes = (
"138 0 LINE",
"152 319 LINE",
"155 499 LINE",
"162 501 LINE",
"315 187 LINE",
"369 187 LINE",
"522 501 LINE",
"529 499 LINE",
"533 319 LINE",
"547 0 LINE",
"610 0 LINE",
"583 614 LINE",
"515 614 LINE",
"346 252 LINE",
"339 252 LINE",
"169 614 LINE",
"102 614 LINE",
"74 0 LINE"
);
},
{
closed = 1;
nodes = (
"374 -159 OFFCURVE",
"392 -141 OFFCURVE",
"392 -112 CURVE SMOOTH",
"392 -80 OFFCURVE",
"374 -63 OFFCURVE",
"342 -63 CURVE SMOOTH",
"311 -63 OFFCURVE",
"292 -80 OFFCURVE",
"292 -112 CURVE SMOOTH",
"292 -141 OFFCURVE",
"311 -159 OFFCURVE",
"342 -159 CURVE SMOOTH"
);
}
);
width = 685;
}
);
note = Mdotbelow;
unicode = 1E42;
},
{
glyphname = N;
lastChange = "2015-07-20 05:44:22 +0000";
layers = (
{
layerId = "28A75667-7282-4999-AEF1-C99F5F2E1F18";
name = Regular;
paths = (
{
closed = 1;
nodes = (
"145 0 LINE",
"145 326 LINE",
"137 516 LINE",
"144 518 LINE",
"464 0 LINE",
"535 0 LINE",
"535 614 LINE",
"472 614 LINE",
"472 288 LINE",
"481 98 LINE",
"473 96 LINE",
"153 614 LINE",
"82 614 LINE",
"82 0 LINE"
);
}
);
width = 617;
}
);
note = N;
unicode = 004E;
},
{
glyphname = Nacute;
lastChange = "2015-07-20 05:44:27 +0000";
layers = (
{
layerId = "28A75667-7282-4999-AEF1-C99F5F2E1F18";
name = Regular;
paths = (
{
closed = 1;
nodes = (
"144 0 LINE",
"144 326 LINE",
"136 516 LINE",
"143 518 LINE",
"463 0 LINE",
"534 0 LINE",
"534 614 LINE",
"471 614 LINE",
"471 288 LINE",
"480 98 LINE",
"472 96 LINE",
"152 614 LINE",
"81 614 LINE",
"81 0 LINE"
);
},
{
closed = 1;
nodes = (
"439 839 LINE",
"358 848 LINE",
"275 705 LINE",
"320 698 LINE"
);
}
);
width = 616;
}
);
note = Nacute;
unicode = 0143;
},
{
glyphname = Ncaron;
lastChange = "2015-07-20 05:44:27 +0000";
layers = (
{
layerId = "28A75667-7282-4999-AEF1-C99F5F2E1F18";
name = Regular;
paths = (
{
closed = 1;
nodes = (
"144 0 LINE",
"144 326 LINE",
"136 516 LINE",
"143 518 LINE",
"463 0 LINE",
"534 0 LINE",
"534 614 LINE",
"471 614 LINE",
"471 288 LINE",
"480 98 LINE",
"472 96 LINE",
"152 614 LINE",
"81 614 LINE",
"81 0 LINE"
);
},
{
closed = 1;
nodes = (
"350 706 LINE",
"451 839 LINE",
"410 847 LINE",
"323 759 LINE",
"317 759 LINE",
"228 847 LINE",
"189 839 LINE",
"290 706 LINE"
);
}
);
width = 616;
}
);
note = Ncaron;
unicode = 0147;
},
{
glyphname = Ncommaaccent;
lastChange = "2015-07-20 05:44:28 +0000";
layers = (
{
layerId = "28A75667-7282-4999-AEF1-C99F5F2E1F18";
name = Regular;
paths = (
{
closed = 1;
nodes = (
"144 0 LINE",
"144 326 LINE",
"136 516 LINE",
"143 518 LINE",
"463 0 LINE",
"534 0 LINE",
"534 614 LINE",
"471 614 LINE",
"471 288 LINE",
"480 98 LINE",
"472 96 LINE",
"152 614 LINE",
"81 614 LINE",
"81 0 LINE"
);
},
{
closed = 1;
nodes = (
"359 -211 OFFCURVE",
"377 -167 OFFCURVE",
"377 -124 CURVE SMOOTH",
"377 -80 OFFCURVE",
"357 -58 OFFCURVE",
"316 -58 CURVE SMOOTH",
"301 -58 OFFCURVE",
"286 -60 OFFCURVE",
"273 -65 CURVE",
"273 -108 LINE",
"327 -108 LINE",
"327 -159 OFFCURVE",
"314 -198 OFFCURVE",
"292 -238 CURVE",
"330 -247 LINE"
);
}
);
width = 616;
}
);
note = Ncommaaccent;
unicode = 0145;
},
{
glyphname = Ndotaccent;
lastChange = "2015-07-20 05:44:28 +0000";
layers = (
{
layerId = "28A75667-7282-4999-AEF1-C99F5F2E1F18";
name = Regular;
paths = (
{
closed = 1;
nodes = (
"144 0 LINE",
"144 326 LINE",
"136 516 LINE",
"143 518 LINE",
"463 0 LINE",
"534 0 LINE",
"534 614 LINE",
"471 614 LINE",
"471 288 LINE",
"480 98 LINE",
"472 96 LINE",
"152 614 LINE",
"81 614 LINE",
"81 0 LINE"
);
},
{
closed = 1;
nodes = (
"351 701 OFFCURVE",
"369 719 OFFCURVE",
"369 748 CURVE SMOOTH",
"369 780 OFFCURVE",
"351 797 OFFCURVE",
"319 797 CURVE SMOOTH",
"288 797 OFFCURVE",
"269 780 OFFCURVE",
"269 748 CURVE SMOOTH",
"269 719 OFFCURVE",
"288 701 OFFCURVE",
"319 701 CURVE SMOOTH"
);
}
);
width = 616;
}
);
note = Ndotaccent;
unicode = 1E44;
},
{
glyphname = Ndotbelow;
lastChange = "2015-07-20 05:44:28 +0000";
layers = (
{
layerId = "28A75667-7282-4999-AEF1-C99F5F2E1F18";
name = Regular;
paths = (
{
closed = 1;
nodes = (
"144 0 LINE",
"144 326 LINE",
"136 516 LINE",
"143 518 LINE",
"463 0 LINE",
"534 0 LINE",
"534 614 LINE",
"471 614 LINE",
"471 288 LINE",
"480 98 LINE",
"472 96 LINE",
"152 614 LINE",
"81 614 LINE",
"81 0 LINE"
);
},
{
closed = 1;
nodes = (
"349 -159 OFFCURVE",
"367 -141 OFFCURVE",
"367 -112 CURVE SMOOTH",
"367 -80 OFFCURVE",
"349 -63 OFFCURVE",
"317 -63 CURVE SMOOTH",
"286 -63 OFFCURVE",
"267 -80 OFFCURVE",
"267 -112 CURVE SMOOTH",
"267 -141 OFFCURVE",
"286 -159 OFFCURVE",
"317 -159 CURVE SMOOTH"
);
}
);
width = 616;
}
);
note = Ndotbelow;
unicode = 1E46;
},
{
glyphname = Eng;
lastChange = "2015-07-20 05:44:23 +0000";
layers = (
{
layerId = "28A75667-7282-4999-AEF1-C99F5F2E1F18";
name = Regular;
paths = (
{
closed = 1;
nodes = (
"494 -182 OFFCURVE",
"534 -130 OFFCURVE",
"534 -30 CURVE SMOOTH",
"534 614 LINE",
"471 614 LINE",
"471 288 LINE",
"480 98 LINE",
"472 96 LINE",
"152 614 LINE",
"81 614 LINE",
"81 0 LINE",
"144 0 LINE",
"144 326 LINE",
"136 516 LINE",
"143 518 LINE",
"467 0 LINE",
"467 -46 LINE SMOOTH",
"467 -74 OFFCURVE",
"465 -96 OFFCURVE",
"460 -116 CURVE",
"430 -136 OFFCURVE",
"391 -150 OFFCURVE",
"346 -162 CURVE",
"375 -225 LINE"
);
}
);
width = 616;
}
);
note = Eng;
unicode = 014A;
},
{
glyphname = Nlinebelow;
lastChange = "2015-07-20 05:44:26 +0000";
layers = (
{
layerId = "28A75667-7282-4999-AEF1-C99F5F2E1F18";
name = Regular;
paths = (
{
closed = 1;
nodes = (
"144 0 LINE",
"144 326 LINE",
"136 516 LINE",
"143 518 LINE",
"463 0 LINE",
"534 0 LINE",
"534 614 LINE",
"471 614 LINE",
"471 288 LINE",
"480 98 LINE",
"472 96 LINE",
"152 614 LINE",
"81 614 LINE",
"81 0 LINE"
);
},
{
closed = 1;
nodes = (
"499 -128 LINE",
"499 -71 LINE",
"194 -71 LINE",
"194 -128 LINE"
);
}
);
width = 616;
}
);
note = Nlinebelow;
unicode = 1E48;
},
{
glyphname = Ntilde;
lastChange = "2015-07-20 05:44:28 +0000";
layers = (
{
layerId = "28A75667-7282-4999-AEF1-C99F5F2E1F18";
name = Regular;
paths = (
{
closed = 1;
nodes = (
"144 0 LINE",
"144 326 LINE",
"136 516 LINE",
"143 518 LINE",
"463 0 LINE",
"534 0 LINE",
"534 614 LINE",
"471 614 LINE",
"471 288 LINE",
"480 98 LINE",
"472 96 LINE",
"152 614 LINE",
"81 614 LINE",
"81 0 LINE"
);
},
{
closed = 1;
nodes = (
"216 726 OFFCURVE",
"227 746 OFFCURVE",
"256 746 CURVE SMOOTH",
"291 746 OFFCURVE",
"320 698 OFFCURVE",
"368 698 CURVE SMOOTH",
"417 698 OFFCURVE",
"442 730 OFFCURVE",
"446 788 CURVE",
"405 801 LINE",
"401 771 OFFCURVE",
"389 751 OFFCURVE",
"361 751 CURVE SMOOTH",
"327 751 OFFCURVE",
"293 799 OFFCURVE",
"249 799 CURVE SMOOTH",
"200 799 OFFCURVE",
"175 767 OFFCURVE",
"171 709 CURVE",
"212 696 LINE"
);
}
);
width = 616;
}
);
note = Ntilde;
unicode = 00D1;
},
{
glyphname = O;
lastChange = "2015-07-20 09:52:59 +0000";
layers = (
{
layerId = "28A75667-7282-4999-AEF1-C99F5F2E1F18";
name = Regular;
paths = (
{
closed = 1;
nodes = (
"489 -9 OFFCURVE",
"553 111 OFFCURVE",
"553 317 CURVE SMOOTH",
"553 518 OFFCURVE",
"480 624 OFFCURVE",
"314 624 CURVE SMOOTH",
"121 624 OFFCURVE",
"57 504 OFFCURVE",
"57 297 CURVE SMOOTH",
"57 96 OFFCURVE",
"134 -9 OFFCURVE",
"296 -9 CURVE SMOOTH"
);
},
{
closed = 1;
nodes = (
"167 50 OFFCURVE",
"120 134 OFFCURVE",
"120 311 CURVE SMOOTH",
"120 406 OFFCURVE",
"140 484 OFFCURVE",
"172 541 CURVE",
"201 556 OFFCURVE",
"253 565 OFFCURVE",
"300 565 CURVE SMOOTH",
"443 565 OFFCURVE",
"490 480 OFFCURVE",
"490 303 CURVE SMOOTH",
"490 208 OFFCURVE",
"466 129 OFFCURVE",
"435 73 CURVE",
"406 59 OFFCURVE",
"357 50 OFFCURVE",
"310 50 CURVE SMOOTH"
);
}
);
width = 610;
}
);
leftKerningGroup = O;
note = O;
rightKerningGroup = O;
unicode = 004F;
},
{
glyphname = Oacute;
lastChange = "2015-07-20 09:26:44 +0000";
layers = (
{
layerId = "28A75667-7282-4999-AEF1-C99F5F2E1F18";
name = Regular;
paths = (
{
closed = 1;
nodes = (
"489 -9 OFFCURVE",
"553 111 OFFCURVE",
"553 317 CURVE SMOOTH",
"553 518 OFFCURVE",
"480 624 OFFCURVE",
"314 624 CURVE SMOOTH",
"121 624 OFFCURVE",
"57 504 OFFCURVE",
"57 297 CURVE SMOOTH",
"57 96 OFFCURVE",
"134 -9 OFFCURVE",
"296 -9 CURVE SMOOTH"
);
},
{
closed = 1;
nodes = (
"167 50 OFFCURVE",
"120 134 OFFCURVE",
"120 311 CURVE SMOOTH",
"120 406 OFFCURVE",
"140 484 OFFCURVE",
"172 541 CURVE",
"201 556 OFFCURVE",
"253 565 OFFCURVE",
"300 565 CURVE SMOOTH",
"443 565 OFFCURVE",
"490 480 OFFCURVE",
"490 303 CURVE SMOOTH",
"490 208 OFFCURVE",
"466 129 OFFCURVE",
"435 73 CURVE",
"406 59 OFFCURVE",
"357 50 OFFCURVE",
"310 50 CURVE SMOOTH"
);
},
{
closed = 1;
nodes = (
"443 839 LINE",
"362 848 LINE",
"279 705 LINE",
"324 698 LINE"
);
}
);
width = 610;
}
);
leftKerningGroup = O;
note = Oacute;
rightKerningGroup = O;
unicode = 00D3;
},
{
glyphname = Obreve;
lastChange = "2015-07-20 09:26:44 +0000";
layers = (
{
layerId = "28A75667-7282-4999-AEF1-C99F5F2E1F18";
name = Regular;
paths = (
{
closed = 1;
nodes = (
"489 -9 OFFCURVE",
"553 111 OFFCURVE",
"553 317 CURVE SMOOTH",
"553 518 OFFCURVE",
"480 624 OFFCURVE",
"314 624 CURVE SMOOTH",
"121 624 OFFCURVE",
"57 504 OFFCURVE",
"57 297 CURVE SMOOTH",
"57 96 OFFCURVE",
"134 -9 OFFCURVE",
"296 -9 CURVE SMOOTH"
);
},
{
closed = 1;
nodes = (
"167 50 OFFCURVE",
"120 134 OFFCURVE",
"120 311 CURVE SMOOTH",
"120 406 OFFCURVE",
"140 484 OFFCURVE",
"172 541 CURVE",
"201 556 OFFCURVE",
"253 565 OFFCURVE",
"300 565 CURVE SMOOTH",
"443 565 OFFCURVE",
"490 480 OFFCURVE",
"490 303 CURVE SMOOTH",
"490 208 OFFCURVE",
"466 129 OFFCURVE",
"435 73 CURVE",
"406 59 OFFCURVE",
"357 50 OFFCURVE",
"310 50 CURVE SMOOTH"
);
},
{
closed = 1;
nodes = (
"385 701 OFFCURVE",
"422 745 OFFCURVE",
"432 807 CURVE",
"373 817 LINE",
"368 777 OFFCURVE",
"355 751 OFFCURVE",
"305 751 CURVE SMOOTH",
"254 751 OFFCURVE",
"241 777 OFFCURVE",
"236 817 CURVE",
"177 807 LINE",
"187 745 OFFCURVE",
"224 701 OFFCURVE",
"305 701 CURVE SMOOTH"
);
}
);
width = 610;
}
);
leftKerningGroup = O;
note = Obreve;
rightKerningGroup = O;
unicode = 014E;
},
{
glyphname = Ocaron;
lastChange = "2015-07-20 09:26:44 +0000";
layers = (
{
layerId = "28A75667-7282-4999-AEF1-C99F5F2E1F18";
name = Regular;
paths = (
{
closed = 1;
nodes = (
"489 -9 OFFCURVE",
"553 111 OFFCURVE",
"553 317 CURVE SMOOTH",
"553 518 OFFCURVE",
"480 624 OFFCURVE",
"314 624 CURVE SMOOTH",
"121 624 OFFCURVE",
"57 504 OFFCURVE",
"57 297 CURVE SMOOTH",
"57 96 OFFCURVE",
"134 -9 OFFCURVE",
"296 -9 CURVE SMOOTH"
);
},
{
closed = 1;
nodes = (
"167 50 OFFCURVE",
"120 134 OFFCURVE",
"120 311 CURVE SMOOTH",
"120 406 OFFCURVE",
"140 484 OFFCURVE",
"172 541 CURVE",
"201 556 OFFCURVE",
"253 565 OFFCURVE",
"300 565 CURVE SMOOTH",
"443 565 OFFCURVE",
"490 480 OFFCURVE",
"490 303 CURVE SMOOTH",
"490 208 OFFCURVE",
"466 129 OFFCURVE",
"435 73 CURVE",
"406 59 OFFCURVE",
"357 50 OFFCURVE",
"310 50 CURVE SMOOTH"
);
},
{
closed = 1;
nodes = (
"337 706 LINE",
"438 839 LINE",
"397 847 LINE",
"310 759 LINE",
"304 759 LINE",
"215 847 LINE",
"176 839 LINE",
"277 706 LINE"
);
}
);
width = 610;
}
);
leftKerningGroup = O;
note = Ocaron;
rightKerningGroup = O;
unicode = 01D1;
},
{
glyphname = Ocircumflex;
lastChange = "2015-07-20 09:26:44 +0000";
layers = (
{
layerId = "28A75667-7282-4999-AEF1-C99F5F2E1F18";
name = Regular;
paths = (
{
closed = 1;
nodes = (
"489 -9 OFFCURVE",
"553 111 OFFCURVE",
"553 317 CURVE SMOOTH",
"553 518 OFFCURVE",
"480 624 OFFCURVE",
"314 624 CURVE SMOOTH",
"121 624 OFFCURVE",
"57 504 OFFCURVE",
"57 297 CURVE SMOOTH",
"57 96 OFFCURVE",
"134 -9 OFFCURVE",
"296 -9 CURVE SMOOTH"
);
},
{
closed = 1;
nodes = (
"167 50 OFFCURVE",
"120 134 OFFCURVE",
"120 311 CURVE SMOOTH",
"120 406 OFFCURVE",
"140 484 OFFCURVE",
"172 541 CURVE",
"201 556 OFFCURVE",
"253 565 OFFCURVE",
"300 565 CURVE SMOOTH",
"443 565 OFFCURVE",
"490 480 OFFCURVE",
"490 303 CURVE SMOOTH",
"490 208 OFFCURVE",
"466 129 OFFCURVE",
"435 73 CURVE",
"406 59 OFFCURVE",
"357 50 OFFCURVE",
"310 50 CURVE SMOOTH"
);
},
{
closed = 1;
nodes = (
"309 786 LINE",
"315 786 LINE",
"402 697 LINE",
"443 706 LINE",
"342 838 LINE",
"282 838 LINE",
"181 706 LINE",
"220 697 LINE"
);
}
);
width = 610;
}
);
leftKerningGroup = O;
note = Ocircumflex;
rightKerningGroup = O;
unicode = 00D4;
},
{
glyphname = Ocircumflexacute;
lastChange = "2015-07-20 09:26:44 +0000";
layers = (
{
layerId = "28A75667-7282-4999-AEF1-C99F5F2E1F18";
name = Regular;
paths = (
{
closed = 1;
nodes = (
"489 -9 OFFCURVE",
"553 111 OFFCURVE",
"553 317 CURVE SMOOTH",
"553 518 OFFCURVE",
"480 624 OFFCURVE",
"314 624 CURVE SMOOTH",
"121 624 OFFCURVE",
"57 504 OFFCURVE",
"57 297 CURVE SMOOTH",
"57 96 OFFCURVE",
"134 -9 OFFCURVE",
"296 -9 CURVE SMOOTH"
);
},
{
closed = 1;
nodes = (
"167 50 OFFCURVE",
"120 134 OFFCURVE",
"120 311 CURVE SMOOTH",
"120 406 OFFCURVE",
"140 484 OFFCURVE",
"172 541 CURVE",
"201 556 OFFCURVE",
"253 565 OFFCURVE",
"300 565 CURVE SMOOTH",
"443 565 OFFCURVE",
"490 480 OFFCURVE",
"490 303 CURVE SMOOTH",
"490 208 OFFCURVE",
"466 129 OFFCURVE",
"435 73 CURVE",
"406 59 OFFCURVE",
"357 50 OFFCURVE",
"310 50 CURVE SMOOTH"
);
},
{
closed = 1;
nodes = (
"309 786 LINE",
"315 786 LINE",
"402 698 LINE",
"443 706 LINE",
"342 839 LINE",
"282 839 LINE",
"181 706 LINE",
"220 698 LINE"
);
},
{
closed = 1;
nodes = (
"557 891 LINE",
"499 901 LINE",
"438 796 LINE",
"476 787 LINE"
);
}
);
width = 611;
}
);
leftKerningGroup = O;
note = Ocircumflexacute;
rightKerningGroup = O;
unicode = 1ED0;
},
{
glyphname = Ocircumflexdotbelow;
lastChange = "2015-07-20 09:26:44 +0000";
layers = (
{
layerId = "28A75667-7282-4999-AEF1-C99F5F2E1F18";
name = Regular;
paths = (
{
closed = 1;
nodes = (
"489 -9 OFFCURVE",
"553 111 OFFCURVE",
"553 317 CURVE SMOOTH",
"553 518 OFFCURVE",
"480 624 OFFCURVE",
"314 624 CURVE SMOOTH",
"121 624 OFFCURVE",
"57 504 OFFCURVE",
"57 297 CURVE SMOOTH",
"57 96 OFFCURVE",
"134 -9 OFFCURVE",
"296 -9 CURVE SMOOTH"
);
},
{
closed = 1;
nodes = (
"343 -164 OFFCURVE",
"361 -146 OFFCURVE",
"361 -117 CURVE SMOOTH",
"361 -85 OFFCURVE",
"343 -68 OFFCURVE",
"311 -68 CURVE SMOOTH",
"280 -68 OFFCURVE",
"261 -85 OFFCURVE",
"261 -117 CURVE SMOOTH",
"261 -146 OFFCURVE",
"280 -164 OFFCURVE",
"311 -164 CURVE SMOOTH"
);
},
{
closed = 1;
nodes = (
"167 50 OFFCURVE",
"120 134 OFFCURVE",
"120 311 CURVE SMOOTH",
"120 406 OFFCURVE",
"140 484 OFFCURVE",
"172 541 CURVE",
"201 556 OFFCURVE",
"253 565 OFFCURVE",
"300 565 CURVE SMOOTH",
"443 565 OFFCURVE",
"490 480 OFFCURVE",
"490 303 CURVE SMOOTH",
"490 208 OFFCURVE",
"466 129 OFFCURVE",
"435 73 CURVE",
"406 59 OFFCURVE",
"357 50 OFFCURVE",
"310 50 CURVE SMOOTH"
);
},
{
closed = 1;
nodes = (
"308 786 LINE",
"314 786 LINE",
"401 698 LINE",
"442 706 LINE",
"341 839 LINE",
"281 839 LINE",
"180 706 LINE",
"219 698 LINE"
);
}
);
width = 610;
}
);
leftKerningGroup = O;
note = Ocircumflexdotbelow;
rightKerningGroup = O;
unicode = 1ED8;
},
{
glyphname = Ocircumflexgrave;
lastChange = "2015-07-20 09:26:44 +0000";
layers = (
{
layerId = "28A75667-7282-4999-AEF1-C99F5F2E1F18";
name = Regular;
paths = (
{
closed = 1;
nodes = (
"486 -9 OFFCURVE",
"550 111 OFFCURVE",
"550 317 CURVE SMOOTH",
"550 518 OFFCURVE",
"477 624 OFFCURVE",
"311 624 CURVE SMOOTH",
"118 624 OFFCURVE",
"54 504 OFFCURVE",
"54 297 CURVE SMOOTH",
"54 96 OFFCURVE",
"131 -9 OFFCURVE",
"293 -9 CURVE SMOOTH"
);
},
{
closed = 1;
nodes = (
"164 50 OFFCURVE",
"117 134 OFFCURVE",
"117 311 CURVE SMOOTH",
"117 406 OFFCURVE",
"137 484 OFFCURVE",
"169 541 CURVE",
"198 556 OFFCURVE",
"250 565 OFFCURVE",
"297 565 CURVE SMOOTH",
"440 565 OFFCURVE",
"487 480 OFFCURVE",
"487 303 CURVE SMOOTH",
"487 208 OFFCURVE",
"463 129 OFFCURVE",
"432 73 CURVE",
"403 59 OFFCURVE",
"354 50 OFFCURVE",
"307 50 CURVE SMOOTH"
);
},
{
closed = 1;
nodes = (
"178 795 LINE",
"118 900 LINE",
"59 890 LINE",
"140 786 LINE"
);
},
{
closed = 1;
nodes = (
"301 785 LINE",
"306 785 LINE",
"396 697 LINE",
"435 705 LINE",
"333 838 LINE",
"274 838 LINE",
"173 705 LINE",
"213 697 LINE"
);
}
);
width = 607;
}
);
leftKerningGroup = O;
note = Ocircumflexgrave;
rightKerningGroup = O;
unicode = 1ED2;
},
{
glyphname = Ocircumflexhookabove;
lastChange = "2015-07-20 09:26:44 +0000";
layers = (
{
layerId = "28A75667-7282-4999-AEF1-C99F5F2E1F18";
name = Regular;
paths = (
{
closed = 1;
nodes = (
"489 -9 OFFCURVE",
"553 111 OFFCURVE",
"553 317 CURVE SMOOTH",
"553 518 OFFCURVE",
"480 624 OFFCURVE",
"314 624 CURVE SMOOTH",
"121 624 OFFCURVE",
"57 504 OFFCURVE",
"57 297 CURVE SMOOTH",
"57 96 OFFCURVE",
"134 -9 OFFCURVE",
"296 -9 CURVE SMOOTH"
);
},
{
closed = 1;
nodes = (
"167 50 OFFCURVE",
"120 134 OFFCURVE",
"120 311 CURVE SMOOTH",
"120 406 OFFCURVE",
"140 484 OFFCURVE",
"172 541 CURVE",
"201 556 OFFCURVE",
"253 565 OFFCURVE",
"300 565 CURVE SMOOTH",
"443 565 OFFCURVE",
"490 480 OFFCURVE",
"490 303 CURVE SMOOTH",
"490 208 OFFCURVE",
"466 129 OFFCURVE",
"435 73 CURVE",
"406 59 OFFCURVE",
"357 50 OFFCURVE",
"310 50 CURVE SMOOTH"
);
},
{
closed = 1;
nodes = (
"306 786 LINE",
"312 786 LINE",
"399 697 LINE",
"440 706 LINE",
"339 838 LINE",
"279 838 LINE",
"178 706 LINE",
"217 697 LINE"
);
},
{
closed = 1;
nodes = (
"466 806 LINE",
"466 840 LINE",
"506 841 OFFCURVE",
"528 858 OFFCURVE",
"528 893 CURVE SMOOTH",
"528 929 OFFCURVE",
"509 949 OFFCURVE",
"465 949 CURVE SMOOTH",
"446 949 OFFCURVE",
"429 945 OFFCURVE",
"410 938 CURVE",
"419 906 LINE",
"432 912 OFFCURVE",
"446 914 OFFCURVE",
"459 914 CURVE SMOOTH",
"480 914 OFFCURVE",
"488 908 OFFCURVE",
"488 892 CURVE SMOOTH",
"488 875 OFFCURVE",
"473 869 OFFCURVE",
"428 869 CURVE",
"428 844 LINE",
"437 806 LINE"
);
}
);
width = 599;
}
);
leftKerningGroup = O;
note = Ocircumflexhookabove;
rightKerningGroup = O;
unicode = 1ED4;
},
{
glyphname = Ocircumflextilde;
lastChange = "2015-07-20 09:26:44 +0000";
layers = (
{
layerId = "28A75667-7282-4999-AEF1-C99F5F2E1F18";
name = Regular;
paths = (
{
closed = 1;
nodes = (
"489 -9 OFFCURVE",
"553 111 OFFCURVE",
"553 317 CURVE SMOOTH",
"553 518 OFFCURVE",
"480 624 OFFCURVE",
"314 624 CURVE SMOOTH",
"121 624 OFFCURVE",
"57 504 OFFCURVE",
"57 297 CURVE SMOOTH",
"57 96 OFFCURVE",
"134 -9 OFFCURVE",
"296 -9 CURVE SMOOTH"
);
},
{
closed = 1;
nodes = (
"167 50 OFFCURVE",
"120 134 OFFCURVE",
"120 311 CURVE SMOOTH",
"120 406 OFFCURVE",
"140 484 OFFCURVE",
"172 541 CURVE",
"201 556 OFFCURVE",
"253 565 OFFCURVE",
"300 565 CURVE SMOOTH",
"443 565 OFFCURVE",
"490 480 OFFCURVE",
"490 303 CURVE SMOOTH",
"490 208 OFFCURVE",
"466 129 OFFCURVE",
"435 73 CURVE",
"406 59 OFFCURVE",
"357 50 OFFCURVE",
"310 50 CURVE SMOOTH"
);
},
{
closed = 1;
nodes = (
"310 786 LINE",
"316 786 LINE",
"403 698 LINE",
"444 706 LINE",
"343 839 LINE",
"283 839 LINE",
"182 706 LINE",
"221 698 LINE"
);
},
{
closed = 1;
nodes = (
"233 914 OFFCURVE",
"245 927 OFFCURVE",
"269 927 CURVE SMOOTH",
"300 927 OFFCURVE",
"321 894 OFFCURVE",
"361 894 CURVE SMOOTH",
"399 894 OFFCURVE",
"422 915 OFFCURVE",
"427 963 CURVE",
"394 974 LINE",
"389 950 OFFCURVE",
"377 937 OFFCURVE",
"354 937 CURVE SMOOTH",
"329 937 OFFCURVE",
"302 970 OFFCURVE",
"261 970 CURVE SMOOTH",
"223 970 OFFCURVE",
"200 949 OFFCURVE",
"195 901 CURVE",
"229 890 LINE"
);
}
);
width = 610;
}
);
leftKerningGroup = O;
note = Ocircumflextilde;
rightKerningGroup = O;
unicode = 1ED6;
},
{
glyphname = Odieresis;
lastChange = "2015-07-20 09:26:44 +0000";
layers = (
{
layerId = "28A75667-7282-4999-AEF1-C99F5F2E1F18";
name = Regular;
paths = (
{
closed = 1;
nodes = (
"489 -9 OFFCURVE",
"553 111 OFFCURVE",
"553 317 CURVE SMOOTH",
"553 518 OFFCURVE",
"480 624 OFFCURVE",
"314 624 CURVE SMOOTH",
"121 624 OFFCURVE",
"57 504 OFFCURVE",
"57 297 CURVE SMOOTH",
"57 96 OFFCURVE",
"134 -9 OFFCURVE",
"296 -9 CURVE SMOOTH"
);
},
{
closed = 1;
nodes = (
"167 50 OFFCURVE",
"120 134 OFFCURVE",
"120 311 CURVE SMOOTH",
"120 406 OFFCURVE",
"140 484 OFFCURVE",
"172 541 CURVE",
"201 556 OFFCURVE",
"253 565 OFFCURVE",
"300 565 CURVE SMOOTH",
"443 565 OFFCURVE",
"490 480 OFFCURVE",
"490 303 CURVE SMOOTH",
"490 208 OFFCURVE",
"466 129 OFFCURVE",
"435 73 CURVE",
"406 59 OFFCURVE",
"357 50 OFFCURVE",
"310 50 CURVE SMOOTH"
);
},
{
closed = 1;
nodes = (
"254 701 OFFCURVE",
"268 715 OFFCURVE",
"268 738 CURVE SMOOTH",
"268 762 OFFCURVE",
"254 775 OFFCURVE",
"230 775 CURVE SMOOTH",
"206 775 OFFCURVE",
"191 762 OFFCURVE",
"191 738 CURVE SMOOTH",
"191 715 OFFCURVE",
"206 701 OFFCURVE",
"230 701 CURVE SMOOTH"
);
},
{
closed = 1;
nodes = (
"412 701 OFFCURVE",
"426 715 OFFCURVE",
"426 738 CURVE SMOOTH",
"426 762 OFFCURVE",
"412 775 OFFCURVE",
"388 775 CURVE SMOOTH",
"363 775 OFFCURVE",
"348 762 OFFCURVE",
"348 738 CURVE SMOOTH",
"348 715 OFFCURVE",
"363 701 OFFCURVE",
"388 701 CURVE SMOOTH"
);
}
);
width = 610;
}
);
leftKerningGroup = O;
note = Odieresis;
rightKerningGroup = O;
unicode = 00D6;
},
{
glyphname = Odotbelow;
lastChange = "2015-07-20 09:26:44 +0000";
layers = (
{
layerId = "28A75667-7282-4999-AEF1-C99F5F2E1F18";
name = Regular;
paths = (
{
closed = 1;
nodes = (
"489 -9 OFFCURVE",
"553 111 OFFCURVE",
"553 317 CURVE SMOOTH",
"553 518 OFFCURVE",
"480 624 OFFCURVE",
"314 624 CURVE SMOOTH",
"121 624 OFFCURVE",
"57 504 OFFCURVE",
"57 297 CURVE SMOOTH",
"57 96 OFFCURVE",
"134 -9 OFFCURVE",
"296 -9 CURVE SMOOTH"
);
},
{
closed = 1;
nodes = (
"334 -164 OFFCURVE",
"352 -146 OFFCURVE",
"352 -117 CURVE SMOOTH",
"352 -85 OFFCURVE",
"334 -68 OFFCURVE",
"302 -68 CURVE SMOOTH",
"271 -68 OFFCURVE",
"252 -85 OFFCURVE",
"252 -117 CURVE SMOOTH",
"252 -146 OFFCURVE",
"271 -164 OFFCURVE",
"302 -164 CURVE SMOOTH"
);
},
{
closed = 1;
nodes = (
"167 50 OFFCURVE",
"120 134 OFFCURVE",
"120 311 CURVE SMOOTH",
"120 406 OFFCURVE",
"140 484 OFFCURVE",
"172 541 CURVE",
"201 556 OFFCURVE",
"253 565 OFFCURVE",
"300 565 CURVE SMOOTH",
"443 565 OFFCURVE",
"490 480 OFFCURVE",
"490 303 CURVE SMOOTH",
"490 208 OFFCURVE",
"466 129 OFFCURVE",
"435 73 CURVE",
"406 59 OFFCURVE",
"357 50 OFFCURVE",
"310 50 CURVE SMOOTH"
);
}
);
width = 610;
}
);
leftKerningGroup = O;
note = Odotbelow;
rightKerningGroup = O;
unicode = 1ECC;
},
{
glyphname = Ograve;
lastChange = "2015-07-20 09:26:44 +0000";
layers = (
{
layerId = "28A75667-7282-4999-AEF1-C99F5F2E1F18";
name = Regular;
paths = (
{
closed = 1;
nodes = (
"489 -9 OFFCURVE",
"553 111 OFFCURVE",
"553 317 CURVE SMOOTH",
"553 518 OFFCURVE",
"480 624 OFFCURVE",
"314 624 CURVE SMOOTH",
"121 624 OFFCURVE",
"57 504 OFFCURVE",
"57 297 CURVE SMOOTH",
"57 96 OFFCURVE",
"134 -9 OFFCURVE",
"296 -9 CURVE SMOOTH"
);
},
{
closed = 1;
nodes = (
"167 50 OFFCURVE",
"120 134 OFFCURVE",
"120 311 CURVE SMOOTH",
"120 406 OFFCURVE",
"140 484 OFFCURVE",
"172 541 CURVE",
"201 556 OFFCURVE",
"253 565 OFFCURVE",
"300 565 CURVE SMOOTH",
"443 565 OFFCURVE",
"490 480 OFFCURVE",
"490 303 CURVE SMOOTH",
"490 208 OFFCURVE",
"466 129 OFFCURVE",
"435 73 CURVE",
"406 59 OFFCURVE",
"357 50 OFFCURVE",
"310 50 CURVE SMOOTH"
);
},
{
closed = 1;
nodes = (
"352 706 LINE",
"269 848 LINE",
"188 840 LINE",
"307 698 LINE"
);
}
);
width = 610;
}
);
leftKerningGroup = O;
note = Ograve;
rightKerningGroup = O;
unicode = 00D2;
},
{
glyphname = Ohookabove;
lastChange = "2015-07-20 09:26:44 +0000";
layers = (
{
layerId = "28A75667-7282-4999-AEF1-C99F5F2E1F18";
name = Regular;
paths = (
{
closed = 1;
nodes = (
"489 -9 OFFCURVE",
"553 111 OFFCURVE",
"553 317 CURVE SMOOTH",
"553 518 OFFCURVE",
"480 624 OFFCURVE",
"314 624 CURVE SMOOTH",
"121 624 OFFCURVE",
"57 504 OFFCURVE",
"57 297 CURVE SMOOTH",
"57 96 OFFCURVE",
"134 -9 OFFCURVE",
"296 -9 CURVE SMOOTH"
);
},
{
closed = 1;
nodes = (
"167 50 OFFCURVE",
"120 134 OFFCURVE",
"120 311 CURVE SMOOTH",
"120 406 OFFCURVE",
"140 484 OFFCURVE",
"172 541 CURVE",
"201 556 OFFCURVE",
"253 565 OFFCURVE",
"300 565 CURVE SMOOTH",
"443 565 OFFCURVE",
"490 480 OFFCURVE",
"490 303 CURVE SMOOTH",
"490 208 OFFCURVE",
"466 129 OFFCURVE",
"435 73 CURVE",
"406 59 OFFCURVE",
"357 50 OFFCURVE",
"310 50 CURVE SMOOTH"
);
},
{
closed = 1;
nodes = (
"326 706 LINE",
"326 747 LINE",
"380 748 OFFCURVE",
"418 767 OFFCURVE",
"418 821 CURVE SMOOTH",
"418 864 OFFCURVE",
"393 896 OFFCURVE",
"332 896 CURVE SMOOTH",
"305 896 OFFCURVE",
"282 892 OFFCURVE",
"256 881 CURVE",
"269 844 LINE",
"286 851 OFFCURVE",
"306 854 OFFCURVE",
"323 854 CURVE SMOOTH",
"356 854 OFFCURVE",
"369 844 OFFCURVE",
"369 819 CURVE SMOOTH",
"369 787 OFFCURVE",
"344 783 OFFCURVE",
"280 783 CURVE",
"280 755 LINE",
"292 706 LINE"
);
}
);
width = 610;
}
);
leftKerningGroup = O;
note = Ohookabove;
rightKerningGroup = O;
unicode = 1ECE;
},
{
glyphname = Ohorn;
lastChange = "2015-07-20 09:26:53 +0000";
layers = (
{
layerId = "28A75667-7282-4999-AEF1-C99F5F2E1F18";
name = Regular;
paths = (
{
closed = 1;
nodes = (
"489 -7 OFFCURVE",
"553 113 OFFCURVE",
"553 320 CURVE SMOOTH",
"553 394 OFFCURVE",
"543 447 OFFCURVE",
"524 492 CURVE",
"592 541 OFFCURVE",
"619 612 OFFCURVE",
"621 718 CURVE",
"561 718 LINE",
"559 643 OFFCURVE",
"543 590 OFFCURVE",
"515 539 CURVE",
"500 539 LINE",
"462 598 OFFCURVE",
"403 626 OFFCURVE",
"314 626 CURVE SMOOTH",
"121 626 OFFCURVE",
"57 506 OFFCURVE",
"57 299 CURVE SMOOTH",
"57 99 OFFCURVE",
"134 -7 OFFCURVE",
"296 -7 CURVE SMOOTH"
);
},
{
closed = 1;
nodes = (
"167 52 OFFCURVE",
"120 136 OFFCURVE",
"120 313 CURVE SMOOTH",
"120 409 OFFCURVE",
"140 487 OFFCURVE",
"172 544 CURVE",
"201 558 OFFCURVE",
"253 568 OFFCURVE",
"300 568 CURVE SMOOTH",
"443 568 OFFCURVE",
"490 483 OFFCURVE",
"490 306 CURVE SMOOTH",
"490 210 OFFCURVE",
"466 131 OFFCURVE",
"435 75 CURVE",
"406 61 OFFCURVE",
"357 52 OFFCURVE",
"310 52 CURVE SMOOTH"
);
}
);
width = 643;
}
);
leftKerningGroup = O;
note = Ohorn;
unicode = 01A0;
},
{
glyphname = Ohornacute;
lastChange = "2015-07-20 09:26:53 +0000";
layers = (
{
layerId = "28A75667-7282-4999-AEF1-C99F5F2E1F18";
name = Regular;
paths = (
{
closed = 1;
nodes = (
"489 -7 OFFCURVE",
"553 113 OFFCURVE",
"553 320 CURVE SMOOTH",
"553 394 OFFCURVE",
"543 447 OFFCURVE",
"524 492 CURVE",
"592 541 OFFCURVE",
"619 612 OFFCURVE",
"621 718 CURVE",
"561 718 LINE",
"559 643 OFFCURVE",
"543 590 OFFCURVE",
"515 539 CURVE",
"500 539 LINE",
"462 598 OFFCURVE",
"403 626 OFFCURVE",
"314 626 CURVE SMOOTH",
"121 626 OFFCURVE",
"57 506 OFFCURVE",
"57 299 CURVE SMOOTH",
"57 99 OFFCURVE",
"134 -7 OFFCURVE",
"296 -7 CURVE SMOOTH"
);
},
{
closed = 1;
nodes = (
"167 52 OFFCURVE",
"120 136 OFFCURVE",
"120 313 CURVE SMOOTH",
"120 409 OFFCURVE",
"140 487 OFFCURVE",
"172 544 CURVE",
"201 558 OFFCURVE",
"253 568 OFFCURVE",
"300 568 CURVE SMOOTH",
"443 568 OFFCURVE",
"490 483 OFFCURVE",
"490 306 CURVE SMOOTH",
"490 210 OFFCURVE",
"466 131 OFFCURVE",
"435 75 CURVE",
"406 61 OFFCURVE",
"357 52 OFFCURVE",
"310 52 CURVE SMOOTH"
);
},
{
closed = 1;
nodes = (
"436 840 LINE",
"355 849 LINE",
"272 706 LINE",
"317 699 LINE"
);
}
);
width = 643;
}
);
leftKerningGroup = O;
note = Ohornacute;
unicode = 1EDA;
},
{
glyphname = Ohorndotbelow;
lastChange = "2015-07-20 09:26:53 +0000";
layers = (
{
layerId = "28A75667-7282-4999-AEF1-C99F5F2E1F18";
name = Regular;
paths = (
{
closed = 1;
nodes = (
"489 -7 OFFCURVE",
"553 113 OFFCURVE",
"553 320 CURVE SMOOTH",
"553 394 OFFCURVE",
"543 447 OFFCURVE",
"524 492 CURVE",
"592 541 OFFCURVE",
"619 612 OFFCURVE",
"621 718 CURVE",
"561 718 LINE",
"559 643 OFFCURVE",
"543 590 OFFCURVE",
"515 539 CURVE",
"500 539 LINE",
"462 598 OFFCURVE",
"403 626 OFFCURVE",
"314 626 CURVE SMOOTH",
"121 626 OFFCURVE",
"57 506 OFFCURVE",
"57 299 CURVE SMOOTH",
"57 99 OFFCURVE",
"134 -7 OFFCURVE",
"296 -7 CURVE SMOOTH"
);
},
{
closed = 1;
nodes = (
"343 -164 OFFCURVE",
"361 -146 OFFCURVE",
"361 -117 CURVE SMOOTH",
"361 -85 OFFCURVE",
"343 -68 OFFCURVE",
"311 -68 CURVE SMOOTH",
"280 -68 OFFCURVE",
"261 -85 OFFCURVE",
"261 -117 CURVE SMOOTH",
"261 -146 OFFCURVE",
"280 -164 OFFCURVE",
"311 -164 CURVE SMOOTH"
);
},
{
closed = 1;
nodes = (
"167 52 OFFCURVE",
"120 136 OFFCURVE",
"120 313 CURVE SMOOTH",
"120 409 OFFCURVE",
"140 487 OFFCURVE",
"172 544 CURVE",
"201 558 OFFCURVE",
"253 568 OFFCURVE",
"300 568 CURVE SMOOTH",
"443 568 OFFCURVE",
"490 483 OFFCURVE",
"490 306 CURVE SMOOTH",
"490 210 OFFCURVE",
"466 131 OFFCURVE",
"435 75 CURVE",
"406 61 OFFCURVE",
"357 52 OFFCURVE",
"310 52 CURVE SMOOTH"
);
}
);
width = 643;
}
);
leftKerningGroup = O;
note = Ohorndotbelow;
unicode = 1EE2;
},
{
glyphname = Ohorngrave;
lastChange = "2015-07-20 09:26:53 +0000";
layers = (
{
layerId = "28A75667-7282-4999-AEF1-C99F5F2E1F18";
name = Regular;
paths = (
{
closed = 1;
nodes = (
"489 -7 OFFCURVE",
"553 113 OFFCURVE",
"553 320 CURVE SMOOTH",
"553 394 OFFCURVE",
"543 447 OFFCURVE",
"524 492 CURVE",
"592 541 OFFCURVE",
"619 612 OFFCURVE",
"621 718 CURVE",
"561 718 LINE",
"559 643 OFFCURVE",
"543 590 OFFCURVE",
"515 539 CURVE",
"500 539 LINE",
"462 598 OFFCURVE",
"403 626 OFFCURVE",
"314 626 CURVE SMOOTH",
"121 626 OFFCURVE",
"57 506 OFFCURVE",
"57 299 CURVE SMOOTH",
"57 99 OFFCURVE",
"134 -7 OFFCURVE",
"296 -7 CURVE SMOOTH"
);
},
{
closed = 1;
nodes = (
"167 52 OFFCURVE",
"120 136 OFFCURVE",
"120 313 CURVE SMOOTH",
"120 409 OFFCURVE",
"140 487 OFFCURVE",
"172 544 CURVE",
"201 558 OFFCURVE",
"253 568 OFFCURVE",
"300 568 CURVE SMOOTH",
"443 568 OFFCURVE",
"490 483 OFFCURVE",
"490 306 CURVE SMOOTH",
"490 210 OFFCURVE",
"466 131 OFFCURVE",
"435 75 CURVE",
"406 61 OFFCURVE",
"357 52 OFFCURVE",
"310 52 CURVE SMOOTH"
);
},
{
closed = 1;
nodes = (
"351 706 LINE",
"268 849 LINE",
"187 840 LINE",
"306 699 LINE"
);
}
);
width = 643;
}
);
leftKerningGroup = O;
note = Ohorngrave;
unicode = 1EDC;
},
{
glyphname = Ohornhookabove;
lastChange = "2015-07-20 09:26:53 +0000";
layers = (
{
layerId = "28A75667-7282-4999-AEF1-C99F5F2E1F18";
name = Regular;
paths = (
{
closed = 1;
nodes = (
"489 -7 OFFCURVE",
"553 113 OFFCURVE",
"553 320 CURVE SMOOTH",
"553 394 OFFCURVE",
"543 447 OFFCURVE",
"524 492 CURVE",
"592 541 OFFCURVE",
"619 612 OFFCURVE",
"621 718 CURVE",
"561 718 LINE",
"559 643 OFFCURVE",
"543 590 OFFCURVE",
"515 539 CURVE",
"500 539 LINE",
"462 598 OFFCURVE",
"403 626 OFFCURVE",
"314 626 CURVE SMOOTH",
"121 626 OFFCURVE",
"57 506 OFFCURVE",
"57 299 CURVE SMOOTH",
"57 99 OFFCURVE",
"134 -7 OFFCURVE",
"296 -7 CURVE SMOOTH"
);
},
{
closed = 1;
nodes = (
"167 52 OFFCURVE",
"120 136 OFFCURVE",
"120 313 CURVE SMOOTH",
"120 409 OFFCURVE",
"140 487 OFFCURVE",
"172 544 CURVE",
"201 558 OFFCURVE",
"253 568 OFFCURVE",
"300 568 CURVE SMOOTH",
"443 568 OFFCURVE",
"490 483 OFFCURVE",
"490 306 CURVE SMOOTH",
"490 210 OFFCURVE",
"466 131 OFFCURVE",
"435 75 CURVE",
"406 61 OFFCURVE",
"357 52 OFFCURVE",
"310 52 CURVE SMOOTH"
);
},
{
closed = 1;
nodes = (
"325 706 LINE",
"325 747 LINE",
"379 748 OFFCURVE",
"417 767 OFFCURVE",
"417 821 CURVE SMOOTH",
"417 864 OFFCURVE",
"392 896 OFFCURVE",
"331 896 CURVE SMOOTH",
"304 896 OFFCURVE",
"281 892 OFFCURVE",
"255 881 CURVE",
"268 844 LINE",
"285 851 OFFCURVE",
"305 854 OFFCURVE",
"322 854 CURVE SMOOTH",
"355 854 OFFCURVE",
"368 844 OFFCURVE",
"368 819 CURVE SMOOTH",
"368 787 OFFCURVE",
"343 783 OFFCURVE",
"279 783 CURVE",
"279 755 LINE",
"291 706 LINE"
);
}
);
width = 643;
}
);
leftKerningGroup = O;
note = Ohornhookabove;
unicode = 1EDE;
},
{
glyphname = Ohorntilde;
lastChange = "2015-07-20 09:26:53 +0000";
layers = (
{
layerId = "28A75667-7282-4999-AEF1-C99F5F2E1F18";
name = Regular;
paths = (
{
closed = 1;
nodes = (
"489 -7 OFFCURVE",
"553 113 OFFCURVE",
"553 320 CURVE SMOOTH",
"553 394 OFFCURVE",
"543 447 OFFCURVE",
"524 492 CURVE",
"592 541 OFFCURVE",
"619 612 OFFCURVE",
"621 718 CURVE",
"561 718 LINE",
"559 643 OFFCURVE",
"543 590 OFFCURVE",
"515 539 CURVE",
"500 539 LINE",
"462 598 OFFCURVE",
"403 626 OFFCURVE",
"314 626 CURVE SMOOTH",
"121 626 OFFCURVE",
"57 506 OFFCURVE",
"57 299 CURVE SMOOTH",
"57 99 OFFCURVE",
"134 -7 OFFCURVE",
"296 -7 CURVE SMOOTH"
);
},
{
closed = 1;
nodes = (
"167 52 OFFCURVE",
"120 136 OFFCURVE",
"120 313 CURVE SMOOTH",
"120 409 OFFCURVE",
"140 487 OFFCURVE",
"172 544 CURVE",
"201 558 OFFCURVE",
"253 568 OFFCURVE",
"300 568 CURVE SMOOTH",
"443 568 OFFCURVE",
"490 483 OFFCURVE",
"490 306 CURVE SMOOTH",
"490 210 OFFCURVE",
"466 131 OFFCURVE",
"435 75 CURVE",
"406 61 OFFCURVE",
"357 52 OFFCURVE",
"310 52 CURVE SMOOTH"
);
},
{
closed = 1;
nodes = (
"222 726 OFFCURVE",
"233 747 OFFCURVE",
"262 747 CURVE SMOOTH",
"297 747 OFFCURVE",
"326 698 OFFCURVE",
"374 698 CURVE SMOOTH",
"423 698 OFFCURVE",
"448 730 OFFCURVE",
"452 788 CURVE",
"411 801 LINE",
"407 771 OFFCURVE",
"395 751 OFFCURVE",
"367 751 CURVE SMOOTH",
"333 751 OFFCURVE",
"299 799 OFFCURVE",
"255 799 CURVE SMOOTH",
"206 799 OFFCURVE",
"181 767 OFFCURVE",
"177 710 CURVE",
"218 697 LINE"
);
}
);
width = 643;
}
);
leftKerningGroup = O;
note = Ohorntilde;
unicode = 1EE0;
},
{
glyphname = Ohungarumlaut;
lastChange = "2015-07-20 09:27:10 +0000";
layers = (
{
layerId = "28A75667-7282-4999-AEF1-C99F5F2E1F18";
name = Regular;
paths = (
{
closed = 1;
nodes = (
"489 -9 OFFCURVE",
"553 111 OFFCURVE",
"553 317 CURVE SMOOTH",
"553 518 OFFCURVE",
"480 624 OFFCURVE",
"314 624 CURVE SMOOTH",
"121 624 OFFCURVE",
"57 504 OFFCURVE",
"57 297 CURVE SMOOTH",
"57 96 OFFCURVE",
"134 -9 OFFCURVE",
"296 -9 CURVE SMOOTH"
);
},
{
closed = 1;
nodes = (
"167 50 OFFCURVE",
"120 134 OFFCURVE",
"120 311 CURVE SMOOTH",
"120 406 OFFCURVE",
"140 484 OFFCURVE",
"172 541 CURVE",
"201 556 OFFCURVE",
"253 565 OFFCURVE",
"300 565 CURVE SMOOTH",
"443 565 OFFCURVE",
"490 480 OFFCURVE",
"490 303 CURVE SMOOTH",
"490 208 OFFCURVE",
"466 129 OFFCURVE",
"435 73 CURVE",
"406 59 OFFCURVE",
"357 50 OFFCURVE",
"310 50 CURVE SMOOTH"
);
},
{
closed = 1;
nodes = (
"260 734 OFFCURVE",
"277 777 OFFCURVE",
"277 821 CURVE SMOOTH",
"277 865 OFFCURVE",
"258 887 OFFCURVE",
"217 887 CURVE SMOOTH",
"202 887 OFFCURVE",
"188 885 OFFCURVE",
"175 880 CURVE",
"175 837 LINE",
"229 837 LINE",
"229 785 OFFCURVE",
"216 747 OFFCURVE",
"194 706 CURVE",
"231 698 LINE"
);
},
{
closed = 1;
nodes = (
"425 734 OFFCURVE",
"442 777 OFFCURVE",
"442 821 CURVE SMOOTH",
"442 865 OFFCURVE",
"424 887 OFFCURVE",
"383 887 CURVE SMOOTH",
"368 887 OFFCURVE",
"353 885 OFFCURVE",
"340 880 CURVE",
"340 837 LINE",
"394 837 LINE",
"394 785 OFFCURVE",
"381 747 OFFCURVE",
"359 706 CURVE",
"396 698 LINE"
);
}
);
width = 610;
}
);
leftKerningGroup = O;
note = Ohungarumlaut;
rightKerningGroup = O;
unicode = 0150;
},
{
glyphname = Omacron;
lastChange = "2015-07-20 09:27:10 +0000";
layers = (
{
layerId = "28A75667-7282-4999-AEF1-C99F5F2E1F18";
name = Regular;
paths = (
{
closed = 1;
nodes = (
"489 -9 OFFCURVE",
"553 111 OFFCURVE",
"553 317 CURVE SMOOTH",
"553 518 OFFCURVE",
"480 624 OFFCURVE",
"314 624 CURVE SMOOTH",
"121 624 OFFCURVE",
"57 504 OFFCURVE",
"57 297 CURVE SMOOTH",
"57 96 OFFCURVE",
"134 -9 OFFCURVE",
"296 -9 CURVE SMOOTH"
);
},
{
closed = 1;
nodes = (
"167 50 OFFCURVE",
"120 134 OFFCURVE",
"120 311 CURVE SMOOTH",
"120 406 OFFCURVE",
"140 484 OFFCURVE",
"172 541 CURVE",
"201 556 OFFCURVE",
"253 565 OFFCURVE",
"300 565 CURVE SMOOTH",
"443 565 OFFCURVE",
"490 480 OFFCURVE",
"490 303 CURVE SMOOTH",
"490 208 OFFCURVE",
"466 129 OFFCURVE",
"435 73 CURVE",
"406 59 OFFCURVE",
"357 50 OFFCURVE",
"310 50 CURVE SMOOTH"
);
},
{
closed = 1;
nodes = (
"449 706 LINE",
"449 759 LINE",
"164 759 LINE",
"164 706 LINE"
);
}
);
width = 610;
}
);
leftKerningGroup = O;
note = Omacron;
rightKerningGroup = O;
unicode = 014C;
},
{
glyphname = Oslash;
lastChange = "2015-07-20 09:27:10 +0000";
layers = (
{
layerId = "28A75667-7282-4999-AEF1-C99F5F2E1F18";
name = Regular;
paths = (
{
closed = 1;
nodes = (
"195 9 LINE",
"224 -3 OFFCURVE",
"258 -9 OFFCURVE",
"298 -9 CURVE SMOOTH",
"491 -9 OFFCURVE",
"555 111 OFFCURVE",
"555 317 CURVE SMOOTH",
"555 446 OFFCURVE",
"525 536 OFFCURVE",
"459 584 CURVE",
"497 666 LINE",
"445 679 LINE",
"411 608 LINE",
"384 618 OFFCURVE",
"352 624 OFFCURVE",
"316 624 CURVE SMOOTH",
"123 624 OFFCURVE",
"59 504 OFFCURVE",
"59 297 CURVE SMOOTH",
"59 173 OFFCURVE",
"88 85 OFFCURVE",
"149 36 CURVE",
"106 -57 LINE",
"158 -71 LINE"
);
},
{
closed = 1;
nodes = (
"137 139 OFFCURVE",
"122 210 OFFCURVE",
"122 311 CURVE SMOOTH",
"122 406 OFFCURVE",
"142 484 OFFCURVE",
"174 541 CURVE",
"203 556 OFFCURVE",
"255 565 OFFCURVE",
"302 565 CURVE SMOOTH",
"335 565 OFFCURVE",
"362 560 OFFCURVE",
"385 550 CURVE",
"176 97 LINE"
);
},
{
closed = 1;
nodes = (
"275 49 OFFCURVE",
"245 55 OFFCURVE",
"221 66 CURVE",
"431 523 LINE",
"475 482 OFFCURVE",
"492 408 OFFCURVE",
"492 303 CURVE SMOOTH",
"492 208 OFFCURVE",
"468 128 OFFCURVE",
"437 73 CURVE",
"408 58 OFFCURVE",
"359 49 OFFCURVE",
"312 49 CURVE SMOOTH"
);
}
);
width = 615;
}
);
leftKerningGroup = O;
note = Oslash;
rightKerningGroup = O;
unicode = 00D8;
},
{
glyphname = Oslashacute;
lastChange = "2015-07-20 09:27:10 +0000";
layers = (
{
layerId = "28A75667-7282-4999-AEF1-C99F5F2E1F18";
name = Regular;
paths = (
{
closed = 1;
nodes = (
"195 9 LINE",
"224 -3 OFFCURVE",
"258 -9 OFFCURVE",
"298 -9 CURVE SMOOTH",
"491 -9 OFFCURVE",
"555 111 OFFCURVE",
"555 317 CURVE SMOOTH",
"555 446 OFFCURVE",
"525 536 OFFCURVE",
"459 584 CURVE",
"497 666 LINE",
"445 679 LINE",
"411 608 LINE",
"384 618 OFFCURVE",
"352 624 OFFCURVE",
"316 624 CURVE SMOOTH",
"123 624 OFFCURVE",
"59 504 OFFCURVE",
"59 297 CURVE SMOOTH",
"59 173 OFFCURVE",
"88 85 OFFCURVE",
"149 36 CURVE",
"106 -57 LINE",
"158 -71 LINE"
);
},
{
closed = 1;
nodes = (
"137 139 OFFCURVE",
"122 210 OFFCURVE",
"122 311 CURVE SMOOTH",
"122 406 OFFCURVE",
"142 484 OFFCURVE",
"174 541 CURVE",
"203 556 OFFCURVE",
"255 565 OFFCURVE",
"302 565 CURVE SMOOTH",
"335 565 OFFCURVE",
"362 560 OFFCURVE",
"385 550 CURVE",
"176 97 LINE"
);
},
{
closed = 1;
nodes = (
"275 49 OFFCURVE",
"245 55 OFFCURVE",
"221 66 CURVE",
"431 523 LINE",
"475 482 OFFCURVE",
"492 408 OFFCURVE",
"492 303 CURVE SMOOTH",
"492 208 OFFCURVE",
"468 128 OFFCURVE",
"437 73 CURVE",
"408 58 OFFCURVE",
"359 49 OFFCURVE",
"312 49 CURVE SMOOTH"
);
},
{
closed = 1;
nodes = (
"437 840 LINE",
"356 849 LINE",
"273 706 LINE",
"318 699 LINE"
);
}
);
width = 615;
}
);
leftKerningGroup = O;
note = Oslashacute;
rightKerningGroup = O;
unicode = 01FE;
},
{
glyphname = Otilde;
lastChange = "2015-07-20 09:27:10 +0000";
layers = (
{
layerId = "28A75667-7282-4999-AEF1-C99F5F2E1F18";
name = Regular;
paths = (
{
closed = 1;
nodes = (
"489 -9 OFFCURVE",
"553 111 OFFCURVE",
"553 317 CURVE SMOOTH",
"553 518 OFFCURVE",
"480 624 OFFCURVE",
"314 624 CURVE SMOOTH",
"121 624 OFFCURVE",
"57 504 OFFCURVE",
"57 297 CURVE SMOOTH",
"57 96 OFFCURVE",
"134 -9 OFFCURVE",
"296 -9 CURVE SMOOTH"
);
},
{
closed = 1;
nodes = (
"167 50 OFFCURVE",
"120 134 OFFCURVE",
"120 311 CURVE SMOOTH",
"120 406 OFFCURVE",
"140 484 OFFCURVE",
"172 541 CURVE",
"201 556 OFFCURVE",
"253 565 OFFCURVE",
"300 565 CURVE SMOOTH",
"443 565 OFFCURVE",
"490 480 OFFCURVE",
"490 303 CURVE SMOOTH",
"490 208 OFFCURVE",
"466 129 OFFCURVE",
"435 73 CURVE",
"406 59 OFFCURVE",
"357 50 OFFCURVE",
"310 50 CURVE SMOOTH"
);
},
{
closed = 1;
nodes = (
"216 724 OFFCURVE",
"227 744 OFFCURVE",
"256 744 CURVE SMOOTH",
"291 744 OFFCURVE",
"320 696 OFFCURVE",
"368 696 CURVE SMOOTH",
"417 696 OFFCURVE",
"442 728 OFFCURVE",
"446 785 CURVE",
"405 798 LINE",
"401 769 OFFCURVE",
"389 749 OFFCURVE",
"361 749 CURVE SMOOTH",
"327 749 OFFCURVE",
"293 797 OFFCURVE",
"249 797 CURVE SMOOTH",
"200 797 OFFCURVE",
"175 765 OFFCURVE",
"171 707 CURVE",
"212 694 LINE"
);
}
);
width = 610;
}
);
leftKerningGroup = O;
note = Otilde;
rightKerningGroup = O;
unicode = 00D5;
},
{
glyphname = OE;
lastChange = "2015-07-20 09:27:15 +0000";
layers = (
{
layerId = "28A75667-7282-4999-AEF1-C99F5F2E1F18";
name = Regular;
paths = (
{
closed = 1;
nodes = (
"719 -10 OFFCURVE",
"775 -4 OFFCURVE",
"824 9 CURVE",
"810 64 LINE",
"762 53 OFFCURVE",
"708 48 OFFCURVE",
"652 48 CURVE SMOOTH",
"596 48 OFFCURVE",
"552 53 OFFCURVE",
"504 66 CURVE",
"504 280 LINE",
"784 280 LINE",
"784 336 LINE",
"504 336 LINE",
"504 556 LINE",
"813 556 LINE",
"813 614 LINE",
"442 614 LINE",
"407 620 OFFCURVE",
"369 624 OFFCURVE",
"321 624 CURVE SMOOTH",
"128 624 OFFCURVE",
"60 506 OFFCURVE",
"60 297 CURVE SMOOTH",
"60 96 OFFCURVE",
"139 -9 OFFCURVE",
"300 -9 CURVE SMOOTH",
"366 -9 OFFCURVE",
"422 3 OFFCURVE",
"464 28 CURVE",
"470 28 LINE",
"504 2 OFFCURVE",
"567 -10 OFFCURVE",
"646 -10 CURVE SMOOTH"
);
},
{
closed = 1;
nodes = (
"172 49 OFFCURVE",
"123 134 OFFCURVE",
"123 311 CURVE SMOOTH",
"123 406 OFFCURVE",
"143 484 OFFCURVE",
"175 541 CURVE",
"204 556 OFFCURVE",
"260 565 OFFCURVE",
"309 565 CURVE SMOOTH",
"368 565 OFFCURVE",
"397 563 OFFCURVE",
"442 555 CURVE",
"442 73 LINE",
"412 59 OFFCURVE",
"361 49 OFFCURVE",
"315 49 CURVE SMOOTH"
);
}
);
width = 891;
}
);
leftKerningGroup = O;
note = OE;
rightKerningGroup = E;
unicode = 0152;
},
{
glyphname = P;
lastChange = "2015-07-20 05:44:27 +0000";
layers = (
{
layerId = "28A75667-7282-4999-AEF1-C99F5F2E1F18";
name = Regular;
paths = (
{
closed = 1;
nodes = (
"145 0 LINE",
"145 206 LINE",
"244 206 LINE SMOOTH",
"414 206 OFFCURVE",
"480 277 OFFCURVE",
"480 418 CURVE SMOOTH",
"480 557 OFFCURVE",
"399 624 OFFCURVE",
"247 624 CURVE SMOOTH",
"189 624 OFFCURVE",
"133 613 OFFCURVE",
"82 599 CURVE",
"82 0 LINE"
);
},
{
closed = 1;
nodes = (
"145 555 LINE",
"176 563 OFFCURVE",
"214 566 OFFCURVE",
"246 566 CURVE SMOOTH",
"353 566 OFFCURVE",
"417 525 OFFCURVE",
"417 415 CURVE SMOOTH",
"417 358 OFFCURVE",
"405 311 OFFCURVE",
"381 278 CURVE",
"340 266 OFFCURVE",
"301 263 OFFCURVE",
"236 263 CURVE SMOOTH",
"145 263 LINE"
);
}
);
width = 517;
}
);
note = P;
unicode = 0050;
},
{
glyphname = Thorn;
lastChange = "2015-07-20 05:44:28 +0000";
layers = (
{
layerId = "28A75667-7282-4999-AEF1-C99F5F2E1F18";
name = Regular;
paths = (
{
closed = 1;
nodes = (
"144 0 LINE",
"144 150 LINE",
"249 150 LINE SMOOTH",
"365 150 OFFCURVE",
"434 208 OFFCURVE",
"434 324 CURVE SMOOTH",
"434 436 OFFCURVE",
"366 494 OFFCURVE",
"249 494 CURVE SMOOTH",
"144 494 LINE",
"144 616 LINE",
"81 616 LINE",
"81 0 LINE"
);
},
{
closed = 1;
nodes = (
"144 438 LINE",
"245 438 LINE SMOOTH",
"336 438 OFFCURVE",
"371 404 OFFCURVE",
"371 324 CURVE SMOOTH",
"371 246 OFFCURVE",
"339 206 OFFCURVE",
"245 206 CURVE SMOOTH",
"144 206 LINE"
);
}
);
width = 481;
}
);
note = Thorn;
unicode = 00DE;
},
{
glyphname = Q;
lastChange = "2015-07-20 09:53:08 +0000";
layers = (
{
layerId = "28A75667-7282-4999-AEF1-C99F5F2E1F18";
name = Regular;
paths = (
{
closed = 1;
nodes = (
"427 -137 OFFCURVE",
"473 -134 OFFCURVE",
"517 -123 CURVE",
"506 -74 LINE",
"461 -83 OFFCURVE",
"416 -86 OFFCURVE",
"372 -86 CURVE SMOOTH",
"344 -86 OFFCURVE",
"311 -83 OFFCURVE",
"287 -78 CURVE",
"287 -3 LINE",
"292 -4 OFFCURVE",
"297 -4 OFFCURVE",
"302 -4 CURVE SMOOTH",
"490 -2 OFFCURVE",
"554 115 OFFCURVE",
"554 320 CURVE SMOOTH",
"554 521 OFFCURVE",
"481 624 OFFCURVE",
"315 624 CURVE SMOOTH",
"122 624 OFFCURVE",
"57 506 OFFCURVE",
"57 300 CURVE SMOOTH",
"57 122 OFFCURVE",
"117 21 OFFCURVE",
"243 1 CURVE",
"226 -72 LINE",
"226 -115 LINE",
"256 -127 OFFCURVE",
"324 -137 OFFCURVE",
"373 -137 CURVE SMOOTH"
);
},
{
closed = 1;
nodes = (
"167 55 OFFCURVE",
"120 133 OFFCURVE",
"120 314 CURVE SMOOTH",
"120 406 OFFCURVE",
"140 484 OFFCURVE",
"172 541 CURVE",
"201 556 OFFCURVE",
"254 565 OFFCURVE",
"301 565 CURVE SMOOTH",
"444 565 OFFCURVE",
"491 487 OFFCURVE",
"491 306 CURVE SMOOTH",
"491 213 OFFCURVE",
"467 134 OFFCURVE",
"436 79 CURVE",
"407 64 OFFCURVE",
"357 55 OFFCURVE",
"310 55 CURVE SMOOTH"
);
}
);
width = 613;
}
);
note = Q;
unicode = 0051;
},
{
glyphname = R;
lastChange = "2015-07-20 09:27:30 +0000";
layers = (
{
layerId = "28A75667-7282-4999-AEF1-C99F5F2E1F18";
name = Regular;
paths = (
{
closed = 1;
nodes = (
"516 -7 OFFCURVE",
"530 -4 OFFCURVE",
"546 1 CURVE",
"546 37 LINE",
"496 45 LINE",
"426 200 LINE SMOOTH",
"410 235 OFFCURVE",
"395 254 OFFCURVE",
"363 269 CURVE",
"363 277 LINE",
"428 311 OFFCURVE",
"463 364 OFFCURVE",
"463 443 CURVE SMOOTH",
"463 565 OFFCURVE",
"393 624 OFFCURVE",
"245 624 CURVE SMOOTH",
"194 624 OFFCURVE",
"133 615 OFFCURVE",
"81 600 CURVE",
"81 0 LINE",
"144 0 LINE",
"144 254 LINE",
"254 254 LINE SMOOTH",
"332 254 OFFCURVE",
"349 220 OFFCURVE",
"370 170 CURVE SMOOTH",
"431 32 LINE SMOOTH",
"443 5 OFFCURVE",
"462 -7 OFFCURVE",
"493 -7 CURVE SMOOTH"
);
},
{
closed = 1;
nodes = (
"144 556 LINE",
"173 562 OFFCURVE",
"209 566 OFFCURVE",
"242 566 CURVE SMOOTH",
"351 566 OFFCURVE",
"399 532 OFFCURVE",
"399 441 CURVE SMOOTH",
"399 375 OFFCURVE",
"375 341 OFFCURVE",
"328 311 CURVE",
"144 311 LINE"
);
}
);
width = 575;
}
);
note = R;
rightKerningGroup = R;
unicode = 0052;
},
{
glyphname = Racute;
lastChange = "2015-07-20 09:27:30 +0000";
layers = (
{
layerId = "28A75667-7282-4999-AEF1-C99F5F2E1F18";
name = Regular;
paths = (
{
closed = 1;
nodes = (
"516 -7 OFFCURVE",
"530 -4 OFFCURVE",
"546 1 CURVE",
"546 37 LINE",
"496 45 LINE",
"426 200 LINE SMOOTH",
"410 235 OFFCURVE",
"395 254 OFFCURVE",
"363 269 CURVE",
"363 277 LINE",
"428 311 OFFCURVE",
"463 364 OFFCURVE",
"463 443 CURVE SMOOTH",
"463 565 OFFCURVE",
"393 624 OFFCURVE",
"245 624 CURVE SMOOTH",
"194 624 OFFCURVE",
"133 615 OFFCURVE",
"81 600 CURVE",
"81 0 LINE",
"144 0 LINE",
"144 254 LINE",
"254 254 LINE SMOOTH",
"332 254 OFFCURVE",
"349 220 OFFCURVE",
"370 170 CURVE SMOOTH",
"431 32 LINE SMOOTH",
"443 5 OFFCURVE",
"462 -7 OFFCURVE",
"493 -7 CURVE SMOOTH"
);
},
{
closed = 1;
nodes = (
"144 556 LINE",
"173 562 OFFCURVE",
"209 566 OFFCURVE",
"242 566 CURVE SMOOTH",
"351 566 OFFCURVE",
"399 532 OFFCURVE",
"399 441 CURVE SMOOTH",
"399 375 OFFCURVE",
"375 341 OFFCURVE",
"328 311 CURVE",
"144 311 LINE"
);
},
{
closed = 1;
nodes = (
"390 840 LINE",
"309 848 LINE",
"226 706 LINE",
"271 698 LINE"
);
}
);
width = 575;
}
);
note = Racute;
rightKerningGroup = R;
unicode = 0154;
},
{
glyphname = Rcaron;
lastChange = "2015-07-20 09:27:30 +0000";
layers = (
{
layerId = "28A75667-7282-4999-AEF1-C99F5F2E1F18";
name = Regular;
paths = (
{
closed = 1;
nodes = (
"516 -7 OFFCURVE",
"530 -4 OFFCURVE",
"546 1 CURVE",
"546 37 LINE",
"496 45 LINE",
"426 200 LINE SMOOTH",
"410 235 OFFCURVE",
"395 254 OFFCURVE",
"363 269 CURVE",
"363 277 LINE",
"428 311 OFFCURVE",
"463 364 OFFCURVE",
"463 443 CURVE SMOOTH",
"463 565 OFFCURVE",
"393 624 OFFCURVE",
"245 624 CURVE SMOOTH",
"194 624 OFFCURVE",
"133 615 OFFCURVE",
"81 600 CURVE",
"81 0 LINE",
"144 0 LINE",
"144 254 LINE",
"254 254 LINE SMOOTH",
"332 254 OFFCURVE",
"349 220 OFFCURVE",
"370 170 CURVE SMOOTH",
"431 32 LINE SMOOTH",
"443 5 OFFCURVE",
"462 -7 OFFCURVE",
"493 -7 CURVE SMOOTH"
);
},
{
closed = 1;
nodes = (
"144 556 LINE",
"173 562 OFFCURVE",
"209 566 OFFCURVE",
"242 566 CURVE SMOOTH",
"351 566 OFFCURVE",
"399 532 OFFCURVE",
"399 441 CURVE SMOOTH",
"399 375 OFFCURVE",
"375 341 OFFCURVE",
"328 311 CURVE",
"144 311 LINE"
);
},
{
closed = 1;
nodes = (
"292 706 LINE",
"393 839 LINE",
"352 847 LINE",
"265 759 LINE",
"259 759 LINE",
"170 847 LINE",
"131 839 LINE",
"232 706 LINE"
);
}
);
width = 575;
}
);
note = Rcaron;
rightKerningGroup = R;
unicode = 0158;
},
{
glyphname = Rcommaaccent;
lastChange = "2015-07-20 09:27:30 +0000";
layers = (
{
layerId = "28A75667-7282-4999-AEF1-C99F5F2E1F18";
name = Regular;
paths = (
{
closed = 1;
nodes = (
"516 -7 OFFCURVE",
"530 -4 OFFCURVE",
"546 1 CURVE",
"546 37 LINE",
"496 45 LINE",
"426 200 LINE SMOOTH",
"410 235 OFFCURVE",
"395 254 OFFCURVE",
"363 269 CURVE",
"363 277 LINE",
"428 311 OFFCURVE",
"463 364 OFFCURVE",
"463 443 CURVE SMOOTH",
"463 565 OFFCURVE",
"393 624 OFFCURVE",
"245 624 CURVE SMOOTH",
"194 624 OFFCURVE",
"133 615 OFFCURVE",
"81 600 CURVE",
"81 0 LINE",
"144 0 LINE",
"144 254 LINE",
"260 254 LINE SMOOTH",
"333 252 OFFCURVE",
"349 218 OFFCURVE",
"370 170 CURVE SMOOTH",
"431 32 LINE SMOOTH",
"443 5 OFFCURVE",
"462 -7 OFFCURVE",
"493 -7 CURVE SMOOTH"
);
},
{
closed = 1;
nodes = (
"324 -211 OFFCURVE",
"342 -167 OFFCURVE",
"342 -124 CURVE SMOOTH",
"342 -80 OFFCURVE",
"322 -58 OFFCURVE",
"281 -58 CURVE SMOOTH",
"266 -58 OFFCURVE",
"251 -60 OFFCURVE",
"238 -65 CURVE",
"238 -108 LINE",
"292 -108 LINE",
"292 -159 OFFCURVE",
"279 -198 OFFCURVE",
"257 -238 CURVE",
"295 -247 LINE"
);
},
{
closed = 1;
nodes = (
"144 556 LINE",
"173 562 OFFCURVE",
"209 566 OFFCURVE",
"242 566 CURVE SMOOTH",
"351 566 OFFCURVE",
"399 532 OFFCURVE",
"399 441 CURVE SMOOTH",
"399 375 OFFCURVE",
"375 341 OFFCURVE",
"328 311 CURVE",
"144 311 LINE"
);
}
);
width = 575;
}
);
note = Rcommaaccent;
rightKerningGroup = R;
unicode = 0156;
},
{
glyphname = Rdotbelow;
lastChange = "2015-07-20 09:27:30 +0000";
layers = (
{
layerId = "28A75667-7282-4999-AEF1-C99F5F2E1F18";
name = Regular;
paths = (
{
closed = 1;
nodes = (
"516 -7 OFFCURVE",
"530 -4 OFFCURVE",
"546 1 CURVE",
"546 37 LINE",
"496 45 LINE",
"426 200 LINE SMOOTH",
"410 235 OFFCURVE",
"395 254 OFFCURVE",
"363 269 CURVE",
"363 277 LINE",
"428 311 OFFCURVE",
"463 364 OFFCURVE",
"463 443 CURVE SMOOTH",
"463 565 OFFCURVE",
"393 624 OFFCURVE",
"245 624 CURVE SMOOTH",
"194 624 OFFCURVE",
"133 615 OFFCURVE",
"81 600 CURVE",
"81 0 LINE",
"144 0 LINE",
"144 254 LINE",
"254 254 LINE SMOOTH",
"332 254 OFFCURVE",
"349 220 OFFCURVE",
"370 170 CURVE SMOOTH",
"431 32 LINE SMOOTH",
"443 5 OFFCURVE",
"462 -7 OFFCURVE",
"493 -7 CURVE SMOOTH"
);
},
{
closed = 1;
nodes = (
"322 -158 OFFCURVE",
"340 -141 OFFCURVE",
"340 -111 CURVE SMOOTH",
"340 -80 OFFCURVE",
"322 -62 OFFCURVE",
"290 -62 CURVE SMOOTH",
"259 -62 OFFCURVE",
"240 -80 OFFCURVE",
"240 -111 CURVE SMOOTH",
"240 -141 OFFCURVE",
"259 -158 OFFCURVE",
"290 -158 CURVE SMOOTH"
);
},
{
closed = 1;
nodes = (
"144 556 LINE",
"173 562 OFFCURVE",
"209 566 OFFCURVE",
"242 566 CURVE SMOOTH",
"351 566 OFFCURVE",
"399 532 OFFCURVE",
"399 441 CURVE SMOOTH",
"399 375 OFFCURVE",
"375 341 OFFCURVE",
"328 311 CURVE",
"144 311 LINE"
);
}
);
width = 575;
}
);
note = Rdotbelow;
rightKerningGroup = R;
unicode = 1E5A;
},
{
glyphname = Rdotbelowmacron;
lastChange = "2015-07-20 09:27:30 +0000";
layers = (
{
layerId = "28A75667-7282-4999-AEF1-C99F5F2E1F18";
name = Regular;
paths = (
{
closed = 1;
nodes = (
"516 -7 OFFCURVE",
"530 -4 OFFCURVE",
"546 1 CURVE",
"546 37 LINE",
"496 45 LINE",
"426 200 LINE SMOOTH",
"410 235 OFFCURVE",
"395 254 OFFCURVE",
"363 269 CURVE",
"363 277 LINE",
"428 311 OFFCURVE",
"463 364 OFFCURVE",
"463 443 CURVE SMOOTH",
"463 565 OFFCURVE",
"393 624 OFFCURVE",
"245 624 CURVE SMOOTH",
"194 624 OFFCURVE",
"133 615 OFFCURVE",
"81 600 CURVE",
"81 0 LINE",
"144 0 LINE",
"144 254 LINE",
"254 254 LINE SMOOTH",
"332 254 OFFCURVE",
"349 220 OFFCURVE",
"370 170 CURVE SMOOTH",
"431 32 LINE SMOOTH",
"443 5 OFFCURVE",
"462 -7 OFFCURVE",
"493 -7 CURVE SMOOTH"
);
},
{
closed = 1;
nodes = (
"317 -159 OFFCURVE",
"335 -141 OFFCURVE",
"335 -112 CURVE SMOOTH",
"335 -80 OFFCURVE",
"317 -63 OFFCURVE",
"285 -63 CURVE SMOOTH",
"254 -63 OFFCURVE",
"235 -80 OFFCURVE",
"235 -112 CURVE SMOOTH",
"235 -141 OFFCURVE",
"254 -159 OFFCURVE",
"285 -159 CURVE SMOOTH"
);
},
{
closed = 1;
nodes = (
"144 556 LINE",
"173 562 OFFCURVE",
"209 566 OFFCURVE",
"242 566 CURVE SMOOTH",
"351 566 OFFCURVE",
"399 532 OFFCURVE",
"399 441 CURVE SMOOTH",
"399 375 OFFCURVE",
"375 341 OFFCURVE",
"328 311 CURVE",
"144 311 LINE"
);
},
{
closed = 1;
nodes = (
"390 706 LINE",
"390 759 LINE",
"105 759 LINE",
"105 706 LINE"
);
}
);
width = 575;
}
);
note = Rdotbelowmacron;
rightKerningGroup = R;
unicode = 1E5C;
},
{
glyphname = Rlinebelow;
lastChange = "2015-07-20 09:27:30 +0000";
layers = (
{
layerId = "28A75667-7282-4999-AEF1-C99F5F2E1F18";
name = Regular;
paths = (
{
closed = 1;
nodes = (
"517 -7 OFFCURVE",
"531 -4 OFFCURVE",
"547 1 CURVE",
"547 37 LINE",
"497 45 LINE",
"427 200 LINE SMOOTH",
"411 235 OFFCURVE",
"396 254 OFFCURVE",
"364 269 CURVE",
"364 277 LINE",
"429 311 OFFCURVE",
"464 364 OFFCURVE",
"464 443 CURVE SMOOTH",
"464 565 OFFCURVE",
"394 624 OFFCURVE",
"246 624 CURVE SMOOTH",
"195 624 OFFCURVE",
"134 615 OFFCURVE",
"82 600 CURVE",
"82 0 LINE",
"145 0 LINE",
"145 254 LINE",
"255 254 LINE SMOOTH",
"333 254 OFFCURVE",
"350 220 OFFCURVE",
"371 170 CURVE SMOOTH",
"432 32 LINE SMOOTH",
"444 5 OFFCURVE",
"463 -7 OFFCURVE",
"494 -7 CURVE SMOOTH"
);
},
{
closed = 1;
nodes = (
"386 -128 LINE",
"386 -71 LINE",
"81 -71 LINE",
"81 -128 LINE"
);
},
{
closed = 1;
nodes = (
"144 556 LINE",
"173 562 OFFCURVE",
"209 566 OFFCURVE",
"242 566 CURVE SMOOTH",
"351 566 OFFCURVE",
"399 532 OFFCURVE",
"399 441 CURVE SMOOTH",
"399 375 OFFCURVE",
"375 341 OFFCURVE",
"328 311 CURVE",
"144 311 LINE"
);
}
);
width = 576;
}
);
note = Rlinebelow;
rightKerningGroup = R;
unicode = 1E5E;
},
{
glyphname = S;
lastChange = "2015-07-20 09:27:40 +0000";
layers = (
{
layerId = "28A75667-7282-4999-AEF1-C99F5F2E1F18";
name = Regular;
paths = (
{
closed = 1;
nodes = (
"411 -9 OFFCURVE",
"453 80 OFFCURVE",
"453 174 CURVE SMOOTH",
"453 267 OFFCURVE",
"397 308 OFFCURVE",
"274 337 CURVE SMOOTH",
"170 361 OFFCURVE",
"130 386 OFFCURVE",
"130 455 CURVE SMOOTH",
"130 530 OFFCURVE",
"164 567 OFFCURVE",
"261 567 CURVE SMOOTH",
"298 567 OFFCURVE",
"332 563 OFFCURVE",
"364 559 CURVE",
"374 470 LINE",
"418 470 LINE",
"426 495 OFFCURVE",
"433 528 OFFCURVE",
"433 555 CURVE SMOOTH",
"433 586 LINE",
"393 608 OFFCURVE",
"348 624 OFFCURVE",
"267 624 CURVE SMOOTH",
"110 624 OFFCURVE",
"67 537 OFFCURVE",
"67 447 CURVE SMOOTH",
"67 337 OFFCURVE",
"155 301 OFFCURVE",
"255 277 CURVE SMOOTH",
"350 253 OFFCURVE",
"389 225 OFFCURVE",
"389 155 CURVE SMOOTH",
"389 123 OFFCURVE",
"383 93 OFFCURVE",
"373 71 CURVE",
"344 60 OFFCURVE",
"306 51 OFFCURVE",
"255 51 CURVE SMOOTH",
"189 51 OFFCURVE",
"134 63 OFFCURVE",
"76 91 CURVE",
"54 36 LINE",
"116 5 OFFCURVE",
"181 -9 OFFCURVE",
"249 -9 CURVE SMOOTH"
);
}
);
width = 514;
}
);
leftKerningGroup = S;
note = S;
rightKerningGroup = S;
unicode = 0053;
},
{
glyphname = Sacute;
lastChange = "2015-07-20 09:27:40 +0000";
layers = (
{
layerId = "28A75667-7282-4999-AEF1-C99F5F2E1F18";
name = Regular;
paths = (
{
closed = 1;
nodes = (
"411 -9 OFFCURVE",
"453 80 OFFCURVE",
"453 174 CURVE SMOOTH",
"453 267 OFFCURVE",
"397 308 OFFCURVE",
"274 337 CURVE SMOOTH",
"170 361 OFFCURVE",
"130 386 OFFCURVE",
"130 455 CURVE SMOOTH",
"130 530 OFFCURVE",
"164 567 OFFCURVE",
"261 567 CURVE SMOOTH",
"298 567 OFFCURVE",
"332 563 OFFCURVE",
"364 559 CURVE",
"374 470 LINE",
"418 470 LINE",
"426 495 OFFCURVE",
"433 528 OFFCURVE",
"433 555 CURVE SMOOTH",
"433 586 LINE",
"393 608 OFFCURVE",
"348 624 OFFCURVE",
"267 624 CURVE SMOOTH",
"110 624 OFFCURVE",
"67 537 OFFCURVE",
"67 447 CURVE SMOOTH",
"67 337 OFFCURVE",
"155 301 OFFCURVE",
"255 277 CURVE SMOOTH",
"350 253 OFFCURVE",
"389 225 OFFCURVE",
"389 155 CURVE SMOOTH",
"389 123 OFFCURVE",
"383 93 OFFCURVE",
"373 71 CURVE",
"344 60 OFFCURVE",
"306 51 OFFCURVE",
"255 51 CURVE SMOOTH",
"189 51 OFFCURVE",
"134 63 OFFCURVE",
"76 91 CURVE",
"54 36 LINE",
"116 5 OFFCURVE",
"181 -9 OFFCURVE",
"249 -9 CURVE SMOOTH"
);
},
{
closed = 1;
nodes = (
"385 840 LINE",
"304 849 LINE",
"221 706 LINE",
"266 699 LINE"
);
}
);
width = 514;
}
);
leftKerningGroup = S;
note = Sacute;
rightKerningGroup = S;
unicode = 015A;
},
{
glyphname = Scaron;
lastChange = "2015-07-20 09:27:40 +0000";
layers = (
{
layerId = "28A75667-7282-4999-AEF1-C99F5F2E1F18";
name = Regular;
paths = (
{
closed = 1;
nodes = (
"411 -9 OFFCURVE",
"453 80 OFFCURVE",
"453 174 CURVE SMOOTH",
"453 267 OFFCURVE",
"397 308 OFFCURVE",
"274 337 CURVE SMOOTH",
"170 361 OFFCURVE",
"130 386 OFFCURVE",
"130 455 CURVE SMOOTH",
"130 530 OFFCURVE",
"164 567 OFFCURVE",
"261 567 CURVE SMOOTH",
"298 567 OFFCURVE",
"332 563 OFFCURVE",
"364 559 CURVE",
"374 470 LINE",
"418 470 LINE",
"426 495 OFFCURVE",
"433 528 OFFCURVE",
"433 555 CURVE SMOOTH",
"433 586 LINE",
"393 608 OFFCURVE",
"348 624 OFFCURVE",
"267 624 CURVE SMOOTH",
"110 624 OFFCURVE",
"67 537 OFFCURVE",
"67 447 CURVE SMOOTH",
"67 337 OFFCURVE",
"155 301 OFFCURVE",
"255 277 CURVE SMOOTH",
"350 253 OFFCURVE",
"389 225 OFFCURVE",
"389 155 CURVE SMOOTH",
"389 123 OFFCURVE",
"383 93 OFFCURVE",
"373 71 CURVE",
"344 60 OFFCURVE",
"306 51 OFFCURVE",
"255 51 CURVE SMOOTH",
"189 51 OFFCURVE",
"134 63 OFFCURVE",
"76 91 CURVE",
"54 36 LINE",
"116 5 OFFCURVE",
"181 -9 OFFCURVE",
"249 -9 CURVE SMOOTH"
);
},
{
closed = 1;
nodes = (
"292 706 LINE",
"393 839 LINE",
"352 847 LINE",
"265 759 LINE",
"259 759 LINE",
"170 847 LINE",
"131 839 LINE",
"232 706 LINE"
);
}
);
width = 514;
}
);
leftKerningGroup = S;
note = Scaron;
rightKerningGroup = S;
unicode = 0160;
},
{
glyphname = Scedilla;
lastChange = "2015-07-20 09:27:40 +0000";
layers = (
{
layerId = "28A75667-7282-4999-AEF1-C99F5F2E1F18";
name = Regular;
paths = (
{
closed = 1;
nodes = (
"330 -216 OFFCURVE",
"365 -188 OFFCURVE",
"365 -130 CURVE SMOOTH",
"365 -84 OFFCURVE",
"343 -56 OFFCURVE",
"289 -56 CURVE SMOOTH",
"272 -56 OFFCURVE",
"257 -59 OFFCURVE",
"245 -64 CURVE",
"286 -7 LINE",
"417 6 OFFCURVE",
"453 88 OFFCURVE",
"453 174 CURVE SMOOTH",
"453 267 OFFCURVE",
"397 308 OFFCURVE",
"274 337 CURVE SMOOTH",
"170 361 OFFCURVE",
"130 386 OFFCURVE",
"130 455 CURVE SMOOTH",
"130 530 OFFCURVE",
"164 567 OFFCURVE",
"261 567 CURVE SMOOTH",
"298 567 OFFCURVE",
"332 563 OFFCURVE",
"364 559 CURVE",
"374 470 LINE",
"418 470 LINE",
"426 495 OFFCURVE",
"433 528 OFFCURVE",
"433 555 CURVE SMOOTH",
"433 586 LINE",
"393 608 OFFCURVE",
"348 624 OFFCURVE",
"267 624 CURVE SMOOTH",
"110 624 OFFCURVE",
"67 537 OFFCURVE",
"67 447 CURVE SMOOTH",
"67 337 OFFCURVE",
"155 301 OFFCURVE",
"255 277 CURVE SMOOTH",
"350 253 OFFCURVE",
"389 225 OFFCURVE",
"389 155 CURVE SMOOTH",
"389 123 OFFCURVE",
"383 93 OFFCURVE",
"373 71 CURVE",
"344 60 OFFCURVE",
"306 51 OFFCURVE",
"255 51 CURVE SMOOTH",
"189 51 OFFCURVE",
"134 63 OFFCURVE",
"76 91 CURVE",
"54 36 LINE",
"112 6 OFFCURVE",
"173 -7 OFFCURVE",
"236 -8 CURVE",
"187 -68 LINE",
"223 -104 LINE",
"236 -99 OFFCURVE",
"250 -97 OFFCURVE",
"267 -97 CURVE SMOOTH",
"297 -97 OFFCURVE",
"313 -108 OFFCURVE",
"313 -134 CURVE SMOOTH",
"313 -147 OFFCURVE",
"311 -157 OFFCURVE",
"307 -167 CURVE",
"292 -170 OFFCURVE",
"278 -172 OFFCURVE",
"257 -172 CURVE SMOOTH",
"236 -172 OFFCURVE",
"209 -168 OFFCURVE",
"189 -160 CURVE",
"175 -200 LINE",
"205 -213 OFFCURVE",
"232 -216 OFFCURVE",
"259 -216 CURVE SMOOTH"
);
}
);
width = 514;
}
);
leftKerningGroup = S;
note = Scedilla;
rightKerningGroup = S;
unicode = 015E;
},
{
glyphname = Scircumflex;
lastChange = "2015-07-20 09:27:40 +0000";
layers = (
{
layerId = "28A75667-7282-4999-AEF1-C99F5F2E1F18";
name = Regular;
paths = (
{
closed = 1;
nodes = (
"411 -9 OFFCURVE",
"453 80 OFFCURVE",
"453 174 CURVE SMOOTH",
"453 267 OFFCURVE",
"397 308 OFFCURVE",
"274 337 CURVE SMOOTH",
"170 361 OFFCURVE",
"130 386 OFFCURVE",
"130 455 CURVE SMOOTH",
"130 530 OFFCURVE",
"164 567 OFFCURVE",
"261 567 CURVE SMOOTH",
"298 567 OFFCURVE",
"332 563 OFFCURVE",
"364 559 CURVE",
"374 470 LINE",
"418 470 LINE",
"426 495 OFFCURVE",
"433 528 OFFCURVE",
"433 555 CURVE SMOOTH",
"433 586 LINE",
"393 608 OFFCURVE",
"348 624 OFFCURVE",
"267 624 CURVE SMOOTH",
"110 624 OFFCURVE",
"67 537 OFFCURVE",
"67 447 CURVE SMOOTH",
"67 337 OFFCURVE",
"155 301 OFFCURVE",
"255 277 CURVE SMOOTH",
"350 253 OFFCURVE",
"389 225 OFFCURVE",
"389 155 CURVE SMOOTH",
"389 123 OFFCURVE",
"383 93 OFFCURVE",
"373 71 CURVE",
"344 60 OFFCURVE",
"306 51 OFFCURVE",
"255 51 CURVE SMOOTH",
"189 51 OFFCURVE",
"134 63 OFFCURVE",
"76 91 CURVE",
"54 36 LINE",
"116 5 OFFCURVE",
"181 -9 OFFCURVE",
"249 -9 CURVE SMOOTH"
);
},
{
closed = 1;
nodes = (
"261 786 LINE",
"267 786 LINE",
"354 697 LINE",
"395 706 LINE",
"294 838 LINE",
"234 838 LINE",
"133 706 LINE",
"172 697 LINE"
);
}
);
width = 514;
}
);
leftKerningGroup = S;
note = Scircumflex;
rightKerningGroup = S;
unicode = 015C;
},
{
glyphname = Scommaaccent;
lastChange = "2015-07-20 09:27:40 +0000";
layers = (
{
layerId = "28A75667-7282-4999-AEF1-C99F5F2E1F18";
name = Regular;
paths = (
{
closed = 1;
nodes = (
"411 -9 OFFCURVE",
"453 80 OFFCURVE",
"453 174 CURVE SMOOTH",
"453 267 OFFCURVE",
"397 308 OFFCURVE",
"274 337 CURVE SMOOTH",
"170 361 OFFCURVE",
"130 386 OFFCURVE",
"130 455 CURVE SMOOTH",
"130 530 OFFCURVE",
"164 567 OFFCURVE",
"261 567 CURVE SMOOTH",
"298 567 OFFCURVE",
"332 563 OFFCURVE",
"364 559 CURVE",
"374 470 LINE",
"418 470 LINE",
"426 495 OFFCURVE",
"433 528 OFFCURVE",
"433 555 CURVE SMOOTH",
"433 586 LINE",
"393 608 OFFCURVE",
"348 624 OFFCURVE",
"267 624 CURVE SMOOTH",
"110 624 OFFCURVE",
"67 537 OFFCURVE",
"67 447 CURVE SMOOTH",
"67 337 OFFCURVE",
"155 301 OFFCURVE",
"255 277 CURVE SMOOTH",
"350 253 OFFCURVE",
"389 225 OFFCURVE",
"389 155 CURVE SMOOTH",
"389 123 OFFCURVE",
"383 93 OFFCURVE",
"373 71 CURVE",
"344 60 OFFCURVE",
"306 51 OFFCURVE",
"255 51 CURVE SMOOTH",
"189 51 OFFCURVE",
"134 63 OFFCURVE",
"76 91 CURVE",
"54 36 LINE",
"116 5 OFFCURVE",
"181 -9 OFFCURVE",
"249 -9 CURVE SMOOTH"
);
},
{
closed = 1;
nodes = (
"302 -211 OFFCURVE",
"320 -167 OFFCURVE",
"320 -124 CURVE SMOOTH",
"320 -80 OFFCURVE",
"300 -58 OFFCURVE",
"259 -58 CURVE SMOOTH",
"244 -58 OFFCURVE",
"229 -60 OFFCURVE",
"216 -65 CURVE",
"216 -108 LINE",
"270 -108 LINE",
"270 -159 OFFCURVE",
"257 -198 OFFCURVE",
"235 -238 CURVE",
"273 -247 LINE"
);
}
);
width = 514;
}
);
leftKerningGroup = S;
note = Scommaaccent;
rightKerningGroup = S;
unicode = 0218;
},
{
glyphname = Sdotaccent;
lastChange = "2015-07-20 09:27:40 +0000";
layers = (
{
layerId = "28A75667-7282-4999-AEF1-C99F5F2E1F18";
name = Regular;
paths = (
{
closed = 1;
nodes = (
"411 -9 OFFCURVE",
"453 80 OFFCURVE",
"453 174 CURVE SMOOTH",
"453 267 OFFCURVE",
"397 308 OFFCURVE",
"274 337 CURVE SMOOTH",
"170 361 OFFCURVE",
"130 386 OFFCURVE",
"130 455 CURVE SMOOTH",
"130 530 OFFCURVE",
"164 567 OFFCURVE",
"261 567 CURVE SMOOTH",
"298 567 OFFCURVE",
"332 563 OFFCURVE",
"364 559 CURVE",
"374 470 LINE",
"418 470 LINE",
"426 495 OFFCURVE",
"433 528 OFFCURVE",
"433 555 CURVE SMOOTH",
"433 586 LINE",
"393 608 OFFCURVE",
"348 624 OFFCURVE",
"267 624 CURVE SMOOTH",
"110 624 OFFCURVE",
"67 537 OFFCURVE",
"67 447 CURVE SMOOTH",
"67 337 OFFCURVE",
"155 301 OFFCURVE",
"255 277 CURVE SMOOTH",
"350 253 OFFCURVE",
"389 225 OFFCURVE",
"389 155 CURVE SMOOTH",
"389 123 OFFCURVE",
"383 93 OFFCURVE",
"373 71 CURVE",
"344 60 OFFCURVE",
"306 51 OFFCURVE",
"255 51 CURVE SMOOTH",
"189 51 OFFCURVE",
"134 63 OFFCURVE",
"76 91 CURVE",
"54 36 LINE",
"116 5 OFFCURVE",
"181 -9 OFFCURVE",
"249 -9 CURVE SMOOTH"
);
},
{
closed = 1;
nodes = (
"288 701 OFFCURVE",
"306 719 OFFCURVE",
"306 748 CURVE SMOOTH",
"306 780 OFFCURVE",
"288 797 OFFCURVE",
"256 797 CURVE SMOOTH",
"225 797 OFFCURVE",
"206 780 OFFCURVE",
"206 748 CURVE SMOOTH",
"206 719 OFFCURVE",
"225 701 OFFCURVE",
"256 701 CURVE SMOOTH"
);
}
);
width = 514;
}
);
leftKerningGroup = S;
note = Sdotaccent;
rightKerningGroup = S;
unicode = 1E60;
},
{
glyphname = Sdotbelow;
lastChange = "2015-07-20 09:27:40 +0000";
layers = (
{
layerId = "28A75667-7282-4999-AEF1-C99F5F2E1F18";
name = Regular;
paths = (
{
closed = 1;
nodes = (
"411 -9 OFFCURVE",
"453 80 OFFCURVE",
"453 174 CURVE SMOOTH",
"453 267 OFFCURVE",
"397 308 OFFCURVE",
"274 337 CURVE SMOOTH",
"170 361 OFFCURVE",
"130 386 OFFCURVE",
"130 455 CURVE SMOOTH",
"130 530 OFFCURVE",
"164 567 OFFCURVE",
"261 567 CURVE SMOOTH",
"298 567 OFFCURVE",
"332 563 OFFCURVE",
"364 559 CURVE",
"374 470 LINE",
"418 470 LINE",
"426 495 OFFCURVE",
"433 528 OFFCURVE",
"433 555 CURVE SMOOTH",
"433 586 LINE",
"393 608 OFFCURVE",
"348 624 OFFCURVE",
"267 624 CURVE SMOOTH",
"110 624 OFFCURVE",
"67 537 OFFCURVE",
"67 447 CURVE SMOOTH",
"67 337 OFFCURVE",
"155 301 OFFCURVE",
"255 277 CURVE SMOOTH",
"350 253 OFFCURVE",
"389 225 OFFCURVE",
"389 155 CURVE SMOOTH",
"389 123 OFFCURVE",
"383 93 OFFCURVE",
"373 71 CURVE",
"344 60 OFFCURVE",
"306 51 OFFCURVE",
"255 51 CURVE SMOOTH",
"189 51 OFFCURVE",
"134 63 OFFCURVE",
"76 91 CURVE",
"54 36 LINE",
"116 5 OFFCURVE",
"181 -9 OFFCURVE",
"249 -9 CURVE SMOOTH"
);
},
{
closed = 1;
nodes = (
"297 -159 OFFCURVE",
"315 -141 OFFCURVE",
"315 -112 CURVE SMOOTH",
"315 -80 OFFCURVE",
"297 -63 OFFCURVE",
"265 -63 CURVE SMOOTH",
"234 -63 OFFCURVE",
"215 -80 OFFCURVE",
"215 -112 CURVE SMOOTH",
"215 -141 OFFCURVE",
"234 -159 OFFCURVE",
"265 -159 CURVE SMOOTH"
);
}
);
width = 514;
}
);
leftKerningGroup = S;
note = Sdotbelow;
rightKerningGroup = S;
unicode = 1E62;
},
{
glyphname = uni1E9E;
lastChange = "2015-07-20 05:44:23 +0000";
layers = (
{
layerId = "28A75667-7282-4999-AEF1-C99F5F2E1F18";
name = Regular;
paths = (
{
closed = 1;
nodes = (
"478 -8 OFFCURVE",
"538 57 OFFCURVE",
"538 172 CURVE SMOOTH",
"538 270 OFFCURVE",
"477 334 OFFCURVE",
"344 341 CURVE",
"344 348 LINE",
"486 507 LINE",
"486 551 LINE",
"427 592 OFFCURVE",
"360 614 OFFCURVE",
"285 614 CURVE SMOOTH",
"142 614 OFFCURVE",
"81 537 OFFCURVE",
"81 396 CURVE SMOOTH",
"81 0 LINE",
"143 0 LINE",
"143 396 LINE SMOOTH",
"143 513 OFFCURVE",
"185 556 OFFCURVE",
"291 556 CURVE SMOOTH",
"346 556 OFFCURVE",
"378 548 OFFCURVE",
"419 528 CURVE",
"419 519 LINE",
"275 351 LINE",
"275 293 LINE",
"318 293 LINE SMOOTH",
"425 293 OFFCURVE",
"476 254 OFFCURVE",
"476 173 CURVE SMOOTH",
"476 126 OFFCURVE",
"469 95 OFFCURVE",
"456 66 CURVE",
"426 55 OFFCURVE",
"403 50 OFFCURVE",
"352 50 CURVE SMOOTH",
"309 50 OFFCURVE",
"279 54 OFFCURVE",
"226 69 CURVE",
"210 16 LINE",
"263 -2 OFFCURVE",
"299 -8 OFFCURVE",
"345 -8 CURVE SMOOTH"
);
}
);
width = 583;
}
);
note = uni1E9E;
unicode = 1E9E;
},
{
glyphname = uni018F;
lastChange = "2015-07-20 05:44:27 +0000";
layers = (
{
layerId = "28A75667-7282-4999-AEF1-C99F5F2E1F18";
name = Regular;
paths = (
{
closed = 1;
nodes = (
"469 -8 OFFCURVE",
"547 107 OFFCURVE",
"547 314 CURVE SMOOTH",
"547 513 OFFCURVE",
"457 624 OFFCURVE",
"285 624 CURVE SMOOTH",
"178 624 OFFCURVE",
"116 592 OFFCURVE",
"61 558 CURVE",
"86 509 LINE",
"138 542 OFFCURVE",
"188 565 OFFCURVE",
"278 565 CURVE SMOOTH",
"409 565 OFFCURVE",
"484 497 OFFCURVE",
"484 336 CURVE",
"131 340 LINE",
"59 277 LINE",
"57 265 OFFCURVE",
"57 249 OFFCURVE",
"57 237 CURVE SMOOTH",
"57 90 OFFCURVE",
"129 -8 OFFCURVE",
"288 -8 CURVE SMOOTH"
);
},
{
closed = 1;
nodes = (
"177 51 OFFCURVE",
"119 116 OFFCURVE",
"119 218 CURVE SMOOTH",
"119 241 OFFCURVE",
"120 254 OFFCURVE",
"123 278 CURVE",
"484 283 LINE",
"484 136 OFFCURVE",
"430 51 OFFCURVE",
"289 51 CURVE SMOOTH"
);
}
);
width = 618;
}
);
note = uni018F;
unicode = 018F;
},
{
glyphname = T;
lastChange = "2015-07-20 09:49:16 +0000";
layers = (
{
layerId = "28A75667-7282-4999-AEF1-C99F5F2E1F18";
name = Regular;
paths = (
{
closed = 1;
nodes = (
"298 0 LINE",
"298 555 LINE",
"496 555 LINE",
"496 614 LINE",
"37 614 LINE",
"37 555 LINE",
"235 555 LINE",
"235 0 LINE"
);
}
);
width = 533;
}
);
leftKerningGroup = T;
note = T;
rightKerningGroup = T;
unicode = 0054;
},
{
glyphname = Tbar;
lastChange = "2015-07-20 09:27:48 +0000";
layers = (
{
layerId = "28A75667-7282-4999-AEF1-C99F5F2E1F18";
name = Regular;
paths = (
{
closed = 1;
nodes = (
"298 0 LINE",
"298 282 LINE",
"415 282 LINE",
"415 333 LINE",
"298 333 LINE",
"298 555 LINE",
"496 555 LINE",
"496 614 LINE",
"37 614 LINE",
"37 555 LINE",
"235 555 LINE",
"235 333 LINE",
"119 333 LINE",
"119 282 LINE",
"235 282 LINE",
"235 0 LINE"
);
}
);
width = 533;
}
);
leftKerningGroup = T;
note = Tbar;
rightKerningGroup = T;
unicode = 0166;
},
{
glyphname = Tcaron;
lastChange = "2015-07-20 09:27:48 +0000";
layers = (
{
layerId = "28A75667-7282-4999-AEF1-C99F5F2E1F18";
name = Regular;
paths = (
{
closed = 1;
nodes = (
"298 0 LINE",
"298 555 LINE",
"496 555 LINE",
"496 614 LINE",
"37 614 LINE",
"37 555 LINE",
"235 555 LINE",
"235 0 LINE"
);
},
{
closed = 1;
nodes = (
"297 706 LINE",
"398 839 LINE",
"357 847 LINE",
"270 759 LINE",
"264 759 LINE",
"175 847 LINE",
"136 839 LINE",
"237 706 LINE"
);
}
);
width = 533;
}
);
leftKerningGroup = T;
note = Tcaron;
rightKerningGroup = T;
unicode = 0164;
},
{
glyphname = Tcedilla;
lastChange = "2015-07-20 09:27:48 +0000";
layers = (
{
layerId = "28A75667-7282-4999-AEF1-C99F5F2E1F18";
name = Regular;
paths = (
{
closed = 1;
nodes = (
"319 -216 OFFCURVE",
"354 -188 OFFCURVE",
"354 -130 CURVE SMOOTH",
"354 -84 OFFCURVE",
"332 -57 OFFCURVE",
"279 -57 CURVE SMOOTH",
"261 -57 OFFCURVE",
"246 -59 OFFCURVE",
"234 -64 CURVE",
"281 0 LINE",
"298 0 LINE",
"298 555 LINE",
"496 555 LINE",
"496 614 LINE",
"37 614 LINE",
"37 555 LINE",
"235 555 LINE",
"235 2 LINE",
"176 -68 LINE",
"213 -104 LINE",
"225 -99 OFFCURVE",
"239 -97 OFFCURVE",
"256 -97 CURVE SMOOTH",
"287 -97 OFFCURVE",
"302 -109 OFFCURVE",
"302 -134 CURVE SMOOTH",
"302 -147 OFFCURVE",
"300 -158 OFFCURVE",
"297 -167 CURVE",
"282 -171 OFFCURVE",
"268 -172 OFFCURVE",
"247 -172 CURVE SMOOTH",
"225 -172 OFFCURVE",
"198 -168 OFFCURVE",
"178 -161 CURVE",
"164 -200 LINE",
"194 -213 OFFCURVE",
"221 -216 OFFCURVE",
"248 -216 CURVE SMOOTH"
);
}
);
width = 533;
}
);
leftKerningGroup = T;
note = Tcedilla;
rightKerningGroup = T;
unicode = 0162;
},
{
glyphname = Tcommaaccent;
lastChange = "2015-07-20 09:27:48 +0000";
layers = (
{
layerId = "28A75667-7282-4999-AEF1-C99F5F2E1F18";
name = Regular;
paths = (
{
closed = 1;
nodes = (
"303 0 LINE",
"303 555 LINE",
"501 555 LINE",
"501 614 LINE",
"42 614 LINE",
"42 555 LINE",
"240 555 LINE",
"240 0 LINE"
);
},
{
closed = 1;
nodes = (
"305 -208 OFFCURVE",
"323 -164 OFFCURVE",
"323 -121 CURVE SMOOTH",
"323 -77 OFFCURVE",
"303 -55 OFFCURVE",
"262 -55 CURVE SMOOTH",
"247 -55 OFFCURVE",
"232 -57 OFFCURVE",
"219 -62 CURVE",
"219 -105 LINE",
"273 -105 LINE",
"273 -156 OFFCURVE",
"260 -195 OFFCURVE",
"238 -235 CURVE",
"276 -244 LINE"
);
}
);
width = 544;
}
);
leftKerningGroup = T;
note = Tcommaaccent;
rightKerningGroup = T;
},
{
glyphname = Tdotbelow;
lastChange = "2015-07-20 09:27:48 +0000";
layers = (
{
layerId = "28A75667-7282-4999-AEF1-C99F5F2E1F18";
name = Regular;
paths = (
{
closed = 1;
nodes = (
"298 0 LINE",
"298 555 LINE",
"496 555 LINE",
"496 614 LINE",
"37 614 LINE",
"37 555 LINE",
"235 555 LINE",
"235 0 LINE"
);
},
{
closed = 1;
nodes = (
"299 -164 OFFCURVE",
"317 -146 OFFCURVE",
"317 -117 CURVE SMOOTH",
"317 -85 OFFCURVE",
"299 -68 OFFCURVE",
"267 -68 CURVE SMOOTH",
"236 -68 OFFCURVE",
"217 -85 OFFCURVE",
"217 -117 CURVE SMOOTH",
"217 -146 OFFCURVE",
"236 -164 OFFCURVE",
"267 -164 CURVE SMOOTH"
);
}
);
width = 533;
}
);
leftKerningGroup = T;
note = Tdotbelow;
rightKerningGroup = T;
unicode = 1E6C;
},
{
glyphname = Tlinebelow;
lastChange = "2015-07-20 09:27:48 +0000";
layers = (
{
layerId = "28A75667-7282-4999-AEF1-C99F5F2E1F18";
name = Regular;
paths = (
{
closed = 1;
nodes = (
"298 0 LINE",
"298 555 LINE",
"496 555 LINE",
"496 614 LINE",
"37 614 LINE",
"37 555 LINE",
"235 555 LINE",
"235 0 LINE"
);
},
{
closed = 1;
nodes = (
"419 -128 LINE",
"419 -71 LINE",
"114 -71 LINE",
"114 -128 LINE"
);
}
);
width = 533;
}
);
leftKerningGroup = T;
note = Tlinebelow;
rightKerningGroup = T;
unicode = 1E6E;
},
{
glyphname = U;
lastChange = "2015-07-20 05:44:23 +0000";
layers = (
{
layerId = "28A75667-7282-4999-AEF1-C99F5F2E1F18";
name = Regular;
paths = (
{
closed = 1;
nodes = (
"426 -9 OFFCURVE",
"519 23 OFFCURVE",
"519 104 CURVE SMOOTH",
"519 614 LINE",
"456 614 LINE",
"456 75 LINE",
"422 60 OFFCURVE",
"369 50 OFFCURVE",
"300 50 CURVE SMOOTH",
"190 50 OFFCURVE",
"141 79 OFFCURVE",
"141 184 CURVE SMOOTH",
"141 614 LINE",
"78 614 LINE",
"78 170 LINE SMOOTH",
"78 49 OFFCURVE",
"152 -9 OFFCURVE",
"293 -9 CURVE SMOOTH"
);
}
);
width = 599;
}
);
note = U;
unicode = 0055;
},
{
glyphname = Uacute;
lastChange = "2015-07-20 05:44:26 +0000";
layers = (
{
layerId = "28A75667-7282-4999-AEF1-C99F5F2E1F18";
name = Regular;
paths = (
{
closed = 1;
nodes = (
"426 -9 OFFCURVE",
"519 23 OFFCURVE",
"519 104 CURVE SMOOTH",
"519 614 LINE",
"456 614 LINE",
"456 75 LINE",
"422 60 OFFCURVE",
"369 50 OFFCURVE",
"300 50 CURVE SMOOTH",
"190 50 OFFCURVE",
"141 79 OFFCURVE",
"141 184 CURVE SMOOTH",
"141 614 LINE",
"78 614 LINE",
"78 170 LINE SMOOTH",
"78 49 OFFCURVE",
"152 -9 OFFCURVE",
"293 -9 CURVE SMOOTH"
);
},
{
closed = 1;
nodes = (
"423 839 LINE",
"342 847 LINE",
"259 705 LINE",
"304 697 LINE"
);
}
);
width = 599;
}
);
note = Uacute;
unicode = 00DA;
},
{
glyphname = Ubreve;
lastChange = "2015-07-20 05:44:27 +0000";
layers = (
{
layerId = "28A75667-7282-4999-AEF1-C99F5F2E1F18";
name = Regular;
paths = (
{
closed = 1;
nodes = (
"426 -9 OFFCURVE",
"519 23 OFFCURVE",
"519 104 CURVE SMOOTH",
"519 614 LINE",
"456 614 LINE",
"456 75 LINE",
"422 60 OFFCURVE",
"369 50 OFFCURVE",
"300 50 CURVE SMOOTH",
"190 50 OFFCURVE",
"141 79 OFFCURVE",
"141 184 CURVE SMOOTH",
"141 614 LINE",
"78 614 LINE",
"78 170 LINE SMOOTH",
"78 49 OFFCURVE",
"152 -9 OFFCURVE",
"293 -9 CURVE SMOOTH"
);
},
{
closed = 1;
nodes = (
"381 701 OFFCURVE",
"418 745 OFFCURVE",
"428 807 CURVE",
"369 817 LINE",
"364 777 OFFCURVE",
"351 751 OFFCURVE",
"301 751 CURVE SMOOTH",
"250 751 OFFCURVE",
"237 777 OFFCURVE",
"232 817 CURVE",
"173 807 LINE",
"183 745 OFFCURVE",
"220 701 OFFCURVE",
"301 701 CURVE SMOOTH"
);
}
);
width = 599;
}
);
note = Ubreve;
unicode = 016C;
},
{
glyphname = Ucaron;
lastChange = "2015-07-20 05:44:27 +0000";
layers = (
{
layerId = "28A75667-7282-4999-AEF1-C99F5F2E1F18";
name = Regular;
paths = (
{
closed = 1;
nodes = (
"426 -9 OFFCURVE",
"519 23 OFFCURVE",
"519 104 CURVE SMOOTH",
"519 614 LINE",
"456 614 LINE",
"456 75 LINE",
"422 60 OFFCURVE",
"369 50 OFFCURVE",
"300 50 CURVE SMOOTH",
"190 50 OFFCURVE",
"141 79 OFFCURVE",
"141 184 CURVE SMOOTH",
"141 614 LINE",
"78 614 LINE",
"78 170 LINE SMOOTH",
"78 49 OFFCURVE",
"152 -9 OFFCURVE",
"293 -9 CURVE SMOOTH"
);
},
{
closed = 1;
nodes = (
"329 706 LINE",
"430 839 LINE",
"389 847 LINE",
"302 759 LINE",
"296 759 LINE",
"207 847 LINE",
"168 839 LINE",
"269 706 LINE"
);
}
);
width = 599;
}
);
note = Ucaron;
unicode = 01D3;
},
{
glyphname = Ucircumflex;
lastChange = "2015-07-20 05:44:27 +0000";
layers = (
{
layerId = "28A75667-7282-4999-AEF1-C99F5F2E1F18";
name = Regular;
paths = (
{
closed = 1;
nodes = (
"426 -9 OFFCURVE",
"519 23 OFFCURVE",
"519 104 CURVE SMOOTH",
"519 614 LINE",
"456 614 LINE",
"456 75 LINE",
"422 60 OFFCURVE",
"369 50 OFFCURVE",
"300 50 CURVE SMOOTH",
"190 50 OFFCURVE",
"141 79 OFFCURVE",
"141 184 CURVE SMOOTH",
"141 614 LINE",
"78 614 LINE",
"78 170 LINE SMOOTH",
"78 49 OFFCURVE",
"152 -9 OFFCURVE",
"293 -9 CURVE SMOOTH"
);
},
{
closed = 1;
nodes = (
"297 786 LINE",
"303 786 LINE",
"390 697 LINE",
"431 706 LINE",
"330 838 LINE",
"270 838 LINE",
"169 706 LINE",
"208 697 LINE"
);
}
);
width = 599;
}
);
note = Ucircumflex;
unicode = 00DB;
},
{
glyphname = Udieresis;
lastChange = "2015-07-20 05:44:27 +0000";
layers = (
{
layerId = "28A75667-7282-4999-AEF1-C99F5F2E1F18";
name = Regular;
paths = (
{
closed = 1;
nodes = (
"426 -9 OFFCURVE",
"519 23 OFFCURVE",
"519 104 CURVE SMOOTH",
"519 614 LINE",
"456 614 LINE",
"456 75 LINE",
"422 60 OFFCURVE",
"369 50 OFFCURVE",
"300 50 CURVE SMOOTH",
"190 50 OFFCURVE",
"141 79 OFFCURVE",
"141 184 CURVE SMOOTH",
"141 614 LINE",
"78 614 LINE",
"78 170 LINE SMOOTH",
"78 49 OFFCURVE",
"152 -9 OFFCURVE",
"293 -9 CURVE SMOOTH"
);
},
{
closed = 1;
nodes = (
"247 701 OFFCURVE",
"261 715 OFFCURVE",
"261 738 CURVE SMOOTH",
"261 762 OFFCURVE",
"247 775 OFFCURVE",
"223 775 CURVE SMOOTH",
"199 775 OFFCURVE",
"184 762 OFFCURVE",
"184 738 CURVE SMOOTH",
"184 715 OFFCURVE",
"199 701 OFFCURVE",
"223 701 CURVE SMOOTH"
);
},
{
closed = 1;
nodes = (
"405 701 OFFCURVE",
"419 715 OFFCURVE",
"419 738 CURVE SMOOTH",
"419 762 OFFCURVE",
"405 775 OFFCURVE",
"381 775 CURVE SMOOTH",
"356 775 OFFCURVE",
"341 762 OFFCURVE",
"341 738 CURVE SMOOTH",
"341 715 OFFCURVE",
"356 701 OFFCURVE",
"381 701 CURVE SMOOTH"
);
}
);
width = 599;
}
);
note = Udieresis;
unicode = 00DC;
},
{
glyphname = Udieresisacute;
lastChange = "2015-07-20 05:44:28 +0000";
layers = (
{
layerId = "28A75667-7282-4999-AEF1-C99F5F2E1F18";
name = Regular;
paths = (
{
closed = 1;
nodes = (
"426 -9 OFFCURVE",
"519 23 OFFCURVE",
"519 104 CURVE SMOOTH",
"519 614 LINE",
"456 614 LINE",
"456 75 LINE",
"422 60 OFFCURVE",
"369 50 OFFCURVE",
"300 50 CURVE SMOOTH",
"190 50 OFFCURVE",
"141 79 OFFCURVE",
"141 184 CURVE SMOOTH",
"141 614 LINE",
"78 614 LINE",
"78 170 LINE SMOOTH",
"78 49 OFFCURVE",
"152 -9 OFFCURVE",
"293 -9 CURVE SMOOTH"
);
},
{
closed = 1;
nodes = (
"245 704 OFFCURVE",
"259 717 OFFCURVE",
"259 740 CURVE SMOOTH",
"259 764 OFFCURVE",
"245 777 OFFCURVE",
"221 777 CURVE SMOOTH",
"197 777 OFFCURVE",
"182 764 OFFCURVE",
"182 740 CURVE SMOOTH",
"182 717 OFFCURVE",
"197 704 OFFCURVE",
"221 704 CURVE SMOOTH"
);
},
{
closed = 1;
nodes = (
"403 704 OFFCURVE",
"417 717 OFFCURVE",
"417 740 CURVE SMOOTH",
"417 764 OFFCURVE",
"403 777 OFFCURVE",
"379 777 CURVE SMOOTH",
"354 777 OFFCURVE",
"339 764 OFFCURVE",
"339 740 CURVE SMOOTH",
"339 717 OFFCURVE",
"354 704 OFFCURVE",
"379 704 CURVE SMOOTH"
);
},
{
closed = 1;
nodes = (
"422 972 LINE",
"344 982 LINE",
"270 854 LINE",
"315 847 LINE"
);
}
);
width = 599;
}
);
note = Udieresisacute;
unicode = 01D7;
},
{
glyphname = Udieresiscaron;
lastChange = "2015-07-20 05:44:27 +0000";
layers = (
{
layerId = "28A75667-7282-4999-AEF1-C99F5F2E1F18";
name = Regular;
paths = (
{
closed = 1;
nodes = (
"426 -9 OFFCURVE",
"519 23 OFFCURVE",
"519 104 CURVE SMOOTH",
"519 614 LINE",
"456 614 LINE",
"456 75 LINE",
"422 60 OFFCURVE",
"369 50 OFFCURVE",
"300 50 CURVE SMOOTH",
"190 50 OFFCURVE",
"141 79 OFFCURVE",
"141 184 CURVE SMOOTH",
"141 614 LINE",
"78 614 LINE",
"78 170 LINE SMOOTH",
"78 49 OFFCURVE",
"152 -9 OFFCURVE",
"293 -9 CURVE SMOOTH"
);
},
{
closed = 1;
nodes = (
"243 701 OFFCURVE",
"257 715 OFFCURVE",
"257 738 CURVE SMOOTH",
"257 762 OFFCURVE",
"243 775 OFFCURVE",
"219 775 CURVE SMOOTH",
"195 775 OFFCURVE",
"180 762 OFFCURVE",
"180 738 CURVE SMOOTH",
"180 715 OFFCURVE",
"195 701 OFFCURVE",
"219 701 CURVE SMOOTH"
);
},
{
closed = 1;
nodes = (
"401 701 OFFCURVE",
"415 715 OFFCURVE",
"415 738 CURVE SMOOTH",
"415 762 OFFCURVE",
"401 775 OFFCURVE",
"377 775 CURVE SMOOTH",
"352 775 OFFCURVE",
"337 762 OFFCURVE",
"337 738 CURVE SMOOTH",
"337 715 OFFCURVE",
"352 701 OFFCURVE",
"377 701 CURVE SMOOTH"
);
},
{
closed = 1;
nodes = (
"325 838 LINE",
"421 964 LINE",
"381 972 LINE",
"298 889 LINE",
"292 889 LINE",
"208 972 LINE",
"169 964 LINE",
"265 838 LINE"
);
}
);
width = 599;
}
);
note = Udieresiscaron;
unicode = 01D9;
},
{
glyphname = Udieresisgrave;
lastChange = "2015-07-20 05:44:27 +0000";
layers = (
{
layerId = "28A75667-7282-4999-AEF1-C99F5F2E1F18";
name = Regular;
paths = (
{
closed = 1;
nodes = (
"426 -9 OFFCURVE",
"519 23 OFFCURVE",
"519 104 CURVE SMOOTH",
"519 614 LINE",
"456 614 LINE",
"456 75 LINE",
"422 60 OFFCURVE",
"369 50 OFFCURVE",
"300 50 CURVE SMOOTH",
"190 50 OFFCURVE",
"141 79 OFFCURVE",
"141 184 CURVE SMOOTH",
"141 614 LINE",
"78 614 LINE",
"78 170 LINE SMOOTH",
"78 49 OFFCURVE",
"152 -9 OFFCURVE",
"293 -9 CURVE SMOOTH"
);
},
{
closed = 1;
nodes = (
"244 701 OFFCURVE",
"258 715 OFFCURVE",
"258 738 CURVE SMOOTH",
"258 762 OFFCURVE",
"244 775 OFFCURVE",
"219 775 CURVE SMOOTH",
"196 775 OFFCURVE",
"181 762 OFFCURVE",
"181 738 CURVE SMOOTH",
"181 715 OFFCURVE",
"196 701 OFFCURVE",
"219 701 CURVE SMOOTH"
);
},
{
closed = 1;
nodes = (
"401 701 OFFCURVE",
"415 715 OFFCURVE",
"415 738 CURVE SMOOTH",
"415 762 OFFCURVE",
"401 775 OFFCURVE",
"377 775 CURVE SMOOTH",
"353 775 OFFCURVE",
"338 762 OFFCURVE",
"338 738 CURVE SMOOTH",
"338 715 OFFCURVE",
"353 701 OFFCURVE",
"377 701 CURVE SMOOTH"
);
},
{
closed = 1;
nodes = (
"329 852 LINE",
"254 979 LINE",
"177 970 LINE",
"283 844 LINE"
);
}
);
width = 599;
}
);
note = Udieresisgrave;
unicode = 01DB;
},
{
glyphname = Udieresismacron;
lastChange = "2015-07-20 05:44:28 +0000";
layers = (
{
layerId = "28A75667-7282-4999-AEF1-C99F5F2E1F18";
name = Regular;
paths = (
{
closed = 1;
nodes = (
"426 -9 OFFCURVE",
"519 23 OFFCURVE",
"519 104 CURVE SMOOTH",
"519 614 LINE",
"456 614 LINE",
"456 75 LINE",
"422 60 OFFCURVE",
"369 50 OFFCURVE",
"300 50 CURVE SMOOTH",
"190 50 OFFCURVE",
"141 79 OFFCURVE",
"141 184 CURVE SMOOTH",
"141 614 LINE",
"78 614 LINE",
"78 170 LINE SMOOTH",
"78 49 OFFCURVE",
"152 -9 OFFCURVE",
"293 -9 CURVE SMOOTH"
);
},
{
closed = 1;
nodes = (
"245 703 OFFCURVE",
"259 717 OFFCURVE",
"259 740 CURVE SMOOTH",
"259 764 OFFCURVE",
"245 777 OFFCURVE",
"221 777 CURVE SMOOTH",
"197 777 OFFCURVE",
"182 764 OFFCURVE",
"182 740 CURVE SMOOTH",
"182 717 OFFCURVE",
"197 703 OFFCURVE",
"221 703 CURVE SMOOTH"
);
},
{
closed = 1;
nodes = (
"403 703 OFFCURVE",
"417 717 OFFCURVE",
"417 740 CURVE SMOOTH",
"417 764 OFFCURVE",
"403 777 OFFCURVE",
"379 777 CURVE SMOOTH",
"354 777 OFFCURVE",
"339 764 OFFCURVE",
"339 740 CURVE SMOOTH",
"339 717 OFFCURVE",
"354 703 OFFCURVE",
"379 703 CURVE SMOOTH"
);
},
{
closed = 1;
nodes = (
"443 841 LINE",
"443 894 LINE",
"158 894 LINE",
"158 841 LINE"
);
}
);
width = 599;
}
);
note = Udieresismacron;
unicode = 01D5;
},
{
glyphname = Udotbelow;
lastChange = "2015-07-20 05:44:26 +0000";
layers = (
{
layerId = "28A75667-7282-4999-AEF1-C99F5F2E1F18";
name = Regular;
paths = (
{
closed = 1;
nodes = (
"426 -9 OFFCURVE",
"519 23 OFFCURVE",
"519 104 CURVE SMOOTH",
"519 614 LINE",
"456 614 LINE",
"456 75 LINE",
"422 60 OFFCURVE",
"369 50 OFFCURVE",
"300 50 CURVE SMOOTH",
"190 50 OFFCURVE",
"141 79 OFFCURVE",
"141 184 CURVE SMOOTH",
"141 614 LINE",
"78 614 LINE",
"78 170 LINE SMOOTH",
"78 49 OFFCURVE",
"152 -9 OFFCURVE",
"293 -9 CURVE SMOOTH"
);
},
{
closed = 1;
nodes = (
"339 -164 OFFCURVE",
"357 -146 OFFCURVE",
"357 -117 CURVE SMOOTH",
"357 -85 OFFCURVE",
"339 -68 OFFCURVE",
"307 -68 CURVE SMOOTH",
"276 -68 OFFCURVE",
"257 -85 OFFCURVE",
"257 -117 CURVE SMOOTH",
"257 -146 OFFCURVE",
"276 -164 OFFCURVE",
"307 -164 CURVE SMOOTH"
);
}
);
width = 599;
}
);
note = Udotbelow;
unicode = 1EE4;
},
{
glyphname = Ugrave;
lastChange = "2015-07-20 05:44:26 +0000";
layers = (
{
layerId = "28A75667-7282-4999-AEF1-C99F5F2E1F18";
name = Regular;
paths = (
{
closed = 1;
nodes = (
"426 -9 OFFCURVE",
"519 23 OFFCURVE",
"519 104 CURVE SMOOTH",
"519 614 LINE",
"456 614 LINE",
"456 75 LINE",
"422 60 OFFCURVE",
"369 50 OFFCURVE",
"300 50 CURVE SMOOTH",
"190 50 OFFCURVE",
"141 79 OFFCURVE",
"141 184 CURVE SMOOTH",
"141 614 LINE",
"78 614 LINE",
"78 170 LINE SMOOTH",
"78 49 OFFCURVE",
"152 -9 OFFCURVE",
"293 -9 CURVE SMOOTH"
);
},
{
closed = 1;
nodes = (
"339 706 LINE",
"256 848 LINE",
"175 840 LINE",
"294 698 LINE"
);
}
);
width = 599;
}
);
note = Ugrave;
unicode = 00D9;
},
{
glyphname = Uhookabove;
lastChange = "2015-07-20 05:44:26 +0000";
layers = (
{
layerId = "28A75667-7282-4999-AEF1-C99F5F2E1F18";
name = Regular;
paths = (
{
closed = 1;
nodes = (
"426 -9 OFFCURVE",
"519 23 OFFCURVE",
"519 104 CURVE SMOOTH",
"519 614 LINE",
"456 614 LINE",
"456 75 LINE",
"422 60 OFFCURVE",
"369 50 OFFCURVE",
"300 50 CURVE SMOOTH",
"190 50 OFFCURVE",
"141 79 OFFCURVE",
"141 184 CURVE SMOOTH",
"141 614 LINE",
"78 614 LINE",
"78 170 LINE SMOOTH",
"78 49 OFFCURVE",
"152 -9 OFFCURVE",
"293 -9 CURVE SMOOTH"
);
},
{
closed = 1;
nodes = (
"315 706 LINE",
"315 747 LINE",
"369 748 OFFCURVE",
"407 767 OFFCURVE",
"407 821 CURVE SMOOTH",
"407 864 OFFCURVE",
"382 896 OFFCURVE",
"321 896 CURVE SMOOTH",
"294 896 OFFCURVE",
"271 892 OFFCURVE",
"245 881 CURVE",
"258 844 LINE",
"275 851 OFFCURVE",
"295 854 OFFCURVE",
"312 854 CURVE SMOOTH",
"345 854 OFFCURVE",
"358 844 OFFCURVE",
"358 819 CURVE SMOOTH",
"358 787 OFFCURVE",
"333 783 OFFCURVE",
"269 783 CURVE",
"269 755 LINE",
"281 706 LINE"
);
}
);
width = 599;
}
);
note = Uhookabove;
unicode = 1EE6;
},
{
glyphname = Uhorn;
lastChange = "2015-07-20 05:44:23 +0000";
layers = (
{
layerId = "28A75667-7282-4999-AEF1-C99F5F2E1F18";
name = Regular;
paths = (
{
closed = 1;
nodes = (
"426 -10 OFFCURVE",
"519 22 OFFCURVE",
"519 102 CURVE SMOOTH",
"519 450 LINE",
"644 482 OFFCURVE",
"722 558 OFFCURVE",
"722 694 CURVE",
"659 694 LINE",
"658 590 OFFCURVE",
"607 540 OFFCURVE",
"529 507 CURVE",
"518 507 LINE",
"518 614 LINE",
"456 614 LINE",
"456 74 LINE",
"422 59 OFFCURVE",
"369 48 OFFCURVE",
"300 48 CURVE SMOOTH",
"190 48 OFFCURVE",
"141 77 OFFCURVE",
"141 182 CURVE SMOOTH",
"141 614 LINE",
"78 614 LINE",
"78 169 LINE SMOOTH",
"78 47 OFFCURVE",
"152 -10 OFFCURVE",
"293 -10 CURVE SMOOTH"
);
}
);
width = 722;
}
);
note = Uhorn;
unicode = 01AF;
},
{
glyphname = Uhornacute;
lastChange = "2015-07-20 05:44:27 +0000";
layers = (
{
layerId = "28A75667-7282-4999-AEF1-C99F5F2E1F18";
name = Regular;
paths = (
{
closed = 1;
nodes = (
"426 -10 OFFCURVE",
"519 22 OFFCURVE",
"519 102 CURVE SMOOTH",
"519 450 LINE",
"644 482 OFFCURVE",
"722 558 OFFCURVE",
"722 694 CURVE",
"659 694 LINE",
"658 590 OFFCURVE",
"607 540 OFFCURVE",
"529 507 CURVE",
"518 507 LINE",
"518 614 LINE",
"456 614 LINE",
"456 74 LINE",
"422 59 OFFCURVE",
"369 48 OFFCURVE",
"300 48 CURVE SMOOTH",
"190 48 OFFCURVE",
"141 77 OFFCURVE",
"141 182 CURVE SMOOTH",
"141 614 LINE",
"78 614 LINE",
"78 169 LINE SMOOTH",
"78 47 OFFCURVE",
"152 -10 OFFCURVE",
"293 -10 CURVE SMOOTH"
);
},
{
closed = 1;
nodes = (
"435 839 LINE",
"354 848 LINE",
"271 705 LINE",
"316 698 LINE"
);
}
);
width = 722;
}
);
note = Uhornacute;
unicode = 1EE8;
},
{
glyphname = Uhorndotbelow;
lastChange = "2015-07-20 05:44:28 +0000";
layers = (
{
layerId = "28A75667-7282-4999-AEF1-C99F5F2E1F18";
name = Regular;
paths = (
{
closed = 1;
nodes = (
"426 -10 OFFCURVE",
"519 22 OFFCURVE",
"519 102 CURVE SMOOTH",
"519 450 LINE",
"644 482 OFFCURVE",
"722 558 OFFCURVE",
"722 694 CURVE",
"659 694 LINE",
"658 590 OFFCURVE",
"607 540 OFFCURVE",
"529 507 CURVE",
"518 507 LINE",
"518 614 LINE",
"456 614 LINE",
"456 74 LINE",
"422 59 OFFCURVE",
"369 48 OFFCURVE",
"300 48 CURVE SMOOTH",
"190 48 OFFCURVE",
"141 77 OFFCURVE",
"141 182 CURVE SMOOTH",
"141 614 LINE",
"78 614 LINE",
"78 169 LINE SMOOTH",
"78 47 OFFCURVE",
"152 -10 OFFCURVE",
"293 -10 CURVE SMOOTH"
);
},
{
closed = 1;
nodes = (
"338 -164 OFFCURVE",
"356 -146 OFFCURVE",
"356 -117 CURVE SMOOTH",
"356 -85 OFFCURVE",
"338 -68 OFFCURVE",
"306 -68 CURVE SMOOTH",
"275 -68 OFFCURVE",
"256 -85 OFFCURVE",
"256 -117 CURVE SMOOTH",
"256 -146 OFFCURVE",
"275 -164 OFFCURVE",
"306 -164 CURVE SMOOTH"
);
}
);
width = 722;
}
);
note = Uhorndotbelow;
unicode = 1EF0;
},
{
glyphname = Uhorngrave;
lastChange = "2015-07-20 05:44:27 +0000";
layers = (
{
layerId = "28A75667-7282-4999-AEF1-C99F5F2E1F18";
name = Regular;
paths = (
{
closed = 1;
nodes = (
"426 -10 OFFCURVE",
"519 22 OFFCURVE",
"519 102 CURVE SMOOTH",
"519 450 LINE",
"644 482 OFFCURVE",
"722 558 OFFCURVE",
"722 694 CURVE",
"659 694 LINE",
"658 590 OFFCURVE",
"607 540 OFFCURVE",
"529 507 CURVE",
"518 507 LINE",
"518 614 LINE",
"456 614 LINE",
"456 74 LINE",
"422 59 OFFCURVE",
"369 48 OFFCURVE",
"300 48 CURVE SMOOTH",
"190 48 OFFCURVE",
"141 77 OFFCURVE",
"141 182 CURVE SMOOTH",
"141 614 LINE",
"78 614 LINE",
"78 169 LINE SMOOTH",
"78 47 OFFCURVE",
"152 -10 OFFCURVE",
"293 -10 CURVE SMOOTH"
);
},
{
closed = 1;
nodes = (
"343 706 LINE",
"260 849 LINE",
"179 840 LINE",
"298 699 LINE"
);
}
);
width = 722;
}
);
note = Uhorngrave;
unicode = 1EEA;
},
{
glyphname = Uhornhookabove;
lastChange = "2015-07-20 05:44:27 +0000";
layers = (
{
layerId = "28A75667-7282-4999-AEF1-C99F5F2E1F18";
name = Regular;
paths = (
{
closed = 1;
nodes = (
"426 -10 OFFCURVE",
"519 22 OFFCURVE",
"519 102 CURVE SMOOTH",
"519 450 LINE",
"644 482 OFFCURVE",
"722 558 OFFCURVE",
"722 694 CURVE",
"659 694 LINE",
"658 590 OFFCURVE",
"607 540 OFFCURVE",
"529 507 CURVE",
"518 507 LINE",
"518 614 LINE",
"456 614 LINE",
"456 74 LINE",
"422 59 OFFCURVE",
"369 48 OFFCURVE",
"300 48 CURVE SMOOTH",
"190 48 OFFCURVE",
"141 77 OFFCURVE",
"141 182 CURVE SMOOTH",
"141 614 LINE",
"78 614 LINE",
"78 169 LINE SMOOTH",
"78 47 OFFCURVE",
"152 -10 OFFCURVE",
"293 -10 CURVE SMOOTH"
);
},
{
closed = 1;
nodes = (
"315 706 LINE",
"315 747 LINE",
"369 748 OFFCURVE",
"407 767 OFFCURVE",
"407 821 CURVE SMOOTH",
"407 864 OFFCURVE",
"382 896 OFFCURVE",
"321 896 CURVE SMOOTH",
"294 896 OFFCURVE",
"271 892 OFFCURVE",
"245 881 CURVE",
"258 844 LINE",
"275 851 OFFCURVE",
"295 854 OFFCURVE",
"312 854 CURVE SMOOTH",
"345 854 OFFCURVE",
"358 844 OFFCURVE",
"358 819 CURVE SMOOTH",
"358 787 OFFCURVE",
"333 783 OFFCURVE",
"269 783 CURVE",
"269 755 LINE",
"281 706 LINE"
);
}
);
width = 722;
}
);
note = Uhornhookabove;
unicode = 1EEC;
},
{
glyphname = Uhorntilde;
lastChange = "2015-07-20 05:44:28 +0000";
layers = (
{
layerId = "28A75667-7282-4999-AEF1-C99F5F2E1F18";
name = Regular;
paths = (
{
closed = 1;
nodes = (
"426 -10 OFFCURVE",
"519 22 OFFCURVE",
"519 102 CURVE SMOOTH",
"519 450 LINE",
"644 482 OFFCURVE",
"722 558 OFFCURVE",
"722 694 CURVE",
"659 694 LINE",
"658 590 OFFCURVE",
"607 540 OFFCURVE",
"529 507 CURVE",
"518 507 LINE",
"518 614 LINE",
"456 614 LINE",
"456 74 LINE",
"422 59 OFFCURVE",
"369 48 OFFCURVE",
"300 48 CURVE SMOOTH",
"190 48 OFFCURVE",
"141 77 OFFCURVE",
"141 182 CURVE SMOOTH",
"141 614 LINE",
"78 614 LINE",
"78 169 LINE SMOOTH",
"78 47 OFFCURVE",
"152 -10 OFFCURVE",
"293 -10 CURVE SMOOTH"
);
},
{
closed = 1;
nodes = (
"213 726 OFFCURVE",
"224 747 OFFCURVE",
"253 747 CURVE SMOOTH",
"288 747 OFFCURVE",
"317 698 OFFCURVE",
"365 698 CURVE SMOOTH",
"414 698 OFFCURVE",
"439 730 OFFCURVE",
"443 788 CURVE",
"402 801 LINE",
"398 771 OFFCURVE",
"386 751 OFFCURVE",
"358 751 CURVE SMOOTH",
"324 751 OFFCURVE",
"290 799 OFFCURVE",
"246 799 CURVE SMOOTH",
"197 799 OFFCURVE",
"172 767 OFFCURVE",
"168 710 CURVE",
"209 697 LINE"
);
}
);
width = 722;
}
);
note = Uhorntilde;
unicode = 1EEE;
},
{
glyphname = Uhungarumlaut;
lastChange = "2015-07-20 05:44:27 +0000";
layers = (
{
layerId = "28A75667-7282-4999-AEF1-C99F5F2E1F18";
name = Regular;
paths = (
{
closed = 1;
nodes = (
"426 -9 OFFCURVE",
"519 23 OFFCURVE",
"519 104 CURVE SMOOTH",
"519 614 LINE",
"456 614 LINE",
"456 75 LINE",
"422 60 OFFCURVE",
"369 50 OFFCURVE",
"300 50 CURVE SMOOTH",
"190 50 OFFCURVE",
"141 79 OFFCURVE",
"141 184 CURVE SMOOTH",
"141 614 LINE",
"78 614 LINE",
"78 170 LINE SMOOTH",
"78 49 OFFCURVE",
"152 -9 OFFCURVE",
"293 -9 CURVE SMOOTH"
);
},
{
closed = 1;
nodes = (
"250 734 OFFCURVE",
"267 777 OFFCURVE",
"267 821 CURVE SMOOTH",
"267 865 OFFCURVE",
"248 887 OFFCURVE",
"207 887 CURVE SMOOTH",
"192 887 OFFCURVE",
"178 885 OFFCURVE",
"165 880 CURVE",
"165 837 LINE",
"219 837 LINE",
"219 785 OFFCURVE",
"206 747 OFFCURVE",
"184 706 CURVE",
"221 698 LINE"
);
},
{
closed = 1;
nodes = (
"415 734 OFFCURVE",
"432 777 OFFCURVE",
"432 821 CURVE SMOOTH",
"432 865 OFFCURVE",
"414 887 OFFCURVE",
"373 887 CURVE SMOOTH",
"358 887 OFFCURVE",
"343 885 OFFCURVE",
"330 880 CURVE",
"330 837 LINE",
"384 837 LINE",
"384 785 OFFCURVE",
"371 747 OFFCURVE",
"349 706 CURVE",
"386 698 LINE"
);
}
);
width = 599;
}
);
note = Uhungarumlaut;
unicode = 0170;
},
{
glyphname = Umacron;
lastChange = "2015-07-20 05:44:27 +0000";
layers = (
{
layerId = "28A75667-7282-4999-AEF1-C99F5F2E1F18";
name = Regular;
paths = (
{
closed = 1;
nodes = (
"426 -9 OFFCURVE",
"519 23 OFFCURVE",
"519 104 CURVE SMOOTH",
"519 614 LINE",
"456 614 LINE",
"456 75 LINE",
"422 60 OFFCURVE",
"369 50 OFFCURVE",
"300 50 CURVE SMOOTH",
"190 50 OFFCURVE",
"141 79 OFFCURVE",
"141 184 CURVE SMOOTH",
"141 614 LINE",
"78 614 LINE",
"78 170 LINE SMOOTH",
"78 49 OFFCURVE",
"152 -9 OFFCURVE",
"293 -9 CURVE SMOOTH"
);
},
{
closed = 1;
nodes = (
"441 706 LINE",
"441 759 LINE",
"156 759 LINE",
"156 706 LINE"
);
}
);
width = 599;
}
);
note = Umacron;
unicode = 016A;
},
{
glyphname = Uogonek;
lastChange = "2015-07-20 05:44:23 +0000";
layers = (
{
layerId = "28A75667-7282-4999-AEF1-C99F5F2E1F18";
name = Regular;
paths = (
{
closed = 1;
nodes = (
"357 -165 OFFCURVE",
"375 -161 OFFCURVE",
"391 -154 CURVE",
"381 -112 LINE",
"367 -116 OFFCURVE",
"354 -117 OFFCURVE",
"340 -117 CURVE SMOOTH",
"326 -117 OFFCURVE",
"313 -116 OFFCURVE",
"301 -113 CURVE",
"297 -105 OFFCURVE",
"295 -94 OFFCURVE",
"295 -83 CURVE SMOOTH",
"295 -52 OFFCURVE",
"307 -31 OFFCURVE",
"343 -7 CURVE",
"449 1 OFFCURVE",
"519 34 OFFCURVE",
"519 104 CURVE SMOOTH",
"519 614 LINE",
"456 614 LINE",
"456 75 LINE",
"422 60 OFFCURVE",
"369 50 OFFCURVE",
"300 50 CURVE SMOOTH",
"190 50 OFFCURVE",
"141 79 OFFCURVE",
"141 184 CURVE SMOOTH",
"141 614 LINE",
"78 614 LINE",
"78 170 LINE SMOOTH",
"78 51 OFFCURVE",
"148 -6 OFFCURVE",
"283 -9 CURVE",
"256 -28 OFFCURVE",
"240 -51 OFFCURVE",
"240 -87 CURVE SMOOTH",
"240 -135 OFFCURVE",
"275 -165 OFFCURVE",
"331 -165 CURVE SMOOTH"
);
}
);
width = 599;
}
);
note = Uogonek;
unicode = 0172;
},
{
glyphname = Uring;
lastChange = "2015-07-20 05:44:27 +0000";
layers = (
{
layerId = "28A75667-7282-4999-AEF1-C99F5F2E1F18";
name = Regular;
paths = (
{
closed = 1;
nodes = (
"426 -9 OFFCURVE",
"519 23 OFFCURVE",
"519 104 CURVE SMOOTH",
"519 614 LINE",
"456 614 LINE",
"456 75 LINE",
"422 60 OFFCURVE",
"369 50 OFFCURVE",
"300 50 CURVE SMOOTH",
"190 50 OFFCURVE",
"141 79 OFFCURVE",
"141 184 CURVE SMOOTH",
"141 614 LINE",
"78 614 LINE",
"78 170 LINE SMOOTH",
"78 49 OFFCURVE",
"152 -9 OFFCURVE",
"293 -9 CURVE SMOOTH"
);
},
{
closed = 1;
nodes = (
"366 649 OFFCURVE",
"409 691 OFFCURVE",
"409 741 CURVE SMOOTH",
"409 798 OFFCURVE",
"372 830 OFFCURVE",
"306 830 CURVE SMOOTH",
"231 830 OFFCURVE",
"189 785 OFFCURVE",
"189 735 CURVE SMOOTH",
"189 679 OFFCURVE",
"227 649 OFFCURVE",
"291 649 CURVE SMOOTH"
);
},
{
closed = 1;
nodes = (
"255 689 OFFCURVE",
"234 707 OFFCURVE",
"234 737 CURVE SMOOTH",
"234 752 OFFCURVE",
"235 766 OFFCURVE",
"241 783 CURVE",
"260 789 OFFCURVE",
"279 791 OFFCURVE",
"304 791 CURVE SMOOTH",
"343 791 OFFCURVE",
"364 771 OFFCURVE",
"364 739 CURVE SMOOTH",
"364 724 OFFCURVE",
"361 710 OFFCURVE",
"357 696 CURVE",
"339 690 OFFCURVE",
"318 689 OFFCURVE",
"294 689 CURVE SMOOTH"
);
}
);
width = 599;
}
);
note = Uring;
unicode = 016E;
},
{
glyphname = Utilde;
lastChange = "2015-07-20 05:44:28 +0000";
layers = (
{
layerId = "28A75667-7282-4999-AEF1-C99F5F2E1F18";
name = Regular;
paths = (
{
closed = 1;
nodes = (
"426 -9 OFFCURVE",
"519 23 OFFCURVE",
"519 104 CURVE SMOOTH",
"519 614 LINE",
"456 614 LINE",
"456 75 LINE",
"422 60 OFFCURVE",
"369 50 OFFCURVE",
"300 50 CURVE SMOOTH",
"190 50 OFFCURVE",
"141 79 OFFCURVE",
"141 184 CURVE SMOOTH",
"141 614 LINE",
"78 614 LINE",
"78 170 LINE SMOOTH",
"78 49 OFFCURVE",
"152 -9 OFFCURVE",
"293 -9 CURVE SMOOTH"
);
},
{
closed = 1;
nodes = (
"210 729 OFFCURVE",
"221 749 OFFCURVE",
"250 749 CURVE SMOOTH",
"285 749 OFFCURVE",
"314 701 OFFCURVE",
"362 701 CURVE SMOOTH",
"411 701 OFFCURVE",
"436 733 OFFCURVE",
"440 791 CURVE",
"399 804 LINE",
"395 774 OFFCURVE",
"383 754 OFFCURVE",
"355 754 CURVE SMOOTH",
"321 754 OFFCURVE",
"287 802 OFFCURVE",
"243 802 CURVE SMOOTH",
"194 802 OFFCURVE",
"169 770 OFFCURVE",
"165 712 CURVE",
"206 699 LINE"
);
}
);
width = 599;
}
);
note = Utilde;
unicode = 0168;
},
{
glyphname = V;
lastChange = "2015-07-20 09:50:58 +0000";
layers = (
{
layerId = "28A75667-7282-4999-AEF1-C99F5F2E1F18";
name = Regular;
paths = (
{
closed = 1;
nodes = (
"337 0 LINE",
"415 173 OFFCURVE",
"492 414 OFFCURVE",
"541 615 CURVE",
"474 620 LINE",
"429 427 OFFCURVE",
"352 186 OFFCURVE",
"298 60 CURVE",
"283 60 LINE",
"229 186 OFFCURVE",
"152 427 OFFCURVE",
"107 620 CURVE",
"40 615 LINE",
"90 414 OFFCURVE",
"166 173 OFFCURVE",
"244 0 CURVE"
);
}
);
width = 582;
}
);
note = V;
unicode = 0056;
},
{
glyphname = W;
lastChange = "2015-07-20 10:00:39 +0000";
layers = (
{
layerId = "28A75667-7282-4999-AEF1-C99F5F2E1F18";
name = Regular;
paths = (
{
closed = 1;
nodes = (
"272 0 LINE",
"327 134 OFFCURVE",
"371 261 OFFCURVE",
"411 385 CURVE",
"422 385 LINE",
"459 253 OFFCURVE",
"498 135 OFFCURVE",
"546 0 CURVE",
"625 0 LINE",
"679 181 OFFCURVE",
"733 384 OFFCURVE",
"783 609 CURVE",
"715 617 LINE",
"674 399 OFFCURVE",
"627 213 OFFCURVE",
"590 75 CURVE",
"581 75 LINE",
"530 227 OFFCURVE",
"474 405 OFFCURVE",
"431 610 CURVE",
"368 603 LINE",
"373 573 OFFCURVE",
"383 527 OFFCURVE",
"390 498 CURVE",
"341 340 OFFCURVE",
"285 181 OFFCURVE",
"243 75 CURVE",
"236 75 LINE",
"199 213 OFFCURVE",
"151 399 OFFCURVE",
"111 617 CURVE",
"43 609 LINE",
"92 384 OFFCURVE",
"146 181 OFFCURVE",
"200 0 CURVE"
);
}
);
width = 826;
}
);
leftKerningGroup = W;
note = W;
rightKerningGroup = W;
unicode = 0057;
},
{
glyphname = Wacute;
lastChange = "2015-07-20 09:28:01 +0000";
layers = (
{
layerId = "28A75667-7282-4999-AEF1-C99F5F2E1F18";
name = Regular;
paths = (
{
closed = 1;
nodes = (
"272 0 LINE",
"327 134 OFFCURVE",
"371 261 OFFCURVE",
"411 385 CURVE",
"422 385 LINE",
"459 253 OFFCURVE",
"498 135 OFFCURVE",
"546 0 CURVE",
"625 0 LINE",
"679 181 OFFCURVE",
"733 384 OFFCURVE",
"783 609 CURVE",
"715 617 LINE",
"674 399 OFFCURVE",
"627 213 OFFCURVE",
"590 75 CURVE",
"581 75 LINE",
"530 227 OFFCURVE",
"474 405 OFFCURVE",
"431 610 CURVE",
"368 603 LINE",
"373 573 OFFCURVE",
"383 527 OFFCURVE",
"390 498 CURVE",
"341 340 OFFCURVE",
"285 181 OFFCURVE",
"243 75 CURVE",
"236 75 LINE",
"199 213 OFFCURVE",
"151 399 OFFCURVE",
"111 617 CURVE",
"43 609 LINE",
"92 384 OFFCURVE",
"146 181 OFFCURVE",
"200 0 CURVE"
);
},
{
closed = 1;
nodes = (
"535 840 LINE",
"454 848 LINE",
"371 706 LINE",
"416 698 LINE"
);
}
);
width = 826;
}
);
leftKerningGroup = W;
note = Wacute;
rightKerningGroup = W;
unicode = 1E82;
},
{
glyphname = Wcircumflex;
lastChange = "2015-07-20 09:28:01 +0000";
layers = (
{
layerId = "28A75667-7282-4999-AEF1-C99F5F2E1F18";
name = Regular;
paths = (
{
closed = 1;
nodes = (
"272 0 LINE",
"327 134 OFFCURVE",
"371 261 OFFCURVE",
"411 385 CURVE",
"422 385 LINE",
"459 253 OFFCURVE",
"498 135 OFFCURVE",
"546 0 CURVE",
"625 0 LINE",
"679 181 OFFCURVE",
"733 384 OFFCURVE",
"783 609 CURVE",
"715 617 LINE",
"674 399 OFFCURVE",
"627 213 OFFCURVE",
"590 75 CURVE",
"581 75 LINE",
"530 227 OFFCURVE",
"474 405 OFFCURVE",
"431 610 CURVE",
"368 603 LINE",
"373 573 OFFCURVE",
"383 527 OFFCURVE",
"390 498 CURVE",
"341 340 OFFCURVE",
"285 181 OFFCURVE",
"243 75 CURVE",
"236 75 LINE",
"199 213 OFFCURVE",
"151 399 OFFCURVE",
"111 617 CURVE",
"43 609 LINE",
"92 384 OFFCURVE",
"146 181 OFFCURVE",
"200 0 CURVE"
);
},
{
closed = 1;
nodes = (
"410 785 LINE",
"416 785 LINE",
"503 697 LINE",
"544 705 LINE",
"443 838 LINE",
"383 838 LINE",
"282 705 LINE",
"321 697 LINE"
);
}
);
width = 826;
}
);
leftKerningGroup = W;
note = Wcircumflex;
rightKerningGroup = W;
unicode = 0174;
},
{
glyphname = Wdieresis;
lastChange = "2015-07-20 09:28:01 +0000";
layers = (
{
layerId = "28A75667-7282-4999-AEF1-C99F5F2E1F18";
name = Regular;
paths = (
{
closed = 1;
nodes = (
"272 0 LINE",
"327 134 OFFCURVE",
"371 261 OFFCURVE",
"411 385 CURVE",
"422 385 LINE",
"459 253 OFFCURVE",
"498 135 OFFCURVE",
"546 0 CURVE",
"625 0 LINE",
"679 181 OFFCURVE",
"733 384 OFFCURVE",
"783 609 CURVE",
"715 617 LINE",
"674 399 OFFCURVE",
"627 213 OFFCURVE",
"590 75 CURVE",
"581 75 LINE",
"530 227 OFFCURVE",
"474 405 OFFCURVE",
"431 610 CURVE",
"368 603 LINE",
"373 573 OFFCURVE",
"383 527 OFFCURVE",
"390 498 CURVE",
"341 340 OFFCURVE",
"285 181 OFFCURVE",
"243 75 CURVE",
"236 75 LINE",
"199 213 OFFCURVE",
"151 399 OFFCURVE",
"111 617 CURVE",
"43 609 LINE",
"92 384 OFFCURVE",
"146 181 OFFCURVE",
"200 0 CURVE"
);
},
{
closed = 1;
nodes = (
"359 701 OFFCURVE",
"373 715 OFFCURVE",
"373 738 CURVE SMOOTH",
"373 762 OFFCURVE",
"359 775 OFFCURVE",
"335 775 CURVE SMOOTH",
"311 775 OFFCURVE",
"296 762 OFFCURVE",
"296 738 CURVE SMOOTH",
"296 715 OFFCURVE",
"311 701 OFFCURVE",
"335 701 CURVE SMOOTH"
);
},
{
closed = 1;
nodes = (
"517 701 OFFCURVE",
"531 715 OFFCURVE",
"531 738 CURVE SMOOTH",
"531 762 OFFCURVE",
"517 775 OFFCURVE",
"493 775 CURVE SMOOTH",
"468 775 OFFCURVE",
"453 762 OFFCURVE",
"453 738 CURVE SMOOTH",
"453 715 OFFCURVE",
"468 701 OFFCURVE",
"493 701 CURVE SMOOTH"
);
}
);
width = 826;
}
);
leftKerningGroup = W;
note = Wdieresis;
rightKerningGroup = W;
unicode = 1E84;
},
{
glyphname = Wgrave;
lastChange = "2015-07-20 09:28:01 +0000";
layers = (
{
layerId = "28A75667-7282-4999-AEF1-C99F5F2E1F18";
name = Regular;
paths = (
{
closed = 1;
nodes = (
"272 0 LINE",
"327 134 OFFCURVE",
"371 261 OFFCURVE",
"411 385 CURVE",
"422 385 LINE",
"459 253 OFFCURVE",
"498 135 OFFCURVE",
"546 0 CURVE",
"625 0 LINE",
"679 181 OFFCURVE",
"733 384 OFFCURVE",
"783 609 CURVE",
"715 617 LINE",
"674 399 OFFCURVE",
"627 213 OFFCURVE",
"590 75 CURVE",
"581 75 LINE",
"530 227 OFFCURVE",
"474 405 OFFCURVE",
"431 610 CURVE",
"368 603 LINE",
"373 573 OFFCURVE",
"383 527 OFFCURVE",
"390 498 CURVE",
"341 340 OFFCURVE",
"285 181 OFFCURVE",
"243 75 CURVE",
"236 75 LINE",
"199 213 OFFCURVE",
"151 399 OFFCURVE",
"111 617 CURVE",
"43 609 LINE",
"92 384 OFFCURVE",
"146 181 OFFCURVE",
"200 0 CURVE"
);
},
{
closed = 1;
nodes = (
"456 706 LINE",
"373 848 LINE",
"292 840 LINE",
"411 698 LINE"
);
}
);
width = 826;
}
);
leftKerningGroup = W;
note = Wgrave;
rightKerningGroup = W;
unicode = 1E80;
},
{
glyphname = X;
lastChange = "2015-07-20 10:02:02 +0000";
layers = (
{
layerId = "28A75667-7282-4999-AEF1-C99F5F2E1F18";
name = Regular;
paths = (
{
closed = 1;
nodes = (
"163 94 OFFCURVE",
"220 178 OFFCURVE",
"292 278 CURVE",
"318 278 LINE",
"384 182 OFFCURVE",
"441 93 OFFCURVE",
"492 -7 CURVE",
"558 10 LINE",
"506 108 OFFCURVE",
"431 225 OFFCURVE",
"370 310 CURVE",
"434 397 OFFCURVE",
"505 505 OFFCURVE",
"559 606 CURVE",
"495 620 LINE",
"441 515 OFFCURVE",
"384 428 OFFCURVE",
"319 337 CURVE",
"292 337 LINE",
"233 424 OFFCURVE",
"177 516 OFFCURVE",
"124 620 CURVE",
"55 605 LINE",
"109 506 OFFCURVE",
"183 387 OFFCURVE",
"241 305 CURVE",
"175 217 OFFCURVE",
"102 109 OFFCURVE",
"47 10 CURVE",
"111 -7 LINE"
);
}
);
width = 613;
}
);
note = X;
unicode = 0058;
},
{
glyphname = Y;
lastChange = "2015-07-20 10:02:52 +0000";
layers = (
{
layerId = "28A75667-7282-4999-AEF1-C99F5F2E1F18";
name = Regular;
paths = (
{
closed = 1;
nodes = (
"332 0 LINE",
"332 221 LINE",
"351 221 LINE",
"440 334 OFFCURVE",
"507 452 OFFCURVE",
"570 602 CURVE",
"507 619 LINE",
"453 484 OFFCURVE",
"382 360 OFFCURVE",
"318 271 CURVE",
"283 271 LINE",
"218 360 OFFCURVE",
"147 484 OFFCURVE",
"93 619 CURVE",
"30 602 LINE",
"94 452 OFFCURVE",
"161 334 OFFCURVE",
"249 221 CURVE",
"269 221 LINE",
"269 0 LINE"
);
}
);
width = 601;
}
);
leftKerningGroup = Y;
note = Y;
rightKerningGroup = Y;
unicode = 0059;
},
{
glyphname = Yacute;
lastChange = "2015-07-20 09:28:08 +0000";
layers = (
{
layerId = "28A75667-7282-4999-AEF1-C99F5F2E1F18";
name = Regular;
paths = (
{
closed = 1;
nodes = (
"332 0 LINE",
"332 221 LINE",
"351 221 LINE",
"440 334 OFFCURVE",
"507 452 OFFCURVE",
"570 602 CURVE",
"507 619 LINE",
"453 484 OFFCURVE",
"382 360 OFFCURVE",
"318 271 CURVE",
"283 271 LINE",
"218 360 OFFCURVE",
"147 484 OFFCURVE",
"93 619 CURVE",
"30 602 LINE",
"94 452 OFFCURVE",
"161 334 OFFCURVE",
"249 221 CURVE",
"269 221 LINE",
"269 0 LINE"
);
},
{
closed = 1;
nodes = (
"429 839 LINE",
"348 848 LINE",
"265 705 LINE",
"310 698 LINE"
);
}
);
width = 601;
}
);
leftKerningGroup = Y;
note = Yacute;
rightKerningGroup = Y;
unicode = 00DD;
},
{
glyphname = Ycircumflex;
lastChange = "2015-07-20 09:28:08 +0000";
layers = (
{
layerId = "28A75667-7282-4999-AEF1-C99F5F2E1F18";
name = Regular;
paths = (
{
closed = 1;
nodes = (
"332 0 LINE",
"332 221 LINE",
"351 221 LINE",
"440 334 OFFCURVE",
"507 452 OFFCURVE",
"570 602 CURVE",
"507 619 LINE",
"453 484 OFFCURVE",
"382 360 OFFCURVE",
"318 271 CURVE",
"283 271 LINE",
"218 360 OFFCURVE",
"147 484 OFFCURVE",
"93 619 CURVE",
"30 602 LINE",
"94 452 OFFCURVE",
"161 334 OFFCURVE",
"249 221 CURVE",
"269 221 LINE",
"269 0 LINE"
);
},
{
closed = 1;
nodes = (
"298 786 LINE",
"304 786 LINE",
"391 697 LINE",
"432 706 LINE",
"331 838 LINE",
"271 838 LINE",
"170 706 LINE",
"209 697 LINE"
);
}
);
width = 601;
}
);
leftKerningGroup = Y;
note = Ycircumflex;
rightKerningGroup = Y;
unicode = 0176;
},
{
glyphname = Ydieresis;
lastChange = "2015-07-20 09:28:08 +0000";
layers = (
{
layerId = "28A75667-7282-4999-AEF1-C99F5F2E1F18";
name = Regular;
paths = (
{
closed = 1;
nodes = (
"332 0 LINE",
"332 221 LINE",
"351 221 LINE",
"440 334 OFFCURVE",
"507 452 OFFCURVE",
"570 602 CURVE",
"507 619 LINE",
"453 484 OFFCURVE",
"382 360 OFFCURVE",
"318 271 CURVE",
"283 271 LINE",
"218 360 OFFCURVE",
"147 484 OFFCURVE",
"93 619 CURVE",
"30 602 LINE",
"94 452 OFFCURVE",
"161 334 OFFCURVE",
"249 221 CURVE",
"269 221 LINE",
"269 0 LINE"
);
},
{
closed = 1;
nodes = (
"246 701 OFFCURVE",
"260 715 OFFCURVE",
"260 738 CURVE SMOOTH",
"260 762 OFFCURVE",
"246 775 OFFCURVE",
"222 775 CURVE SMOOTH",
"198 775 OFFCURVE",
"183 762 OFFCURVE",
"183 738 CURVE SMOOTH",
"183 715 OFFCURVE",
"198 701 OFFCURVE",
"222 701 CURVE SMOOTH"
);
},
{
closed = 1;
nodes = (
"404 701 OFFCURVE",
"418 715 OFFCURVE",
"418 738 CURVE SMOOTH",
"418 762 OFFCURVE",
"404 775 OFFCURVE",
"380 775 CURVE SMOOTH",
"355 775 OFFCURVE",
"340 762 OFFCURVE",
"340 738 CURVE SMOOTH",
"340 715 OFFCURVE",
"355 701 OFFCURVE",
"380 701 CURVE SMOOTH"
);
}
);
width = 601;
}
);
leftKerningGroup = Y;
note = Ydieresis;
rightKerningGroup = Y;
unicode = 0178;
},
{
glyphname = Ydotaccent;
lastChange = "2015-07-20 09:28:08 +0000";
layers = (
{
layerId = "28A75667-7282-4999-AEF1-C99F5F2E1F18";
name = Regular;
paths = (
{
closed = 1;
nodes = (
"332 0 LINE",
"332 221 LINE",
"351 221 LINE",
"440 334 OFFCURVE",
"507 452 OFFCURVE",
"570 602 CURVE",
"507 619 LINE",
"453 484 OFFCURVE",
"382 360 OFFCURVE",
"318 271 CURVE",
"283 271 LINE",
"218 360 OFFCURVE",
"147 484 OFFCURVE",
"93 619 CURVE",
"30 602 LINE",
"94 452 OFFCURVE",
"161 334 OFFCURVE",
"249 221 CURVE",
"269 221 LINE",
"269 0 LINE"
);
},
{
closed = 1;
nodes = (
"333 701 OFFCURVE",
"351 719 OFFCURVE",
"351 748 CURVE SMOOTH",
"351 780 OFFCURVE",
"333 797 OFFCURVE",
"301 797 CURVE SMOOTH",
"270 797 OFFCURVE",
"251 780 OFFCURVE",
"251 748 CURVE SMOOTH",
"251 719 OFFCURVE",
"270 701 OFFCURVE",
"301 701 CURVE SMOOTH"
);
}
);
width = 601;
}
);
leftKerningGroup = Y;
note = Ydotaccent;
rightKerningGroup = Y;
unicode = 1E8E;
},
{
glyphname = Ydotbelow;
lastChange = "2015-07-20 09:28:08 +0000";
layers = (
{
layerId = "28A75667-7282-4999-AEF1-C99F5F2E1F18";
name = Regular;
paths = (
{
closed = 1;
nodes = (
"332 0 LINE",
"332 221 LINE",
"351 221 LINE",
"440 334 OFFCURVE",
"507 452 OFFCURVE",
"570 602 CURVE",
"507 619 LINE",
"453 484 OFFCURVE",
"382 360 OFFCURVE",
"318 271 CURVE",
"283 271 LINE",
"218 360 OFFCURVE",
"147 484 OFFCURVE",
"93 619 CURVE",
"30 602 LINE",
"94 452 OFFCURVE",
"161 334 OFFCURVE",
"249 221 CURVE",
"269 221 LINE",
"269 0 LINE"
);
},
{
closed = 1;
nodes = (
"332 -164 OFFCURVE",
"350 -146 OFFCURVE",
"350 -117 CURVE SMOOTH",
"350 -85 OFFCURVE",
"332 -68 OFFCURVE",
"300 -68 CURVE SMOOTH",
"269 -68 OFFCURVE",
"250 -85 OFFCURVE",
"250 -117 CURVE SMOOTH",
"250 -146 OFFCURVE",
"269 -164 OFFCURVE",
"300 -164 CURVE SMOOTH"
);
}
);
width = 601;
}
);
leftKerningGroup = Y;
note = Ydotbelow;
rightKerningGroup = Y;
unicode = 1EF4;
},
{
glyphname = Ygrave;
lastChange = "2015-07-20 09:28:08 +0000";
layers = (
{
layerId = "28A75667-7282-4999-AEF1-C99F5F2E1F18";
name = Regular;
paths = (
{
closed = 1;
nodes = (
"332 0 LINE",
"332 221 LINE",
"351 221 LINE",
"440 334 OFFCURVE",
"507 452 OFFCURVE",
"570 602 CURVE",
"507 619 LINE",
"453 484 OFFCURVE",
"382 360 OFFCURVE",
"318 271 CURVE",
"283 271 LINE",
"218 360 OFFCURVE",
"147 484 OFFCURVE",
"93 619 CURVE",
"30 602 LINE",
"94 452 OFFCURVE",
"161 334 OFFCURVE",
"249 221 CURVE",
"269 221 LINE",
"269 0 LINE"
);
},
{
closed = 1;
nodes = (
"338 706 LINE",
"255 849 LINE",
"174 840 LINE",
"293 699 LINE"
);
}
);
width = 601;
}
);
leftKerningGroup = Y;
note = Ygrave;
rightKerningGroup = Y;
unicode = 1EF2;
},
{
glyphname = Yhookabove;
lastChange = "2015-07-20 09:28:08 +0000";
layers = (
{
layerId = "28A75667-7282-4999-AEF1-C99F5F2E1F18";
name = Regular;
paths = (
{
closed = 1;
nodes = (
"332 0 LINE",
"332 221 LINE",
"351 221 LINE",
"440 334 OFFCURVE",
"507 452 OFFCURVE",
"570 602 CURVE",
"507 619 LINE",
"453 484 OFFCURVE",
"382 360 OFFCURVE",
"318 271 CURVE",
"283 271 LINE",
"218 360 OFFCURVE",
"147 484 OFFCURVE",
"93 619 CURVE",
"30 602 LINE",
"94 452 OFFCURVE",
"161 334 OFFCURVE",
"249 221 CURVE",
"269 221 LINE",
"269 0 LINE"
);
},
{
closed = 1;
nodes = (
"317 706 LINE",
"317 747 LINE",
"371 748 OFFCURVE",
"409 767 OFFCURVE",
"409 821 CURVE SMOOTH",
"409 864 OFFCURVE",
"384 896 OFFCURVE",
"323 896 CURVE SMOOTH",
"296 896 OFFCURVE",
"273 892 OFFCURVE",
"247 881 CURVE",
"260 844 LINE",
"277 851 OFFCURVE",
"297 854 OFFCURVE",
"314 854 CURVE SMOOTH",
"347 854 OFFCURVE",
"360 844 OFFCURVE",
"360 819 CURVE SMOOTH",
"360 787 OFFCURVE",
"335 783 OFFCURVE",
"271 783 CURVE",
"271 755 LINE",
"283 706 LINE"
);
}
);
width = 601;
}
);
leftKerningGroup = Y;
note = Yhookabove;
rightKerningGroup = Y;
unicode = 1EF6;
},
{
glyphname = Ytilde;
lastChange = "2015-07-20 09:28:08 +0000";
layers = (
{
layerId = "28A75667-7282-4999-AEF1-C99F5F2E1F18";
name = Regular;
paths = (
{
closed = 1;
nodes = (
"332 0 LINE",
"332 221 LINE",
"351 221 LINE",
"440 334 OFFCURVE",
"507 452 OFFCURVE",
"570 602 CURVE",
"507 619 LINE",
"453 484 OFFCURVE",
"382 360 OFFCURVE",
"318 271 CURVE",
"283 271 LINE",
"218 360 OFFCURVE",
"147 484 OFFCURVE",
"93 619 CURVE",
"30 602 LINE",
"94 452 OFFCURVE",
"161 334 OFFCURVE",
"249 221 CURVE",
"269 221 LINE",
"269 0 LINE"
);
},
{
closed = 1;
nodes = (
"208 726 OFFCURVE",
"219 747 OFFCURVE",
"248 747 CURVE SMOOTH",
"283 747 OFFCURVE",
"312 698 OFFCURVE",
"360 698 CURVE SMOOTH",
"409 698 OFFCURVE",
"434 730 OFFCURVE",
"438 788 CURVE",
"397 801 LINE",
"393 771 OFFCURVE",
"381 751 OFFCURVE",
"353 751 CURVE SMOOTH",
"319 751 OFFCURVE",
"285 799 OFFCURVE",
"241 799 CURVE SMOOTH",
"192 799 OFFCURVE",
"167 767 OFFCURVE",
"163 710 CURVE",
"204 697 LINE"
);
}
);
width = 601;
}
);
leftKerningGroup = Y;
note = Ytilde;
rightKerningGroup = Y;
unicode = 1EF8;
},
{
glyphname = Z;
lastChange = "2015-07-20 05:44:23 +0000";
layers = (
{
layerId = "28A75667-7282-4999-AEF1-C99F5F2E1F18";
name = Regular;
paths = (
{
closed = 1;
nodes = (
"498 0 LINE",
"498 38 LINE SMOOTH",
"498 70 OFFCURVE",
"491 103 OFFCURVE",
"483 128 CURVE",
"432 128 LINE",
"432 57 LINE",
"130 57 LINE",
"130 69 LINE",
"487 547 LINE",
"487 614 LINE",
"69 614 LINE",
"69 575 LINE SMOOTH",
"69 543 OFFCURVE",
"76 513 OFFCURVE",
"85 488 CURVE",
"135 488 LINE",
"135 556 LINE",
"412 556 LINE",
"412 546 LINE",
"56 68 LINE",
"56 0 LINE"
);
}
);
width = 552;
}
);
note = Z;
unicode = 005A;
},
{
glyphname = Zacute;
lastChange = "2015-07-20 05:44:27 +0000";
layers = (
{
layerId = "28A75667-7282-4999-AEF1-C99F5F2E1F18";
name = Regular;
paths = (
{
closed = 1;
nodes = (
"497 0 LINE",
"497 38 LINE SMOOTH",
"497 70 OFFCURVE",
"490 103 OFFCURVE",
"482 128 CURVE",
"431 128 LINE",
"431 57 LINE",
"129 57 LINE",
"129 69 LINE",
"486 547 LINE",
"486 614 LINE",
"68 614 LINE",
"68 575 LINE SMOOTH",
"68 543 OFFCURVE",
"75 513 OFFCURVE",
"84 488 CURVE",
"134 488 LINE",
"134 556 LINE",
"411 556 LINE",
"411 546 LINE",
"55 68 LINE",
"55 0 LINE"
);
},
{
closed = 1;
nodes = (
"397 840 LINE",
"316 848 LINE",
"233 706 LINE",
"278 698 LINE"
);
}
);
width = 551;
}
);
note = Zacute;
unicode = 0179;
},
{
glyphname = Zcaron;
lastChange = "2015-07-20 05:44:28 +0000";
layers = (
{
layerId = "28A75667-7282-4999-AEF1-C99F5F2E1F18";
name = Regular;
paths = (
{
closed = 1;
nodes = (
"497 0 LINE",
"497 38 LINE SMOOTH",
"497 70 OFFCURVE",
"490 103 OFFCURVE",
"482 128 CURVE",
"431 128 LINE",
"431 57 LINE",
"129 57 LINE",
"129 69 LINE",
"486 547 LINE",
"486 614 LINE",
"68 614 LINE",
"68 575 LINE SMOOTH",
"68 543 OFFCURVE",
"75 513 OFFCURVE",
"84 488 CURVE",
"134 488 LINE",
"134 556 LINE",
"411 556 LINE",
"411 546 LINE",
"55 68 LINE",
"55 0 LINE"
);
},
{
closed = 1;
nodes = (
"308 706 LINE",
"409 839 LINE",
"368 847 LINE",
"281 759 LINE",
"275 759 LINE",
"186 847 LINE",
"147 839 LINE",
"248 706 LINE"
);
}
);
width = 551;
}
);
note = Zcaron;
unicode = 017D;
},
{
glyphname = Zdotaccent;
lastChange = "2015-07-20 05:44:26 +0000";
layers = (
{
layerId = "28A75667-7282-4999-AEF1-C99F5F2E1F18";
name = Regular;
paths = (
{
closed = 1;
nodes = (
"497 0 LINE",
"497 38 LINE SMOOTH",
"497 70 OFFCURVE",
"490 103 OFFCURVE",
"482 128 CURVE",
"431 128 LINE",
"431 57 LINE",
"129 57 LINE",
"129 69 LINE",
"486 547 LINE",
"486 614 LINE",
"68 614 LINE",
"68 575 LINE SMOOTH",
"68 543 OFFCURVE",
"75 513 OFFCURVE",
"84 488 CURVE",
"134 488 LINE",
"134 556 LINE",
"411 556 LINE",
"411 546 LINE",
"55 68 LINE",
"55 0 LINE"
);
},
{
closed = 1;
nodes = (
"314 701 OFFCURVE",
"332 719 OFFCURVE",
"332 748 CURVE SMOOTH",
"332 780 OFFCURVE",
"314 797 OFFCURVE",
"282 797 CURVE SMOOTH",
"251 797 OFFCURVE",
"232 780 OFFCURVE",
"232 748 CURVE SMOOTH",
"232 719 OFFCURVE",
"251 701 OFFCURVE",
"282 701 CURVE SMOOTH"
);
}
);
width = 551;
}
);
note = Zdotaccent;
unicode = 017B;
},
{
glyphname = Zdotbelow;
lastChange = "2015-07-20 05:44:26 +0000";
layers = (
{
layerId = "28A75667-7282-4999-AEF1-C99F5F2E1F18";
name = Regular;
paths = (
{
closed = 1;
nodes = (
"497 0 LINE",
"497 38 LINE SMOOTH",
"497 70 OFFCURVE",
"490 103 OFFCURVE",
"482 128 CURVE",
"431 128 LINE",
"431 57 LINE",
"129 57 LINE",
"129 69 LINE",
"486 547 LINE",
"486 614 LINE",
"68 614 LINE",
"68 575 LINE SMOOTH",
"68 543 OFFCURVE",
"75 513 OFFCURVE",
"84 488 CURVE",
"134 488 LINE",
"134 556 LINE",
"411 556 LINE",
"411 546 LINE",
"55 68 LINE",
"55 0 LINE"
);
},
{
closed = 1;
nodes = (
"315 -159 OFFCURVE",
"333 -141 OFFCURVE",
"333 -112 CURVE SMOOTH",
"333 -80 OFFCURVE",
"315 -63 OFFCURVE",
"283 -63 CURVE SMOOTH",
"252 -63 OFFCURVE",
"233 -80 OFFCURVE",
"233 -112 CURVE SMOOTH",
"233 -141 OFFCURVE",
"252 -159 OFFCURVE",
"283 -159 CURVE SMOOTH"
);
}
);
width = 551;
}
);
note = Zdotbelow;
unicode = 1E92;
},
{
glyphname = a;
lastChange = "2015-07-20 09:28:26 +0000";
layers = (
{
layerId = "28A75667-7282-4999-AEF1-C99F5F2E1F18";
name = Regular;
paths = (
{
closed = 1;
nodes = (
"242 -9 OFFCURVE",
"294 20 OFFCURVE",
"328 66 CURVE",
"336 66 LINE",
"340 0 LINE",
"392 0 LINE",
"392 331 LINE SMOOTH",
"392 424 OFFCURVE",
"339 476 OFFCURVE",
"247 476 CURVE SMOOTH",
"187 476 OFFCURVE",
"118 452 OFFCURVE",
"80 430 CURVE",
"80 411 LINE SMOOTH",
"80 391 OFFCURVE",
"85 367 OFFCURVE",
"91 350 CURVE",
"136 350 LINE",
"146 422 LINE",
"167 425 OFFCURVE",
"197 427 OFFCURVE",
"223 427 CURVE SMOOTH",
"301 427 OFFCURVE",
"331 403 OFFCURVE",
"331 322 CURVE SMOOTH",
"331 254 LINE",
"309 256 OFFCURVE",
"281 258 OFFCURVE",
"254 258 CURVE SMOOTH",
"126 258 OFFCURVE",
"45 211 OFFCURVE",
"45 108 CURVE SMOOTH",
"45 38 OFFCURVE",
"90 -9 OFFCURVE",
"179 -9 CURVE SMOOTH"
);
},
{
closed = 1;
nodes = (
"139 40 OFFCURVE",
"108 57 OFFCURVE",
"108 117 CURVE SMOOTH",
"108 150 OFFCURVE",
"115 175 OFFCURVE",
"131 205 CURVE",
"158 213 OFFCURVE",
"198 216 OFFCURVE",
"234 216 CURVE SMOOTH",
"271 216 OFFCURVE",
"306 213 OFFCURVE",
"334 208 CURVE",
"334 119 LINE",
"301 70 OFFCURVE",
"249 40 OFFCURVE",
"189 40 CURVE SMOOTH"
);
}
);
width = 465;
}
);
leftKerningGroup = a;
note = a;
rightKerningGroup = a;
unicode = 0061;
},
